<svg version="1.1" xmlns="http://www.w3.org/2000/svg" viewBox="0 0 994.3958008944934 474.1910304782541" width="1988.7916017889868" height="948.3820609565082">
    <!-- svg-source:excalidraw -->

    <defs>
        <style class="style-fonts">
            @font-face {
            font-family: "Virgil";
            src: url("https://excalidraw.com/Virgil.woff2");
            }
            @font-face {
            font-family: "Cascadia";
            src: url("https://excalidraw.com/Cascadia.woff2");
            }
            @font-face {
            font-family: "Assistant";
            src: url("https://excalidraw.com/Assistant-Regular.woff2");
            }
        </style>

    </defs>
    <rect x="0" y="0" width="994.3958008944934" height="474.1910304782541" fill="#ffffff"></rect><g stroke-opacity="0.1" fill-opacity="0.1" stroke-linecap="round" transform="translate(10 150.1707379289146) rotate(0 82.8016471095599 86.39843217891985)"><path d="M0 0 L165.6 0 L165.6 172.8 L0 172.8" stroke="none" stroke-width="0" fill="#2b8a3e"></path><path d="M0 0 C35.2 0, 70.4 0, 165.6 0 M0 0 C57.61 0, 115.21 0, 165.6 0 M165.6 0 C165.6 60.83, 165.6 121.66, 165.6 172.8 M165.6 0 C165.6 65.49, 165.6 130.99, 165.6 172.8 M165.6 172.8 C106.94 172.8, 48.28 172.8, 0 172.8 M165.6 172.8 C127.17 172.8, 88.74 172.8, 0 172.8 M0 172.8 C0 123.81, 0 74.81, 0 0 M0 172.8 C0 131.68, 0 90.56, 0 0" stroke="#2b8a3e" stroke-width="2" fill="none"></path></g><g stroke-opacity="0.8" fill-opacity="0.8" transform="translate(38.71327190300963 302.6414648178388) rotate(0 17.931180297766446 8.0080999388083)"><text x="17.93118029776649" y="0" font-family="Virgil, Segoe UI Emoji" font-size="12.543148966591476px" fill="#000000" text-anchor="middle" style="white-space: pre;" direction="ltr" dominant-baseline="text-before-edge">Mobile</text></g><g stroke-opacity="0.8" fill-opacity="0.8" stroke-linecap="round" transform="translate(23.462667388969294 199.54590316128724) rotate(0 33.18178481180689 50.74710789955634)"><path d="M16.59 0 C26.39 -2.07, 32.99 -2.6, 49.77 0 C57.76 -0.82, 63.11 8.12, 66.36 16.59 C66.13 36.24, 68.65 53.3, 66.36 84.9 C69.19 94.27, 63.44 104.32, 49.77 101.49 C40.5 103.79, 33.25 99.42, 16.59 101.49 C5.13 100.32, 1.48 98.02, 0 84.9 C-0.41 66.73, 0.75 50.68, 0 16.59 C-3.58 8.37, 8.29 -2.8, 16.59 0" stroke="none" stroke-width="0" fill="#ced4da"></path><path d="M16.59 0 C25.87 -0.47, 38.14 1.5, 49.77 0 M16.59 0 C29.34 -0.71, 40.57 -0.48, 49.77 0 M49.77 0 C59.95 -0.41, 68.3 5.41, 66.36 16.59 M49.77 0 C60.63 -0.66, 66.04 4.79, 66.36 16.59 M66.36 16.59 C67.88 44.42, 66.65 69.26, 66.36 84.9 M66.36 16.59 C66.98 39.01, 66.55 61.9, 66.36 84.9 M66.36 84.9 C66.17 97.65, 60.42 102.07, 49.77 101.49 M66.36 84.9 C67.71 95.98, 60.77 101.14, 49.77 101.49 M49.77 101.49 C43.1 100.78, 32.89 102.54, 16.59 101.49 M49.77 101.49 C40.71 100.96, 31.26 102.28, 16.59 101.49 M16.59 101.49 C7.32 99.87, -1.29 97.01, 0 84.9 M16.59 101.49 C4.34 101.2, 0.47 94.5, 0 84.9 M0 84.9 C-1.63 72.48, -1.35 54.99, 0 16.59 M0 84.9 C0.48 59.21, 0.12 31.62, 0 16.59 M0 16.59 C-0.44 6.5, 4.23 -1.34, 16.59 0 M0 16.59 C-0.52 5.59, 5.96 -0.05, 16.59 0" stroke="#000000" stroke-width="1" fill="none"></path></g><g stroke-opacity="0.8" fill-opacity="0.8" stroke-linecap="round" transform="translate(26.547863610805507 203.10574150981938) rotate(0 29.75638143371384 47.34253733913056)"><path d="M14.88 0 C26.79 -1.89, 34.43 -0.58, 44.63 0 C51.3 2.59, 57.68 4.89, 59.51 14.88 C61.76 41.24, 62.27 60.58, 59.51 79.81 C62.12 92.56, 52.63 94.86, 44.63 94.69 C36.5 93.17, 28.28 93.88, 14.88 94.69 C6.44 96.75, -2.61 90.17, 0 79.81 C0.98 56.67, -3.5 42.63, 0 14.88 C2.76 2.16, 4.11 0.88, 14.88 0" stroke="none" stroke-width="0" fill="#fff"></path><path d="M14.88 0 C22.27 1.3, 28.4 1.23, 44.63 0 M14.88 0 C23.9 -0.25, 32.78 0, 44.63 0 M44.63 0 C56.49 -0.12, 59.33 4.39, 59.51 14.88 M44.63 0 C54.23 -0.74, 61.71 5.53, 59.51 14.88 M59.51 14.88 C60.07 39.4, 60.63 67.6, 59.51 79.81 M59.51 14.88 C59.57 29.54, 59.61 45.71, 59.51 79.81 M59.51 79.81 C59.1 90.3, 55.73 94.7, 44.63 94.69 M59.51 79.81 C59.45 89.37, 52.97 95.83, 44.63 94.69 M44.63 94.69 C32.35 95.39, 22.96 93.02, 14.88 94.69 M44.63 94.69 C34.71 95.05, 23.98 93.65, 14.88 94.69 M14.88 94.69 C3.67 95.73, -1.03 89.47, 0 79.81 M14.88 94.69 C5.43 93.22, -2.11 91.96, 0 79.81 M0 79.81 C-0.38 63.06, 2.1 50.52, 0 14.88 M0 79.81 C-0.03 56.47, -0.83 33.77, 0 14.88 M0 14.88 C-1.3 3.62, 4.51 0.05, 14.88 0 M0 14.88 C0.43 4.91, 3.53 -1.27, 14.88 0" stroke="#000000" stroke-width="1" fill="none"></path></g><g stroke-opacity="0.8" fill-opacity="0.8" stroke-linecap="round" transform="translate(54.98576344257572 202.23018536869859) rotate(0 2.046933064107975 2.0469330641080887)"><path d="M2.44 -0.21 C2.87 -0.12, 3 0.54, 3.25 0.83 C3.51 1.12, 3.82 1.1, 3.96 1.52 C4.1 1.94, 4.26 2.89, 4.08 3.35 C3.9 3.82, 3.29 4.17, 2.88 4.31 C2.46 4.44, 2.03 4.37, 1.59 4.14 C1.14 3.91, 0.44 3.39, 0.21 2.94 C-0.02 2.48, 0.15 1.84, 0.21 1.41 C0.26 0.98, 0.24 0.58, 0.56 0.36 C0.89 0.14, 1.89 0.15, 2.16 0.06 C2.43 -0.02, 2.2 -0.23, 2.17 -0.16 M1.93 -0.42 C2.37 -0.5, 2.96 -0.19, 3.38 0.15 C3.8 0.49, 4.39 1.05, 4.45 1.62 C4.5 2.18, 4.03 3.09, 3.71 3.55 C3.4 4.01, 2.91 4.27, 2.55 4.39 C2.18 4.51, 1.83 4.56, 1.5 4.27 C1.17 3.99, 0.76 3.07, 0.58 2.67 C0.41 2.28, 0.43 2.29, 0.43 1.91 C0.44 1.53, 0.33 0.74, 0.61 0.39 C0.88 0.05, 1.74 -0.08, 2.07 -0.14 C2.39 -0.2, 2.59 -0.02, 2.57 0.03" stroke="none" stroke-width="0" fill="#fff"></path><path d="M2.01 -0.04 C2.4 -0.09, 3.02 0.09, 3.35 0.46 C3.69 0.83, 3.96 1.75, 4.02 2.2 C4.08 2.66, 3.96 2.9, 3.7 3.2 C3.44 3.5, 2.91 3.81, 2.47 3.98 C2.03 4.15, 1.43 4.34, 1.07 4.22 C0.7 4.09, 0.4 3.66, 0.27 3.23 C0.14 2.8, 0.19 2.16, 0.3 1.64 C0.4 1.13, 0.55 0.38, 0.9 0.14 C1.25 -0.11, 2.21 0.17, 2.41 0.17 C2.61 0.18, 2.17 0.16, 2.12 0.16 M1.83 0.15 C2.3 0.03, 3.2 0.19, 3.57 0.41 C3.93 0.64, 4.03 1.03, 4.03 1.5 C4.02 1.97, 3.68 2.77, 3.53 3.22 C3.39 3.67, 3.54 4.11, 3.16 4.18 C2.78 4.25, 1.66 3.8, 1.23 3.62 C0.79 3.45, 0.81 3.38, 0.55 3.13 C0.28 2.88, -0.44 2.61, -0.37 2.12 C-0.3 1.63, 0.5 0.49, 0.95 0.18 C1.41 -0.12, 2.12 0.38, 2.36 0.29 C2.6 0.2, 2.51 -0.39, 2.38 -0.36" stroke="#000000" stroke-width="1" fill="none"></path></g><g stroke-opacity="0.8" fill-opacity="0.8" stroke-linecap="round" transform="translate(29.342961507248447 209.94470576400363) rotate(0 26.735648389441508 12.478306893285662)"><path d="M0 0 C0 0, 0 0, 0 0 M0 0 C0 0, 0 0, 0 0 M-0.26 6.4 C1.58 4.43, 3.29 1.14, 4.99 0.36 M-0.26 6.4 C1.18 4.47, 2.43 3.36, 4.99 0.36 M0.13 12.04 C2.95 6.39, 7.23 2.05, 10.63 -0.03 M0.13 12.04 C4.62 7.5, 8.59 3.58, 10.63 -0.03 M-0.13 18.44 C7.07 13.31, 10.44 5.06, 15.62 0.33 M-0.13 18.44 C4.1 12.95, 8.26 8.29, 15.62 0.33 M0.27 24.08 C7.53 16.16, 14.31 6.3, 21.26 -0.07 M0.27 24.08 C8.09 17.21, 13.34 8.36, 21.26 -0.07 M4.6 25.2 C12.74 16.32, 19.05 10.51, 26.25 0.29 M4.6 25.2 C13.41 15.45, 21.35 7.5, 26.25 0.29 M9.58 25.56 C13.87 19.46, 22.8 11.32, 31.89 -0.1 M9.58 25.56 C18.06 15.56, 26.65 5.57, 31.89 -0.1 M15.23 25.16 C24.3 17.15, 29.81 8.01, 36.88 0.26 M15.23 25.16 C20.55 20.25, 26.52 13.56, 36.88 0.26 M20.21 25.52 C29 18.37, 36.19 5.87, 42.52 -0.14 M20.21 25.52 C27.48 15.62, 35.05 7.08, 42.52 -0.14 M25.86 25.13 C32.82 18.28, 38.3 11.66, 47.51 0.22 M25.86 25.13 C34.17 16.19, 42.28 5.56, 47.51 0.22 M30.84 25.49 C36.16 20.32, 41.58 10.35, 53.15 -0.17 M30.84 25.49 C36.23 19.56, 40.86 14.43, 53.15 -0.17 M36.49 25.09 C42.66 16.61, 49.37 9.43, 54.2 4.72 M36.49 25.09 C42.77 17.79, 49.43 9.36, 54.2 4.72 M41.47 25.45 C44.11 19.88, 48.29 18.15, 53.94 11.11 M41.47 25.45 C45.58 21.15, 49.88 16.39, 53.94 11.11 M47.12 25.06 C48.98 23.07, 50.48 21.05, 53.68 17.51 M47.12 25.06 C48.53 23.76, 49.36 21.47, 53.68 17.51 M52.1 25.42 C52.67 24.63, 53.19 24.08, 54.07 23.15 M52.1 25.42 C52.83 24.55, 53.42 23.83, 54.07 23.15 M-0.28 24.71 C-0.28 24.71, -0.28 24.71, -0.28 24.71 M-0.28 24.71 C-0.28 24.71, -0.28 24.71, -0.28 24.71 M6.12 24.97 C4.22 23.4, 1.6 21.89, 0.08 19.72 M6.12 24.97 C4.46 23.72, 3.87 23.03, 0.08 19.72 M12.51 25.23 C9 20.98, 3.47 18.87, -0.32 14.08 M12.51 25.23 C7.33 21.53, 2.57 16.83, -0.32 14.08 M18.16 24.84 C13.31 19.56, 8.95 16.28, 0.04 9.09 M18.16 24.84 C15.08 21.72, 11.42 18.94, 0.04 9.09 M24.55 25.1 C20.76 18.85, 15.46 14.84, -0.35 3.45 M24.55 25.1 C19.41 20.47, 13.88 15.44, -0.35 3.45 M30.2 24.71 C24.45 16.93, 15.36 11.91, 1.52 -0.22 M30.2 24.71 C19.57 14.02, 8.46 5.3, 1.52 -0.22 M36.6 24.97 C30.61 20.8, 25.8 16.26, 7.92 0.04 M36.6 24.97 C27.87 16.75, 17.73 8.9, 7.92 0.04 M42.99 25.23 C36.16 20.27, 32.32 14.27, 13.56 -0.36 M42.99 25.23 C33.57 18.13, 25.37 10.54, 13.56 -0.36 M48.64 24.84 C38.89 15.88, 29.75 11.1, 19.96 -0.09 M48.64 24.84 C38.61 15.09, 28.61 5.9, 19.96 -0.09 M54.28 24.44 C46.73 16.15, 37.95 9.66, 26.36 0.17 M54.28 24.44 C47.71 18.69, 42.31 14.54, 26.36 0.17 M53.89 18.8 C45.6 11.18, 34.99 4.43, 32 -0.23 M53.89 18.8 C49.63 14.33, 43.43 10.41, 32 -0.23 M54.25 13.81 C51 10.73, 45.32 8.44, 38.4 0.03 M54.25 13.81 C47.96 9.39, 41.15 3.73, 38.4 0.03 M53.85 8.17 C52.73 7.65, 49.91 5.78, 44.04 -0.36 M53.85 8.17 C51.09 5.59, 48.54 3.36, 44.04 -0.36 M54.21 3.18 C53.21 1.96, 52.27 1.31, 50.44 -0.1 M54.21 3.18 C53.11 2.27, 51.4 1.18, 50.44 -0.1" stroke="#15aabf" stroke-width="0.5" fill="none"></path><path d="M0 0 C19.38 1.08, 37.08 -0.59, 53.47 0 M0 0 C14.59 0.05, 27.15 -0.18, 53.47 0 M53.47 0 C53.89 9.11, 54.74 15.09, 53.47 24.96 M53.47 0 C53.77 6.94, 53.6 14.86, 53.47 24.96 M53.47 24.96 C39.84 24.49, 23.41 26.08, 0 24.96 M53.47 24.96 C36.7 25.37, 21.92 25.38, 0 24.96 M0 24.96 C0.03 17.08, 1.44 13.49, 0 0 M0 24.96 C0.68 18.51, -0.86 14.21, 0 0" stroke="#000000" stroke-width="1" fill="none"></path></g><g stroke-opacity="0.8" fill-opacity="0.8" stroke-linecap="round" transform="translate(32.95312387234344 240.10773477381827) rotate(0 9.361742007425278 7.288698493462562)"><path d="M0 0 C0 0, 0 0, 0 0 M0 0 C0 0, 0 0, 0 0 M-0.26 6.4 C1.82 3.98, 3.23 1.99, 4.99 0.36 M-0.26 6.4 C1.2 4.46, 3.07 2.85, 4.99 0.36 M0.13 12.04 C2.13 8.8, 4.77 6.47, 10.63 -0.03 M0.13 12.04 C2.73 9.29, 5.62 6.29, 10.63 -0.03 M3.15 14.67 C8.65 8.68, 12.67 3.46, 15.62 0.33 M3.15 14.67 C6.22 10.75, 9.67 7.13, 15.62 0.33 M8.14 15.03 C12.24 10.37, 15.53 6.06, 19.29 2.2 M8.14 15.03 C10.9 11.92, 12.85 9.62, 19.29 2.2 M13.78 14.63 C15.89 12.11, 18.69 9.64, 19.69 7.84 M13.78 14.63 C15.48 12.68, 17.59 10.32, 19.69 7.84 M0.33 14.86 C0.33 14.86, 0.33 14.86, 0.33 14.86 M0.33 14.86 C0.33 14.86, 0.33 14.86, 0.33 14.86 M5.97 14.47 C4.74 13.22, 3.28 11.89, -0.07 9.22 M5.97 14.47 C4.75 13.44, 3.19 12.12, -0.07 9.22 M12.37 14.73 C8.84 11.42, 3.18 7.78, 0.29 4.23 M12.37 14.73 C7.81 11.07, 3.75 7.51, 0.29 4.23 M18.01 14.34 C11.75 8.94, 5.63 4.12, 0.65 -0.75 M18.01 14.34 C11.7 8.62, 4.53 2.66, 0.65 -0.75 M19.13 10 C17.24 7.3, 13.46 5, 7.05 -0.49 M19.13 10 C16.47 7.81, 14.15 5.83, 7.05 -0.49 M19.49 5.02 C16.77 3.03, 14.35 1.12, 12.7 -0.89 M19.49 5.02 C17.74 3.41, 15.75 1.93, 12.7 -0.89" stroke="#fab005" stroke-width="0.5" fill="none"></path><path d="M0 0 C6.02 -0.2, 12.89 -0.48, 18.72 0 M0 0 C5.19 -0.13, 10.4 -0.14, 18.72 0 M18.72 0 C19.23 6.06, 18.78 11.03, 18.72 14.58 M18.72 0 C18.87 4.72, 18.71 9.62, 18.72 14.58 M18.72 14.58 C13.56 15.11, 7.86 14.53, 0 14.58 M18.72 14.58 C13.68 14.86, 7.85 14.27, 0 14.58 M0 14.58 C0.46 10.04, -0.53 5.22, 0 0 M0 14.58 C-0.3 9.55, -0.25 4.09, 0 0" stroke="#000000" stroke-width="1" fill="none"></path></g><g stroke-opacity="0.8" fill-opacity="0.8" stroke-linecap="round" transform="translate(62.90366166361264 268.04126049228125) rotate(0 8.4592014161517 6.1605227543707315)"><path d="M0 0 C0 0, 0 0, 0 0 M0 0 C0 0, 0 0, 0 0 M-0.26 6.4 C0.92 4.65, 2.65 3.13, 4.99 0.36 M-0.26 6.4 C1.48 4.72, 2.8 2.85, 4.99 0.36 M0.13 12.04 C1.99 9.72, 4.84 6.22, 10.63 -0.03 M0.13 12.04 C4.23 7.89, 8.11 3, 10.63 -0.03 M4.46 13.16 C8.61 8.14, 12.46 4.22, 15.62 0.33 M4.46 13.16 C7.65 9.55, 11.33 5.27, 15.62 0.33 M10.11 12.76 C11.96 10.31, 14.13 7.03, 17.32 4.46 M10.11 12.76 C12.75 9.71, 15.79 6.37, 17.32 4.46 M15.09 13.12 C15.92 12.39, 16.56 11.35, 17.06 10.86 M15.09 13.12 C15.9 12.22, 16.66 11.37, 17.06 10.86 M-0.06 12.27 C-0.06 12.27, -0.06 12.27, -0.06 12.27 M-0.06 12.27 C-0.06 12.27, -0.06 12.27, -0.06 12.27 M6.33 12.53 C4.09 10.31, 1.57 8.32, 0.3 7.28 M6.33 12.53 C4.46 11.04, 2.72 9.35, 0.3 7.28 M11.98 12.13 C6.77 8.67, 3.53 5.32, -0.1 1.64 M11.98 12.13 C8.3 9.11, 5.5 5.91, -0.1 1.64 M17.62 11.74 C12.95 8.21, 8.46 3.6, 3.28 -0.73 M17.62 11.74 C12.76 7.55, 7.88 3.31, 3.28 -0.73 M17.23 6.1 C14.79 3.97, 12.83 2.45, 9.68 -0.47 M17.23 6.1 C14.82 4.1, 12.48 1.83, 9.68 -0.47 M17.59 1.11 C17.07 0.78, 16.64 0.26, 16.08 -0.2 M17.59 1.11 C17.14 0.76, 16.81 0.39, 16.08 -0.2" stroke="#fab005" stroke-width="0.5" fill="none"></path><path d="M0 0 C5.86 -0.36, 12.31 0.83, 16.92 0 M0 0 C4.92 -0.11, 10.36 0.13, 16.92 0 M16.92 0 C17 4.49, 17.17 10.12, 16.92 12.32 M16.92 0 C16.9 2.74, 16.91 5.95, 16.92 12.32 M16.92 12.32 C12.2 12.35, 7.33 11.79, 0 12.32 M16.92 12.32 C10.8 12.04, 5.26 12.33, 0 12.32 M0 12.32 C-0.5 10.09, 0.32 7.37, 0 0 M0 12.32 C-0.12 9.59, 0.1 6.73, 0 0" stroke="#000000" stroke-width="1" fill="none"></path></g><g stroke-opacity="0.8" fill-opacity="0.8" transform="translate(55.11713243684085 238.78986703336705) rotate(0 15.117554903832342 12.18429798219313)"><text x="0" y="0" font-family="Virgil, Segoe UI Emoji" font-size="1.9754640468154459px" fill="#495057" text-anchor="start" style="white-space: pre;" direction="ltr" dominant-baseline="text-before-edge">Lorem ipsum dolor sit amet, </text><text x="0" y="2.7076217738207125" font-family="Virgil, Segoe UI Emoji" font-size="1.9754640468154459px" fill="#495057" text-anchor="start" style="white-space: pre;" direction="ltr" dominant-baseline="text-before-edge">consectetur adipiscing elit,sed</text><text x="0" y="5.415243547641425" font-family="Virgil, Segoe UI Emoji" font-size="1.9754640468154459px" fill="#495057" text-anchor="start" style="white-space: pre;" direction="ltr" dominant-baseline="text-before-edge"> do eiusmod tempor incididunt</text><text x="0" y="8.122865321462138" font-family="Virgil, Segoe UI Emoji" font-size="1.9754640468154459px" fill="#495057" text-anchor="start" style="white-space: pre;" direction="ltr" dominant-baseline="text-before-edge"> ut labore et dolore magna</text><text x="0" y="10.83048709528285" font-family="Virgil, Segoe UI Emoji" font-size="1.9754640468154459px" fill="#495057" text-anchor="start" style="white-space: pre;" direction="ltr" dominant-baseline="text-before-edge"> aliqua. Ut enim ad miveniam,</text><text x="0" y="13.538108869103562" font-family="Virgil, Segoe UI Emoji" font-size="1.9754640468154459px" fill="#495057" text-anchor="start" style="white-space: pre;" direction="ltr" dominant-baseline="text-before-edge"> quis nostrud exercitaullamco </text><text x="0" y="16.245730642924276" font-family="Virgil, Segoe UI Emoji" font-size="1.9754640468154459px" fill="#495057" text-anchor="start" style="white-space: pre;" direction="ltr" dominant-baseline="text-before-edge">laboris nisi ut aliquip ex ea </text><text x="0" y="18.953352416744988" font-family="Virgil, Segoe UI Emoji" font-size="1.9754640468154459px" fill="#495057" text-anchor="start" style="white-space: pre;" direction="ltr" dominant-baseline="text-before-edge">ommodo consequat. Duis aute </text><text x="0" y="21.6609741905657" font-family="Virgil, Segoe UI Emoji" font-size="1.9754640468154459px" fill="#495057" text-anchor="start" style="white-space: pre;" direction="ltr" dominant-baseline="text-before-edge">irure dolor in reprehenderit i</text></g><g stroke-opacity="0.8" fill-opacity="0.8" transform="translate(30.52290132463554 258.6329580471829) rotate(0 15.117554903832342 12.18429798219313)"><text x="0" y="0" font-family="Virgil, Segoe UI Emoji" font-size="1.9754640468154459px" fill="#495057" text-anchor="start" style="white-space: pre;" direction="ltr" dominant-baseline="text-before-edge">Lorem ipsum dolor s, </text><text x="0" y="2.7076217738207125" font-family="Virgil, Segoe UI Emoji" font-size="1.9754640468154459px" fill="#495057" text-anchor="start" style="white-space: pre;" direction="ltr" dominant-baseline="text-before-edge">consectetur adipng d</text><text x="0" y="5.415243547641425" font-family="Virgil, Segoe UI Emoji" font-size="1.9754640468154459px" fill="#495057" text-anchor="start" style="white-space: pre;" direction="ltr" dominant-baseline="text-before-edge"> do eiusmopor incididunt</text><text x="0" y="8.122865321462138" font-family="Virgil, Segoe UI Emoji" font-size="1.9754640468154459px" fill="#495057" text-anchor="start" style="white-space: pre;" direction="ltr" dominant-baseline="text-before-edge">ut labore et dolore magna</text><text x="0" y="10.83048709528285" font-family="Virgil, Segoe UI Emoji" font-size="1.9754640468154459px" fill="#495057" text-anchor="start" style="white-space: pre;" direction="ltr" dominant-baseline="text-before-edge">aliqua. Ut enim ad miveniam,</text><text x="0" y="13.538108869103562" font-family="Virgil, Segoe UI Emoji" font-size="1.9754640468154459px" fill="#495057" text-anchor="start" style="white-space: pre;" direction="ltr" dominant-baseline="text-before-edge">quis nostrud exercitaullamco </text><text x="0" y="16.245730642924276" font-family="Virgil, Segoe UI Emoji" font-size="1.9754640468154459px" fill="#495057" text-anchor="start" style="white-space: pre;" direction="ltr" dominant-baseline="text-before-edge">laboris nisi ut aliquip ex ea </text><text x="0" y="18.953352416744988" font-family="Virgil, Segoe UI Emoji" font-size="1.9754640468154459px" fill="#495057" text-anchor="start" style="white-space: pre;" direction="ltr" dominant-baseline="text-before-edge">ommodo consequat. Duis aute </text><text x="0" y="21.6609741905657" font-family="Virgil, Segoe UI Emoji" font-size="1.9754640468154459px" fill="#495057" text-anchor="start" style="white-space: pre;" direction="ltr" dominant-baseline="text-before-edge"></text></g><g stroke-linecap="round" transform="translate(29.85452437126878 283.83850404988516) rotate(0 26.735648389441508 4.296117825372676)"><path d="M0.57 0.5 C0.57 0.5, 0.57 0.5, 0.57 0.5 M0.57 0.5 C0.57 0.5, 0.57 0.5, 0.57 0.5 M0.31 6.89 C1.55 5.12, 3.49 3.21, 6.21 0.1 M0.31 6.89 C1.42 5.56, 3.16 3.66, 6.21 0.1 M3.99 8.76 C5.71 6.8, 7.72 4.31, 11.2 0.46 M3.99 8.76 C6.42 5.94, 9.07 2.88, 11.2 0.46 M8.97 9.12 C11.82 5.43, 14.74 3.13, 16.84 0.07 M8.97 9.12 C11.48 6.31, 13.76 3.53, 16.84 0.07 M14.62 8.73 C16.78 6.74, 18.95 3.8, 21.83 0.43 M14.62 8.73 C16.61 6.26, 19.21 4, 21.83 0.43 M19.6 9.09 C21.93 6.75, 24.77 3.91, 27.48 0.03 M19.6 9.09 C21.44 7.21, 22.44 5.4, 27.48 0.03 M25.25 8.7 C26.39 7.13, 28.4 5.15, 32.46 0.39 M25.25 8.7 C27.74 5.98, 30.19 3.18, 32.46 0.39 M30.23 9.06 C31.81 6.49, 34.78 3.99, 38.11 0 M30.23 9.06 C31.79 7.26, 33.46 5.28, 38.11 0 M35.88 8.66 C38.12 6.05, 40.02 3.58, 43.09 0.36 M35.88 8.66 C37.38 6.63, 39.27 4.72, 43.09 0.36 M40.86 9.02 C42.43 6.63, 43.98 4.71, 48.74 -0.04 M40.86 9.02 C43.9 5.56, 47.04 2.15, 48.74 -0.04 M46.51 8.63 C48.05 6.38, 50.45 3.95, 53.07 1.08 M46.51 8.63 C48.96 6.1, 51.15 3.28, 53.07 1.08 M51.49 8.99 C51.79 8.48, 52.28 7.94, 53.46 6.72 M51.49 8.99 C52.16 8.23, 52.79 7.41, 53.46 6.72 M0.77 8.26 C0.77 8.26, 0.77 8.26, 0.77 8.26 M0.77 8.26 C0.77 8.26, 0.77 8.26, 0.77 8.26 M7.17 8.52 C5.33 6.31, 2.9 4.86, 0.38 2.62 M7.17 8.52 C5.88 7.23, 4.07 5.89, 0.38 2.62 M12.81 8.13 C8.8 4.83, 5.25 1.12, 3 -0.4 M12.81 8.13 C10.97 6.65, 8.52 4.67, 3 -0.4 M19.21 8.39 C16.73 6.19, 13.41 2.88, 8.64 -0.8 M19.21 8.39 C16.24 5.28, 12.87 2.65, 8.64 -0.8 M25.61 8.65 C21.65 5.03, 18.2 1.17, 15.04 -0.54 M25.61 8.65 C21.43 5.14, 17.47 1.46, 15.04 -0.54 M31.25 8.25 C29.14 6.44, 26.23 2.69, 20.68 -0.93 M31.25 8.25 C28.27 5.47, 25.36 2.69, 20.68 -0.93 M37.65 8.52 C34.22 4.53, 29.57 1.8, 27.08 -0.67 M37.65 8.52 C33.5 5.38, 30.07 1.74, 27.08 -0.67 M43.29 8.12 C39.61 5.54, 36.39 2.41, 33.48 -0.41 M43.29 8.12 C40.14 5.37, 36.41 2.36, 33.48 -0.41 M49.69 8.38 C46.11 4.88, 41.38 0.98, 39.12 -0.8 M49.69 8.38 C46.91 6.04, 44.62 3.77, 39.12 -0.8 M53.82 6.68 C51.38 3.77, 48 1.09, 45.52 -0.54 M53.82 6.68 C51.63 5.17, 49.75 3.04, 45.52 -0.54 M52.67 0.38 C52.45 0.19, 52.14 -0.11, 51.92 -0.28 M52.67 0.38 C52.49 0.21, 52.35 0.08, 51.92 -0.28" stroke="#15aabf" stroke-width="0.5" fill="none"></path><path d="M2.15 0 C21.38 -0.12, 40.86 0.98, 51.32 0 M2.15 0 C18.32 -0.14, 33.75 0, 51.32 0 M51.32 0 C53.23 -0.69, 53.77 0.31, 53.47 2.15 M51.32 0 C52.6 -0.39, 53.36 1.69, 53.47 2.15 M53.47 2.15 C53.48 3.34, 53.44 4.4, 53.47 6.44 M53.47 2.15 C53.44 3.57, 53.53 5.15, 53.47 6.44 M53.47 6.44 C52.71 8.5, 53.37 7.85, 51.32 8.59 M53.47 6.44 C54.45 8.54, 53.79 7.66, 51.32 8.59 M51.32 8.59 C39.62 8.67, 27.53 7.55, 2.15 8.59 M51.32 8.59 C32.24 8.3, 11.89 8.92, 2.15 8.59 M2.15 8.59 C1.39 9.17, 0.94 8.79, 0 6.44 M2.15 8.59 C1.39 8.5, -0.25 8.43, 0 6.44 M0 6.44 C0.02 5.47, 0.01 4.29, 0 2.15 M0 6.44 C-0.06 5.41, -0.08 4.25, 0 2.15 M0 2.15 C-0.23 -0.19, 1.43 -0.51, 2.15 0 M0 2.15 C-0.02 1.46, 0.65 0.84, 2.15 0" stroke="#000000" stroke-width="1" fill="none"></path></g><g stroke-opacity="0" fill-opacity="0" stroke-linecap="round" transform="translate(92.88832385201499 146.19565578312722) rotate(0 45.79328599242319 45.79328599242331)"><path d="M48.89 -0.18 C56.74 0.02, 67.19 4.49, 74.03 9.64 C80.86 14.79, 87.25 22.83, 89.88 30.72 C92.51 38.62, 91.89 49.03, 89.81 56.98 C87.73 64.92, 83.1 72.78, 77.38 78.38 C71.66 83.99, 63.36 88.97, 55.48 90.63 C47.6 92.29, 37.84 91.23, 30.08 88.36 C22.32 85.48, 13.94 80.2, 8.91 73.39 C3.87 66.58, 0.36 55.77, -0.13 47.52 C-0.62 39.27, 2.04 30.88, 5.98 23.9 C9.92 16.91, 15.45 9.46, 23.51 5.62 C31.56 1.77, 48.55 1.42, 54.28 0.81 C60.02 0.19, 57.95 1.24, 57.89 1.92 M29.27 4.62 C36.33 1.19, 45.16 0.28, 53.32 1.65 C61.48 3.01, 71.92 7.43, 78.25 12.83 C84.57 18.23, 89.36 26.09, 91.27 34.05 C93.18 42, 92.45 52.6, 89.73 60.55 C87 68.5, 81.45 76.62, 74.91 81.72 C68.37 86.83, 58.72 90.23, 50.48 91.17 C42.24 92.11, 32.65 90.87, 25.48 87.37 C18.3 83.86, 11.46 77.25, 7.41 70.13 C3.37 63.02, 0.98 53.32, 1.22 44.69 C1.46 36.06, 4.54 25.38, 8.85 18.36 C13.17 11.35, 23.97 5.07, 27.12 2.6 C30.26 0.13, 27.02 2.58, 27.72 3.56" stroke="#1e1e1e" stroke-width="1" fill="none"></path></g><g stroke-linecap="round"><g transform="translate(116.17467612588325 208.8238810485882) rotate(0 21.315712587703956 -18.98102990620714)"><path d="M0.2 0.47 C0.93 -3.92, 0.35 -19.72, 3.66 -26.06 C6.97 -32.4, 14.61 -37.46, 20.06 -37.57 C25.5 -37.68, 32.49 -32.43, 36.33 -26.73 C40.17 -21.02, 48.97 -7.71, 43.09 -3.33 C37.22 1.04, 8.28 -1.12, 1.06 -0.46 M-1.15 -0.33 C-0.01 -4.63, 2.41 -18.43, 5.78 -25 C9.15 -31.56, 13.93 -39.1, 19.08 -39.71 C24.23 -40.32, 32.88 -34.73, 36.67 -28.67 C40.47 -22.6, 48.09 -7.81, 41.87 -3.32 C35.65 1.17, 6.3 -2.22, -0.64 -1.74" stroke="#1e1e1e" stroke-width="1" fill="none"></path></g></g><mask></mask><g stroke-linecap="round" transform="translate(126.95710387867757 151.06430207702124) rotate(0 10.913644844904411 9.54943923929136)"><path d="M10.48 0.23 C12.61 0, 15.1 1.05, 16.9 2.18 C18.7 3.31, 20.58 5.1, 21.27 7.01 C21.97 8.91, 21.95 11.74, 21.05 13.59 C20.16 15.45, 18.07 17.23, 15.91 18.15 C13.76 19.06, 10.46 19.68, 8.12 19.08 C5.77 18.47, 3.19 16.21, 1.85 14.52 C0.51 12.84, -0.06 10.9, 0.09 8.97 C0.25 7.04, 1.12 4.41, 2.79 2.92 C4.47 1.43, 8.95 0.55, 10.15 0.01 C11.34 -0.52, 9.92 -0.39, 9.97 -0.26 M9.28 0.75 C11.46 0.34, 13.78 0.7, 15.85 1.64 C17.92 2.57, 20.71 4.57, 21.71 6.36 C22.7 8.16, 22.61 10.49, 21.8 12.4 C20.98 14.32, 18.88 16.74, 16.82 17.85 C14.76 18.97, 11.82 19.47, 9.45 19.12 C7.08 18.77, 4.17 17.28, 2.61 15.77 C1.05 14.26, 0.05 12.02, 0.1 10.07 C0.15 8.12, 1.36 5.67, 2.91 4.06 C4.46 2.46, 8.34 1.18, 9.38 0.46 C10.43 -0.27, 9.32 -0.32, 9.16 -0.28" stroke="#1e1e1e" stroke-width="1" fill="none"></path></g><g transform="translate(120.34686644321323 213.30312589339246) rotate(0 17.523882280368753 9.805227790343906)"><text x="17.523882280368802" y="0" font-family="Virgil, Segoe UI Emoji" font-size="15.68836446455008px" fill="#1e1e1e" text-anchor="middle" style="white-space: pre;" direction="ltr" dominant-baseline="text-before-edge">User</text></g><g transform="translate(118.35560536341222 304.16244620938687) rotate(0 22.355919361983865 9.805227790343906)"><text x="0" y="0" font-family="Virgil, Segoe UI Emoji" font-size="15.688364464550082px" fill="#000000" text-anchor="start" style="white-space: pre;" direction="ltr" dominant-baseline="text-before-edge">Users</text></g><g stroke-linecap="round" transform="translate(150.07968796919 251.40259940650685) rotate(0 7.746264730274902 6.777981638990468)"><path d="M1.58 2.69 C1.58 2.69, 1.58 2.69, 1.58 2.69 M1.58 2.69 C1.58 2.69, 1.58 2.69, 1.58 2.69 M3.68 12.47 C5.97 9.83, 8.27 7.19, 12.86 1.9 M3.68 12.47 C5.64 10.22, 7.6 7.96, 12.86 1.9 M2.81 12.01 C2.81 12.01, 2.81 12.01, 2.81 12.01 M2.81 12.01 C2.81 12.01, 2.81 12.01, 2.81 12.01 M14.1 11.22 C10.69 8.26, 7.29 5.3, 2.78 1.38 M14.1 11.22 C9.74 7.43, 5.38 3.64, 2.78 1.38" stroke="#ced4da" stroke-width="1" fill="none"></path><path d="M15.49 6.78 C15.49 7.17, 15.45 7.57, 15.37 7.95 C15.3 8.34, 15.18 8.73, 15.03 9.1 C14.87 9.46, 14.68 9.83, 14.45 10.17 C14.23 10.51, 13.97 10.83, 13.68 11.13 C13.39 11.44, 13.07 11.72, 12.73 11.97 C12.38 12.22, 12.01 12.45, 11.62 12.65 C11.23 12.84, 10.82 13.01, 10.4 13.15 C9.97 13.28, 9.53 13.38, 9.09 13.45 C8.65 13.52, 8.19 13.56, 7.75 13.56 C7.3 13.56, 6.84 13.52, 6.4 13.45 C5.96 13.38, 5.52 13.28, 5.1 13.15 C4.68 13.01, 4.26 12.84, 3.87 12.65 C3.48 12.45, 3.11 12.22, 2.77 11.97 C2.42 11.72, 2.1 11.44, 1.81 11.13 C1.52 10.83, 1.26 10.51, 1.04 10.17 C0.81 9.83, 0.62 9.46, 0.47 9.1 C0.31 8.73, 0.2 8.34, 0.12 7.95 C0.04 7.57, 0 7.17, 0 6.78 C0 6.39, 0.04 5.99, 0.12 5.6 C0.2 5.21, 0.31 4.83, 0.47 4.46 C0.62 4.09, 0.81 3.73, 1.04 3.39 C1.26 3.05, 1.52 2.72, 1.81 2.42 C2.1 2.12, 2.42 1.84, 2.77 1.59 C3.11 1.33, 3.48 1.1, 3.87 0.91 C4.26 0.71, 4.68 0.54, 5.1 0.41 C5.52 0.27, 5.96 0.17, 6.4 0.1 C6.84 0.03, 7.3 0, 7.75 0 C8.19 0, 8.65 0.03, 9.09 0.1 C9.53 0.17, 9.97 0.27, 10.4 0.41 C10.82 0.54, 11.23 0.71, 11.62 0.91 C12.01 1.1, 12.38 1.33, 12.73 1.59 C13.07 1.84, 13.39 2.12, 13.68 2.42 C13.97 2.72, 14.23 3.05, 14.45 3.39 C14.68 3.73, 14.87 4.09, 15.03 4.46 C15.18 4.83, 15.3 5.21, 15.37 5.6 C15.45 5.99, 15.47 6.58, 15.49 6.78 C15.51 6.97, 15.51 6.58, 15.49 6.78" stroke="#000000" stroke-width="2" fill="none"></path></g><g stroke-linecap="round" transform="translate(116.20562704015356 251.85996840136613) rotate(0 7.746264730274902 6.777981638990468)"><path d="M1.58 2.69 C1.58 2.69, 1.58 2.69, 1.58 2.69 M1.58 2.69 C1.58 2.69, 1.58 2.69, 1.58 2.69 M3.68 12.47 C5.87 9.95, 8.06 7.43, 12.86 1.9 M3.68 12.47 C6.57 9.14, 9.47 5.81, 12.86 1.9 M2.81 12.01 C2.81 12.01, 2.81 12.01, 2.81 12.01 M2.81 12.01 C2.81 12.01, 2.81 12.01, 2.81 12.01 M14.1 11.22 C9.97 7.63, 5.85 4.05, 2.78 1.38 M14.1 11.22 C9.6 7.31, 5.09 3.39, 2.78 1.38" stroke="#ced4da" stroke-width="1" fill="none"></path><path d="M15.49 6.78 C15.49 7.17, 15.45 7.57, 15.37 7.95 C15.3 8.34, 15.18 8.73, 15.03 9.1 C14.87 9.46, 14.68 9.83, 14.45 10.17 C14.23 10.51, 13.97 10.83, 13.68 11.13 C13.39 11.44, 13.07 11.72, 12.73 11.97 C12.38 12.22, 12.01 12.45, 11.62 12.65 C11.23 12.84, 10.82 13.01, 10.4 13.15 C9.97 13.28, 9.53 13.38, 9.09 13.45 C8.65 13.52, 8.19 13.56, 7.75 13.56 C7.3 13.56, 6.84 13.52, 6.4 13.45 C5.96 13.38, 5.52 13.28, 5.1 13.15 C4.68 13.01, 4.26 12.84, 3.87 12.65 C3.48 12.45, 3.11 12.22, 2.77 11.97 C2.42 11.72, 2.1 11.44, 1.81 11.13 C1.52 10.83, 1.26 10.51, 1.04 10.17 C0.81 9.83, 0.62 9.46, 0.47 9.1 C0.31 8.73, 0.2 8.34, 0.12 7.95 C0.04 7.57, 0 7.17, 0 6.78 C0 6.39, 0.04 5.99, 0.12 5.6 C0.2 5.21, 0.31 4.83, 0.47 4.46 C0.62 4.09, 0.81 3.73, 1.04 3.39 C1.26 3.05, 1.52 2.72, 1.81 2.42 C2.1 2.12, 2.42 1.84, 2.77 1.59 C3.11 1.33, 3.48 1.1, 3.87 0.91 C4.26 0.71, 4.68 0.54, 5.1 0.41 C5.52 0.27, 5.96 0.17, 6.4 0.1 C6.84 0.03, 7.3 0, 7.75 0 C8.19 0, 8.65 0.03, 9.09 0.1 C9.53 0.17, 9.97 0.27, 10.4 0.41 C10.82 0.54, 11.23 0.71, 11.62 0.91 C12.01 1.1, 12.38 1.33, 12.73 1.59 C13.07 1.84, 13.39 2.12, 13.68 2.42 C13.97 2.72, 14.23 3.05, 14.45 3.39 C14.68 3.73, 14.87 4.09, 15.03 4.46 C15.18 4.83, 15.3 5.21, 15.37 5.6 C15.45 5.99, 15.47 6.58, 15.49 6.78 C15.51 6.97, 15.51 6.58, 15.49 6.78" stroke="#000000" stroke-width="2" fill="none"></path></g><g stroke-linecap="round"><g transform="translate(124.40422511974566 298.08654674764966) rotate(0 16.396694956524016 -14.600785971953428)" fill-rule="evenodd"><path d="M9.43 -26.25 C9.43 -26.25, 9.43 -26.25, 9.43 -26.25 M9.43 -26.25 C9.43 -26.25, 9.43 -26.25, 9.43 -26.25 M1.69 -5.16 C6.08 -10.21, 10.47 -15.26, 21.37 -27.8 M1.69 -5.16 C8.61 -13.12, 15.54 -21.09, 21.37 -27.8 M7.07 0.85 C14.48 -7.68, 21.89 -16.21, 27.41 -22.55 M7.07 0.85 C15.16 -8.46, 23.25 -17.76, 27.41 -22.55 M18.36 0.06 C22.09 -4.23, 25.81 -8.52, 31.48 -15.04 M18.36 0.06 C21.78 -3.88, 25.21 -7.82, 31.48 -15.04 M30.3 -1.49 C31.36 -2.71, 32.42 -3.93, 34.24 -6.01 M30.3 -1.49 C31.22 -2.55, 32.14 -3.61, 34.24 -6.01 M0 0 C0 0, 0 0, 0 0 M0 0 C0 0, 0 0, 0 0 M12.04 -0.13 C8.73 -3.01, 5.42 -5.89, 1.47 -9.32 M12.04 -0.13 C8.84 -2.91, 5.65 -5.69, 1.47 -9.32 M24.08 -0.27 C16.44 -6.91, 8.81 -13.54, 3.7 -17.98 M24.08 -0.27 C17.88 -5.66, 11.67 -11.06, 3.7 -17.98 M33.1 -3.02 C25.46 -9.67, 17.82 -16.31, 8.2 -24.67 M33.1 -3.02 C27.37 -8.01, 21.64 -12.99, 8.2 -24.67 M32.31 -14.31 C28.41 -17.7, 24.51 -21.09, 14.96 -29.4 M32.31 -14.31 C27.22 -18.74, 22.12 -23.18, 14.96 -29.4" stroke="#ced4da" stroke-width="1" fill="none"></path><path d="M0 0 C0.61 -3.23, 1.05 -14.48, 3.67 -19.35 C6.3 -24.22, 11.72 -28.85, 15.74 -29.2 C19.76 -29.55, 24.97 -25.99, 27.81 -21.46 C30.65 -16.93, 37.43 -5.59, 32.79 -2.01 C28.16 1.57, 5.47 -0.33, 0 0 M0 0 C0.61 -3.23, 1.05 -14.48, 3.67 -19.35 C6.3 -24.22, 11.72 -28.85, 15.74 -29.2 C19.76 -29.55, 24.97 -25.99, 27.81 -21.46 C30.65 -16.93, 37.43 -5.59, 32.79 -2.01 C28.16 1.57, 5.47 -0.33, 0 0" stroke="#000000" stroke-width="2" fill="none"></path></g></g><mask></mask><g stroke-linecap="round" transform="translate(132.62973042583076 253.7084690981792) rotate(0 8.395107817740268 7.345719340522692)"><path d="M1.76 2.86 C1.76 2.86, 1.76 2.86, 1.76 2.86 M1.76 2.86 C1.76 2.86, 1.76 2.86, 1.76 2.86 M3.21 13.39 C7.15 8.86, 11.09 4.32, 13.7 1.31 M3.21 13.39 C5.7 10.52, 8.19 7.66, 13.7 1.31 M3.17 13.12 C3.17 13.12, 3.17 13.12, 3.17 13.12 M3.17 13.12 C3.17 13.12, 3.17 13.12, 3.17 13.12 M14.46 12.33 C10.98 9.31, 7.51 6.3, 2.38 1.83 M14.46 12.33 C9.84 8.32, 5.22 4.3, 2.38 1.83" stroke="#ced4da" stroke-width="1" fill="none"></path><path d="M16.79 7.35 C16.79 7.77, 16.75 8.2, 16.66 8.62 C16.58 9.04, 16.45 9.46, 16.28 9.86 C16.12 10.26, 15.91 10.65, 15.67 11.02 C15.42 11.39, 15.14 11.74, 14.83 12.07 C14.51 12.39, 14.16 12.7, 13.79 12.97 C13.42 13.25, 13.01 13.49, 12.59 13.71 C12.17 13.92, 11.72 14.1, 11.27 14.25 C10.81 14.39, 10.33 14.51, 9.85 14.58 C9.37 14.65, 8.88 14.69, 8.4 14.69 C7.91 14.69, 7.42 14.65, 6.94 14.58 C6.46 14.51, 5.98 14.39, 5.52 14.25 C5.07 14.1, 4.62 13.92, 4.2 13.71 C3.78 13.49, 3.37 13.25, 3 12.97 C2.63 12.7, 2.28 12.39, 1.96 12.07 C1.65 11.74, 1.37 11.39, 1.12 11.02 C0.88 10.65, 0.67 10.26, 0.51 9.86 C0.34 9.46, 0.21 9.04, 0.13 8.62 C0.04 8.2, 0 7.77, 0 7.35 C0 6.92, 0.04 6.49, 0.13 6.07 C0.21 5.65, 0.34 5.23, 0.51 4.83 C0.67 4.43, 0.88 4.04, 1.12 3.67 C1.37 3.3, 1.65 2.95, 1.96 2.62 C2.28 2.3, 2.63 1.99, 3 1.72 C3.37 1.45, 3.78 1.2, 4.2 0.98 C4.62 0.77, 5.07 0.59, 5.52 0.44 C5.98 0.3, 6.46 0.19, 6.94 0.11 C7.42 0.04, 7.91 0, 8.4 0 C8.88 0, 9.37 0.04, 9.85 0.11 C10.33 0.19, 10.81 0.3, 11.27 0.44 C11.72 0.59, 12.17 0.77, 12.59 0.98 C13.01 1.2, 13.42 1.45, 13.79 1.72 C14.16 1.99, 14.51 2.3, 14.83 2.62 C15.14 2.95, 15.42 3.3, 15.67 3.67 C15.91 4.04, 16.12 4.43, 16.28 4.83 C16.45 5.23, 16.58 5.65, 16.66 6.07 C16.75 6.49, 16.77 7.13, 16.79 7.35 C16.81 7.56, 16.81 7.13, 16.79 7.35" stroke="#000000" stroke-width="2" fill="none"></path></g><g stroke-linecap="round"><g transform="translate(147.27106388163497 271.67591884966896) rotate(0 13.11442047495325 7.806202663662589)" fill-rule="evenodd"><path d="M0 0 C0 0, 0 0, 0 0 M0 0 C0 0, 0 0, 0 0 M5.38 6 C8.27 2.68, 11.16 -0.65, 15.88 -6.07 M5.38 6 C8.28 2.67, 11.17 -0.66, 15.88 -6.07 M9.45 13.52 C13.43 8.94, 17.41 4.35, 21.26 -0.07 M9.45 13.52 C14.01 8.27, 18.58 3.02, 21.26 -0.07 M12.21 22.54 C15.26 19.03, 18.3 15.53, 24.67 8.2 M12.21 22.54 C16.85 17.2, 21.49 11.86, 24.67 8.2 M23.49 21.75 C23.96 21.22, 24.42 20.69, 25.46 19.48 M23.49 21.75 C24.23 20.9, 24.97 20.05, 25.46 19.48 M11.51 21.82 C11.51 21.82, 11.51 21.82, 11.51 21.82 M11.51 21.82 C11.51 21.82, 11.51 21.82, 11.51 21.82 M22.79 21.03 C17.41 16.35, 12.02 11.66, 6.95 7.25 M22.79 21.03 C19.18 17.88, 15.56 14.74, 6.95 7.25 M25.78 13.02 C18.22 6.45, 10.66 -0.12, 4.65 -5.35 M25.78 13.02 C19.78 7.81, 13.78 2.59, 4.65 -5.35 M20.46 -2.2 C19.27 -3.24, 18.08 -4.27, 15.93 -6.14 M20.46 -2.2 C18.78 -3.66, 17.1 -5.12, 15.93 -6.14" stroke="#ced4da" stroke-width="1" fill="none"></path><path d="M0 0 C0.68 -0.73, 2.81 -3.28, 4.06 -4.37 C5.31 -5.46, 5.93 -6.14, 7.49 -6.56 C9.06 -6.97, 11.76 -6.97, 13.43 -6.87 C15.09 -6.77, 16.34 -6.61, 17.49 -5.93 C18.63 -5.26, 19.52 -4.01, 20.3 -2.81 C21.08 -1.61, 21.55 -0.26, 22.17 1.25 C22.79 2.76, 23.47 4.58, 24.04 6.24 C24.62 7.91, 25.24 9.73, 25.6 11.24 C25.97 12.75, 26.23 13.95, 26.23 15.3 C26.23 16.65, 26.12 18.37, 25.6 19.36 C25.08 20.35, 24.1 20.76, 23.11 21.23 C22.12 21.7, 21.08 21.96, 19.67 22.17 C18.27 22.38, 16.03 22.53, 14.68 22.48 C13.32 22.43, 12.13 22.69, 11.55 21.86 C10.98 21.02, 11.5 18.68, 11.24 17.49 C10.98 16.29, 10.56 15.87, 9.99 14.68 C9.42 13.48, 8.69 12.02, 7.81 10.3 C6.92 8.59, 5.98 6.09, 4.68 4.37 C3.38 2.65, 0.78 0.73, 0 0 M0 0 C0.68 -0.73, 2.81 -3.28, 4.06 -4.37 C5.31 -5.46, 5.93 -6.14, 7.49 -6.56 C9.06 -6.97, 11.76 -6.97, 13.43 -6.87 C15.09 -6.77, 16.34 -6.61, 17.49 -5.93 C18.63 -5.26, 19.52 -4.01, 20.3 -2.81 C21.08 -1.61, 21.55 -0.26, 22.17 1.25 C22.79 2.76, 23.47 4.58, 24.04 6.24 C24.62 7.91, 25.24 9.73, 25.6 11.24 C25.97 12.75, 26.23 13.95, 26.23 15.3 C26.23 16.65, 26.12 18.37, 25.6 19.36 C25.08 20.35, 24.1 20.76, 23.11 21.23 C22.12 21.7, 21.08 21.96, 19.67 22.17 C18.27 22.38, 16.03 22.53, 14.68 22.48 C13.32 22.43, 12.13 22.69, 11.55 21.86 C10.98 21.02, 11.5 18.68, 11.24 17.49 C10.98 16.29, 10.56 15.87, 9.99 14.68 C9.42 13.48, 8.69 12.02, 7.81 10.3 C6.92 8.59, 5.98 6.09, 4.68 4.37 C3.38 2.65, 0.78 0.73, 0 0" stroke="#000000" stroke-width="2" fill="none"></path></g></g><mask></mask><g stroke-linecap="round"><g transform="translate(133.2152412495177 271.66660317462083) rotate(0 -12.646048315133498 9.367443196395243)" fill-rule="evenodd"><path d="M-19.17 -2.09 C-19.17 -2.09, -19.17 -2.09, -19.17 -2.09 M-19.17 -2.09 C-19.17 -2.09, -19.17 -2.09, -19.17 -2.09 M-24.94 16.74 C-20.32 11.42, -15.69 6.1, -5.92 -5.14 M-24.94 16.74 C-19.02 9.92, -13.09 3.11, -5.92 -5.14 M-20.22 23.5 C-15.04 17.55, -9.86 11.59, 0.12 0.11 M-20.22 23.5 C-12.87 15.05, -5.52 6.59, 0.12 0.11 M-10.9 24.98 C-9.59 23.47, -8.28 21.97, -7.62 21.2 M-10.9 24.98 C-10.14 24.1, -9.37 23.22, -7.62 21.2 M-24.44 20.49 C-24.44 20.49, -24.44 20.49, -24.44 20.49 M-24.44 20.49 C-24.44 20.49, -24.44 20.49, -24.44 20.49 M-7.87 24.3 C-13.19 19.67, -18.52 15.04, -23.72 10.52 M-7.87 24.3 C-11.9 20.79, -15.94 17.29, -23.72 10.52 M-6.4 14.98 C-10.98 11, -15.56 7.02, -20.74 2.51 M-6.4 14.98 C-11.06 10.93, -15.72 6.88, -20.74 2.51 M-4.17 6.32 C-6.93 3.91, -9.7 1.51, -17 -4.84 M-4.17 6.32 C-7.44 3.47, -10.72 0.62, -17 -4.84 M0.33 -0.38 C-1.94 -2.34, -4.2 -4.31, -6.47 -6.28 M0.33 -0.38 C-2.16 -2.54, -4.64 -4.7, -6.47 -6.28" stroke="#ced4da" stroke-width="1" fill="none"></path><path d="M0 0 C-0.52 -0.57, -2.03 -2.5, -3.12 -3.43 C-4.22 -4.37, -5 -5.2, -6.56 -5.62 C-8.12 -6.04, -10.82 -6.04, -12.49 -5.93 C-14.16 -5.83, -15.4 -5.67, -16.55 -5 C-17.69 -4.32, -18.58 -3.07, -19.36 -1.87 C-20.14 -0.68, -20.61 0.68, -21.23 2.19 C-21.86 3.69, -22.53 5.52, -23.11 7.18 C-23.68 8.85, -24.3 10.67, -24.67 12.18 C-25.03 13.69, -25.29 14.88, -25.29 16.24 C-25.29 17.59, -25.19 19.31, -24.67 20.3 C-24.15 21.28, -23.11 21.6, -22.17 22.17 C-21.23 22.74, -20.4 23.31, -19.05 23.73 C-17.69 24.15, -15.77 24.51, -14.05 24.67 C-12.33 24.82, -9.73 25.6, -8.74 24.67 C-7.75 23.73, -8.33 20.45, -8.12 19.05 C-7.91 17.64, -7.75 17.49, -7.49 16.24 C-7.23 14.99, -7.18 13.37, -6.56 11.55 C-5.93 9.73, -4.84 7.23, -3.75 5.31 C-2.65 3.38, -0.62 0.88, 0 0 M0 0 C-0.52 -0.57, -2.03 -2.5, -3.12 -3.43 C-4.22 -4.37, -5 -5.2, -6.56 -5.62 C-8.12 -6.04, -10.82 -6.04, -12.49 -5.93 C-14.16 -5.83, -15.4 -5.67, -16.55 -5 C-17.69 -4.32, -18.58 -3.07, -19.36 -1.87 C-20.14 -0.68, -20.61 0.68, -21.23 2.19 C-21.86 3.69, -22.53 5.52, -23.11 7.18 C-23.68 8.85, -24.3 10.67, -24.67 12.18 C-25.03 13.69, -25.29 14.88, -25.29 16.24 C-25.29 17.59, -25.19 19.31, -24.67 20.3 C-24.15 21.28, -23.11 21.6, -22.17 22.17 C-21.23 22.74, -20.4 23.31, -19.05 23.73 C-17.69 24.15, -15.77 24.51, -14.05 24.67 C-12.33 24.82, -9.73 25.6, -8.74 24.67 C-7.75 23.73, -8.33 20.45, -8.12 19.05 C-7.91 17.64, -7.75 17.49, -7.49 16.24 C-7.23 14.99, -7.18 13.37, -6.56 11.55 C-5.93 9.73, -4.84 7.23, -3.75 5.31 C-2.65 3.38, -0.62 0.88, 0 0" stroke="#000000" stroke-width="2" fill="none"></path></g></g><mask></mask><g stroke-opacity="0.9" fill-opacity="0.9" stroke-linecap="round" transform="translate(423.2660940147814 131.30931490409057) rotate(0 34.84695248648285 100.896140546369)"><path d="M-1.53 0.83 L70.98 1.02 L67.91 200.79 L-1.47 200.38" stroke="none" stroke-width="0" fill="#eeeeee"></path><path d="M0 0 C19.18 0.57, 32.9 1, 69.69 0 M0 0 C18.36 0.08, 38.81 0.43, 69.69 0 M69.69 0 C71.74 42.36, 70.22 85.08, 69.69 201.79 M69.69 0 C69.75 79.76, 71.06 160.98, 69.69 201.79 M69.69 201.79 C48.17 202.12, 22.11 203.01, 0 201.79 M69.69 201.79 C52.46 200.65, 35.41 202.47, 0 201.79 M0 201.79 C0.84 153.53, 0.13 105.2, 0 0 M0 201.79 C-2.12 134.75, -0.7 67.86, 0 0" stroke="#000000" stroke-width="1" fill="none"></path></g><g stroke-linecap="round" transform="translate(466.3978396073994 201.1937659165569) rotate(0 9.231590669814409 8.947541726127838)"><path d="M7.87 0.39 C9.77 -0.08, 12.25 -0.24, 13.86 0.7 C15.47 1.65, 16.9 4.22, 17.52 6.06 C18.14 7.9, 18.16 9.97, 17.59 11.74 C17.01 13.51, 15.7 15.58, 14.08 16.67 C12.47 17.75, 9.85 18.54, 7.88 18.25 C5.92 17.95, 3.58 16.48, 2.3 14.9 C1.03 13.33, 0.21 10.67, 0.24 8.81 C0.27 6.95, 1.2 5.16, 2.48 3.75 C3.76 2.33, 7.05 0.86, 7.92 0.31 C8.8 -0.24, 7.71 0.23, 7.71 0.42 M6.78 0.51 C8.76 0.07, 12.14 0.05, 13.91 0.8 C15.68 1.56, 16.72 3.32, 17.38 5.05 C18.03 6.78, 18.3 9.17, 17.83 11.16 C17.36 13.15, 16.23 15.87, 14.54 16.99 C12.85 18.11, 9.65 18.3, 7.69 17.89 C5.72 17.48, 4.13 15.95, 2.74 14.54 C1.34 13.13, -0.44 11.19, -0.68 9.43 C-0.91 7.67, -0.14 5.63, 1.31 3.97 C2.76 2.32, 6.95 0.09, 8.03 -0.5 C9.1 -1.09, 7.76 0.1, 7.77 0.46" stroke="none" stroke-width="0" fill="#868e96"></path><path d="M10.21 -0.37 C12.1 -0.27, 14.54 1.64, 15.92 3.04 C17.31 4.45, 18.4 6.19, 18.54 8.07 C18.67 9.95, 17.88 12.73, 16.74 14.35 C15.59 15.96, 13.63 17.27, 11.67 17.73 C9.71 18.2, 6.72 17.97, 4.98 17.11 C3.23 16.26, 1.89 14.48, 1.2 12.61 C0.51 10.74, 0.39 7.71, 0.86 5.9 C1.33 4.09, 2.33 2.71, 4.03 1.77 C5.72 0.82, 9.78 0.48, 11 0.25 C12.21 0.02, 11.34 0.27, 11.31 0.4 M7.07 -0.15 C8.82 -0.67, 11.82 -0.64, 13.65 0.45 C15.47 1.54, 17.37 4.57, 18.02 6.39 C18.66 8.21, 18.17 9.68, 17.52 11.37 C16.87 13.06, 15.76 15.5, 14.12 16.52 C12.48 17.53, 9.73 17.69, 7.69 17.46 C5.65 17.23, 3.08 16.49, 1.9 15.12 C0.73 13.75, 0.7 11.26, 0.63 9.24 C0.56 7.23, 0.25 4.63, 1.49 3.01 C2.72 1.4, 7.15 -0.06, 8.04 -0.45 C8.93 -0.84, 6.83 0.36, 6.83 0.67" stroke="#000000" stroke-width="1" fill="none"></path></g><g stroke-linecap="round" transform="translate(430.33408069381403 198.30183074140587) rotate(0 9.231590669814409 8.947541726127838)"><path d="M7.95 -0.36 C9.68 -0.74, 12.09 0.52, 13.7 1.56 C15.31 2.61, 16.92 4.14, 17.64 5.91 C18.35 7.69, 18.62 10.34, 17.99 12.24 C17.35 14.13, 15.56 16.35, 13.81 17.29 C12.06 18.22, 9.41 18.35, 7.48 17.86 C5.55 17.36, 3.43 15.74, 2.25 14.3 C1.06 12.85, 0.34 11.05, 0.38 9.2 C0.42 7.35, 1.25 4.71, 2.49 3.21 C3.72 1.72, 6.81 0.65, 7.79 0.23 C8.76 -0.19, 8.34 0.64, 8.34 0.68 M8.25 -0.24 C10.14 -0.76, 12.13 -0.25, 13.74 0.73 C15.35 1.7, 17.15 3.58, 17.91 5.58 C18.67 7.59, 19.06 10.86, 18.3 12.76 C17.54 14.67, 15.14 16.22, 13.37 17 C11.6 17.77, 9.7 17.78, 7.68 17.4 C5.65 17.01, 2.62 16.07, 1.22 14.7 C-0.18 13.33, -1.03 11.27, -0.73 9.19 C-0.44 7.11, 1.49 3.72, 3 2.22 C4.51 0.72, 7.4 0.41, 8.31 0.19 C9.22 -0.03, 8.54 0.65, 8.46 0.89" stroke="none" stroke-width="0" fill="#868e96"></path><path d="M10.51 0.26 C12.43 0.42, 14.88 1.16, 16.23 2.57 C17.58 3.97, 18.52 6.69, 18.62 8.69 C18.73 10.69, 18.12 13.04, 16.86 14.58 C15.6 16.12, 12.97 17.53, 11.05 17.93 C9.12 18.34, 6.97 18.03, 5.31 17.02 C3.65 16, 1.92 13.6, 1.08 11.84 C0.24 10.08, -0.36 8.18, 0.26 6.45 C0.88 4.72, 2.92 2.5, 4.78 1.47 C6.65 0.43, 10.31 0.41, 11.45 0.24 C12.59 0.07, 11.81 0.28, 11.63 0.46 M8.07 -0.54 C10 -0.71, 12.82 1.08, 14.4 2.15 C15.98 3.22, 17 4.17, 17.56 5.87 C18.13 7.57, 18.51 10.55, 17.8 12.33 C17.09 14.11, 15.12 15.62, 13.29 16.55 C11.45 17.48, 8.59 18.26, 6.79 17.91 C5 17.55, 3.75 16.05, 2.53 14.43 C1.32 12.8, -0.59 10.19, -0.49 8.17 C-0.4 6.14, 1.78 3.56, 3.11 2.26 C4.43 0.96, 6.55 0.66, 7.46 0.39 C8.37 0.12, 8.54 0.6, 8.54 0.64" stroke="#000000" stroke-width="1" fill="none"></path></g><g stroke-linecap="round" transform="translate(466.88959510417044 251.79340751333348) rotate(0 9.231590669814409 8.947541726127838)"><path d="M9.98 0.31 C11.79 0.46, 14.18 1.28, 15.62 2.64 C17.06 4, 18.42 6.44, 18.61 8.47 C18.81 10.49, 17.99 13.23, 16.79 14.79 C15.59 16.35, 13.33 17.48, 11.42 17.8 C9.5 18.12, 7.02 17.52, 5.3 16.71 C3.58 15.9, 1.91 14.64, 1.12 12.95 C0.33 11.26, 0.1 8.44, 0.57 6.55 C1.04 4.66, 2.21 2.61, 3.91 1.61 C5.61 0.62, 9.65 0.86, 10.77 0.57 C11.89 0.28, 10.73 -0.13, 10.65 -0.14 M9.83 -0.63 C11.66 -0.59, 14.29 0.54, 15.81 2.11 C17.34 3.69, 18.88 6.75, 19 8.8 C19.11 10.85, 17.72 12.96, 16.53 14.39 C15.34 15.82, 13.85 16.89, 11.83 17.37 C9.81 17.85, 6.38 17.97, 4.41 17.26 C2.44 16.56, 0.59 15.07, 0.01 13.14 C-0.56 11.22, 0.21 7.64, 0.95 5.72 C1.68 3.79, 2.8 2.43, 4.42 1.59 C6.05 0.76, 9.77 0.82, 10.7 0.7 C11.62 0.59, 10 0.89, 9.99 0.91" stroke="none" stroke-width="0" fill="#868e96"></path><path d="M7.31 -0.24 C9.16 -0.78, 11.84 0.01, 13.65 0.98 C15.46 1.95, 17.44 3.76, 18.16 5.57 C18.89 7.38, 18.6 9.99, 18.02 11.85 C17.44 13.7, 16.28 15.77, 14.68 16.7 C13.09 17.63, 10.55 17.66, 8.47 17.43 C6.39 17.21, 3.56 16.67, 2.21 15.34 C0.86 14.02, 0.35 11.45, 0.38 9.49 C0.41 7.53, 1.15 5.14, 2.4 3.59 C3.66 2.04, 7.06 0.71, 7.91 0.2 C8.76 -0.31, 7.57 0.44, 7.5 0.55 M8.39 0.8 C10.16 0.52, 12.23 0.17, 13.85 1.09 C15.48 2.02, 17.52 4.52, 18.13 6.36 C18.73 8.21, 18.36 10.37, 17.49 12.18 C16.62 13.98, 14.55 16.26, 12.92 17.18 C11.28 18.1, 9.64 18.23, 7.7 17.68 C5.77 17.13, 2.47 15.54, 1.31 13.88 C0.14 12.23, 0.59 9.56, 0.7 7.76 C0.81 5.96, 0.63 4.32, 1.96 3.1 C3.29 1.88, 7.74 0.98, 8.67 0.44 C9.6 -0.1, 7.7 -0.14, 7.54 -0.14" stroke="#000000" stroke-width="1" fill="none"></path></g><g stroke-linecap="round" transform="translate(466.20787763933504 149.60882530939307) rotate(0 9.231590669814409 8.947541726127838)"><path d="M6.79 0.04 C8.68 -0.52, 11.73 0, 13.58 0.98 C15.43 1.96, 17.14 4.13, 17.9 5.92 C18.66 7.7, 18.72 9.98, 18.15 11.69 C17.59 13.41, 16.12 15.12, 14.51 16.22 C12.9 17.33, 10.47 18.48, 8.49 18.32 C6.52 18.15, 4.12 16.71, 2.66 15.25 C1.2 13.8, -0.13 11.45, -0.26 9.58 C-0.38 7.71, 0.67 5.68, 1.92 4.03 C3.16 2.37, 6.23 0.35, 7.21 -0.35 C8.2 -1.06, 7.7 -0.46, 7.83 -0.21 M8.13 -0.64 C10.16 -0.77, 13.29 0.7, 14.94 1.9 C16.58 3.11, 17.47 4.85, 18 6.58 C18.53 8.31, 19.03 10.51, 18.13 12.3 C17.23 14.09, 14.58 16.31, 12.6 17.31 C10.63 18.31, 7.97 18.91, 6.26 18.28 C4.55 17.66, 3.32 15.18, 2.33 13.54 C1.33 11.9, 0.18 10.14, 0.29 8.45 C0.4 6.75, 1.7 4.66, 2.98 3.38 C4.26 2.09, 7.01 1.27, 7.97 0.72 C8.94 0.18, 8.66 0.06, 8.76 0.09" stroke="none" stroke-width="0" fill="#868e96"></path><path d="M10.15 0.01 C12.09 0.13, 14.75 1.26, 16.13 2.64 C17.5 4.03, 18.21 6.4, 18.4 8.33 C18.6 10.27, 18.36 12.77, 17.31 14.25 C16.26 15.72, 14.14 16.66, 12.11 17.19 C10.08 17.72, 6.97 18.14, 5.16 17.42 C3.35 16.71, 1.99 14.7, 1.26 12.92 C0.53 11.15, 0.3 8.63, 0.8 6.76 C1.3 4.89, 2.75 2.77, 4.26 1.7 C5.76 0.63, 8.83 0.6, 9.82 0.33 C10.8 0.05, 10.16 -0.04, 10.18 0.06 M6.87 -0.2 C8.66 -0.82, 11.85 0.1, 13.63 1.02 C15.42 1.93, 16.94 3.46, 17.6 5.28 C18.25 7.11, 18.05 10.08, 17.57 11.96 C17.09 13.85, 16.42 15.68, 14.73 16.59 C13.03 17.5, 9.36 17.8, 7.41 17.42 C5.46 17.03, 4.36 15.59, 3.03 14.27 C1.7 12.96, -0.47 11.29, -0.57 9.54 C-0.66 7.8, 1.25 5.42, 2.46 3.8 C3.67 2.18, 5.94 0.47, 6.67 -0.19 C7.4 -0.85, 6.76 -0.45, 6.83 -0.16" stroke="#000000" stroke-width="1" fill="none"></path></g><g stroke-linecap="round"><g transform="translate(443.40321293802685 216.51691866145393) rotate(0 13.341544512779137 18.790988385595256)"><path d="M0 0 C5.8 7.03, 11.63 15.87, 26.68 37.58 M0 0 C10.41 14.82, 20.57 29.09, 26.68 37.58" stroke="#000000" stroke-width="1" fill="none"></path></g><g transform="translate(443.40321293802685 216.51691866145393) rotate(0 13.341544512779137 18.790988385595256)"><path d="M7.66 24.57 C11.86 26.39, 16.06 30.02, 26.68 37.58 M7.66 24.57 C15.14 30.02, 22.38 34.93, 26.68 37.58" stroke="#000000" stroke-width="1" fill="none"></path></g><g transform="translate(443.40321293802685 216.51691866145393) rotate(0 13.341544512779137 18.790988385595256)"><path d="M20.48 15.39 C21.94 19.18, 23.42 24.76, 26.68 37.58 M20.48 15.39 C23.07 24.33, 25.43 32.75, 26.68 37.58" stroke="#000000" stroke-width="1" fill="none"></path></g></g><mask></mask><g stroke-linecap="round"><g transform="translate(449.38850482366024 207.52485295245333) rotate(0 8.305651919865568 0.6603664148592543)"><path d="M0 0 C5.8 0.48, 11.73 1.05, 16.61 1.32 M0 0 C5.09 0.68, 9.52 0.52, 16.61 1.32" stroke="#000000" stroke-width="1" fill="none"></path></g><g transform="translate(449.38850482366024 207.52485295245333) rotate(0 8.305651919865568 0.6603664148592543)"><path d="M8.56 3.47 C11.37 2.77, 14.25 2.12, 16.61 1.32 M8.56 3.47 C11.03 2.98, 13.16 2.07, 16.61 1.32" stroke="#000000" stroke-width="1" fill="none"></path></g><g transform="translate(449.38850482366024 207.52485295245333) rotate(0 8.305651919865568 0.6603664148592543)"><path d="M9.06 -2.21 C11.72 -1.02, 14.43 0.22, 16.61 1.32 M9.06 -2.21 C11.39 -1.02, 13.38 -0.25, 16.61 1.32" stroke="#000000" stroke-width="1" fill="none"></path></g></g><mask></mask><g stroke-linecap="round"><g transform="translate(444.92500799859636 199.0707465530677) rotate(0 12.700208522359219 -16.26486783595169)"><path d="M0 0 C6.06 -6.67, 10.52 -13.15, 25.4 -32.53 M0 0 C9.64 -13.25, 20.46 -25.58, 25.4 -32.53" stroke="#000000" stroke-width="1" fill="none"></path></g><g transform="translate(444.92500799859636 199.0707465530677) rotate(0 12.700208522359219 -16.26486783595169)"><path d="M19.16 -12.86 C21.24 -16.85, 21.69 -20.65, 25.4 -32.53 M19.16 -12.86 C21.21 -20.92, 24.42 -28.14, 25.4 -32.53" stroke="#000000" stroke-width="1" fill="none"></path></g><g transform="translate(444.92500799859636 199.0707465530677) rotate(0 12.700208522359219 -16.26486783595169)"><path d="M7.97 -21.48 C12.41 -23.67, 15.2 -25.66, 25.4 -32.53 M7.97 -21.48 C14.49 -26.16, 22.14 -29.96, 25.4 -32.53" stroke="#000000" stroke-width="1" fill="none"></path></g></g><mask></mask><g transform="translate(426.6130465012643 287.7017182294039) rotate(0 31.5 20)"><text x="31.5" y="0" font-family="Virgil, Segoe UI Emoji" font-size="14.751291676011752px" fill="#000000" text-anchor="middle" style="white-space: pre;" direction="ltr" dominant-baseline="text-before-edge">Load</text><text x="31.5" y="20" font-family="Virgil, Segoe UI Emoji" font-size="14.751291676011752px" fill="#000000" text-anchor="middle" style="white-space: pre;" direction="ltr" dominant-baseline="text-before-edge">Balancer</text></g><g mask="url(#mask-fjpGqgHV4XVCDvjvpBjxu)" stroke-linecap="round"><g transform="translate(188.166104928109 190.54668318311906) rotate(0 111.71012966159151 0.8499552040907474)"><path d="M-1.15 1.1 C36.1 1.48, 185.02 1.91, 222.58 2.12 M0.45 0.63 C38.16 0.66, 187.61 0.27, 224.85 0.22" stroke="#1e1e1e" stroke-width="1" fill="none"></path></g><g transform="translate(188.166104928109 190.54668318311906) rotate(0 111.71012966159151 0.8499552040907474)"><path d="M201.37 8.82 C208.42 5.73, 212.51 6.53, 224.85 0.22 M201.37 8.82 C209.27 6.8, 217.81 1.94, 224.85 0.22" stroke="#1e1e1e" stroke-width="1" fill="none"></path></g><g transform="translate(188.166104928109 190.54668318311906) rotate(0 111.71012966159151 0.8499552040907474)"><path d="M201.34 -8.28 C208.37 -7.58, 212.46 -2.98, 224.85 0.22 M201.34 -8.28 C209.32 -4.23, 217.87 -3.01, 224.85 0.22" stroke="#1e1e1e" stroke-width="1" fill="none"></path></g></g><mask id="mask-fjpGqgHV4XVCDvjvpBjxu"><rect x="0" y="0" fill="#fff" width="511.586364251292" height="292.24659359130055"></rect><rect x="259.9362702952669" y="166.3966383872098" fill="#000" width="79.87992858886719" height="50" opacity="1"></rect></mask><g stroke-linecap="round" transform="translate(636.5785299400653 24.443955822549015) rotate(0 53.15539297753412 52.133173881812354)"><path d="M-1.51 0.34 L106.14 -1.85 L107.23 103.52 L-1.23 103.97" stroke="none" stroke-width="0" fill="#868e96"></path><path d="M0 0 C22 -0.22, 44.21 0.54, 106.31 0 M0 0 C33.36 -1.44, 65.02 -0.94, 106.31 0 M106.31 0 C107.28 35.72, 105.87 73.12, 106.31 104.27 M106.31 0 C107.37 22.51, 108.04 46.31, 106.31 104.27 M106.31 104.27 C72.71 105.5, 35.15 105.82, 0 104.27 M106.31 104.27 C76.74 105.58, 47.65 105.13, 0 104.27 M0 104.27 C-0.96 74.23, 0.18 42.11, 0 0 M0 104.27 C0.59 74.81, 1.42 47.36, 0 0" stroke="#000000" stroke-width="1" fill="none"></path></g><g stroke-linecap="round" transform="translate(629.6376622801179 17.625754454084017) rotate(0 53.15539297753412 52.13317388181213)"><path d="M-0.17 -1.85 L107.23 -0.75 L105.08 103.97 L1.73 105.53" stroke="none" stroke-width="0" fill="#ced4da"></path><path d="M0 0 C24.73 0.29, 48.5 0.92, 106.31 0 M0 0 C39.41 0.55, 79.18 0.73, 106.31 0 M106.31 0 C106.39 37.48, 105.18 77.7, 106.31 104.27 M106.31 0 C107.08 30.5, 106.7 59.04, 106.31 104.27 M106.31 104.27 C64.43 104.98, 22.59 103.17, 0 104.27 M106.31 104.27 C67.44 104.97, 27.34 104.8, 0 104.27 M0 104.27 C0.64 64.53, 0.06 27.04, 0 0 M0 104.27 C0.84 67.54, -0.5 29.55, 0 0" stroke="#000000" stroke-width="1" fill="none"></path></g><g stroke-linecap="round" transform="translate(621.9199081074191 10) rotate(0 53.15539297753412 52.13317388181213)"><path d="M0.92 -0.75 L105.08 -0.3 L108.04 105.53 L-0.57 105.66" stroke="none" stroke-width="0" fill="#eeeeee"></path><path d="M0 0 C26.76 0.52, 54.71 1.92, 106.31 0 M0 0 C24.99 0.2, 49.56 0.7, 106.31 0 M106.31 0 C104.44 27.81, 105.77 51.83, 106.31 104.27 M106.31 0 C107.39 28.72, 107.97 58.95, 106.31 104.27 M106.31 104.27 C72.64 103.34, 41.24 104.66, 0 104.27 M106.31 104.27 C68.31 104.31, 31.16 103.86, 0 104.27 M0 104.27 C-0.53 71, 1.13 40.44, 0 0 M0 104.27 C-1.37 79.9, -0.7 54.28, 0 0" stroke="#000000" stroke-width="1" fill="none"></path></g><g transform="translate(636.8746253274081 28.67510917773211) rotate(0 38.20067575754513 44.273641807123)"><text x="38.200675757545106" y="0" font-family="Virgil, Segoe UI Emoji" font-size="16.466296204858686px" fill="#000000" text-anchor="middle" style="white-space: pre;" direction="ltr" dominant-baseline="text-before-edge">URL</text><text x="38.200675757545106" y="22.13682090356146" font-family="Virgil, Segoe UI Emoji" font-size="16.466296204858686px" fill="#000000" text-anchor="middle" style="white-space: pre;" direction="ltr" dominant-baseline="text-before-edge">Shortener</text><text x="38.200675757545106" y="44.27364180712292" font-family="Virgil, Segoe UI Emoji" font-size="16.466296204858686px" fill="#000000" text-anchor="middle" style="white-space: pre;" direction="ltr" dominant-baseline="text-before-edge">Service</text><text x="38.200675757545106" y="66.41046271068439" font-family="Virgil, Segoe UI Emoji" font-size="16.466296204858686px" fill="#000000" text-anchor="middle" style="white-space: pre;" direction="ltr" dominant-baseline="text-before-edge"></text></g><g mask="url(#mask-xzuCn8bA6rT2zaleBNThK)" stroke-linecap="round"><g transform="translate(502.92584167495716 166.07974748305696) rotate(0 59.8204586337626 -38.455256902356496)"><path d="M0.63 -0.01 C20.68 -12.69, 100.67 -63.46, 120.4 -76.32 M-0.5 -1.06 C19.45 -14.08, 100.11 -65.65, 119.85 -78.13" stroke="#1e1e1e" stroke-width="1" fill="none"></path></g><g transform="translate(502.92584167495716 166.07974748305696) rotate(0 59.8204586337626 -38.455256902356496)"><path d="M104.63 -58.3 C109.34 -63.24, 115.05 -71.66, 119.85 -78.13 M104.63 -58.3 C109.88 -63.85, 113.19 -69.43, 119.85 -78.13" stroke="#1e1e1e" stroke-width="1" fill="none"></path></g><g transform="translate(502.92584167495716 166.07974748305696) rotate(0 59.8204586337626 -38.455256902356496)"><path d="M95.44 -72.73 C102.96 -73.26, 111.5 -77.23, 119.85 -78.13 M95.44 -72.73 C103.22 -74.19, 109.08 -75.75, 119.85 -78.13" stroke="#1e1e1e" stroke-width="1" fill="none"></path></g></g><mask id="mask-xzuCn8bA6rT2zaleBNThK"><rect x="0" y="0" fill="#fff" width="722.5667589424824" height="342.99026128776995"></rect><rect x="555.6263051915323" y="115.1244905807007" fill="#000" width="14.239990234375" height="25" opacity="1"></rect></mask><g stroke-linecap="round"><g transform="translate(885.9475522845422 59.912911778451644) rotate(0 38.504325523915156 41.8176289131203)" fill-rule="evenodd"><path d="M1.64 -1.65 C1.95 11.22, 2.36 61.32, 2.33 75.51 C2.3 89.7, 1.02 81.23, 1.46 83.48 C1.9 85.73, 2.06 88.13, 4.96 89.01 C7.86 89.89, 13.03 88.14, 18.87 88.76 C24.71 89.37, 32.5 92.56, 39.99 92.7 C47.49 92.84, 58.18 90.36, 63.85 89.6 C69.53 88.85, 71.74 89.45, 74.04 88.19 C76.34 86.93, 77.13 83.94, 77.66 82.05 C78.18 80.16, 77.41 89.56, 77.19 76.86 C76.97 64.16, 76.76 19.1, 76.36 5.85 C75.95 -7.41, 75.56 -0.84, 74.76 -2.67 C73.96 -4.5, 73.84 -4.88, 71.56 -5.13 C69.29 -5.39, 67.22 -3.37, 61.11 -4.19 C55 -5.01, 42.27 -9.9, 34.88 -10.06 C27.49 -10.22, 22.35 -6.49, 16.76 -5.14 C11.16 -3.79, 4.46 -2.57, 1.3 -1.96 C-1.86 -1.35, -1.79 -1.43, -2.2 -1.47 C-2.61 -1.51, -1.28 -2.08, -1.14 -2.2" stroke="none" stroke-width="0" fill="#ced4da" fill-rule="evenodd"></path><path d="M0.07 0.61 C0.31 13.15, 0.38 60.5, 0.54 74.41 C0.7 88.33, 0.33 81.8, 1.03 84.1 C1.72 86.4, 1.73 87.23, 4.7 88.23 C7.68 89.22, 12.64 89.7, 18.86 90.08 C25.08 90.46, 34.63 90.68, 42.04 90.48 C49.44 90.28, 57.83 89.54, 63.31 88.87 C68.79 88.2, 72.62 87.22, 74.92 86.44 C77.23 85.66, 76.98 85.76, 77.15 84.2 C77.32 82.63, 75.87 89.88, 75.92 77.04 C75.97 64.2, 77.25 20.23, 77.45 7.15 C77.64 -5.92, 78.11 0.52, 77.08 -1.4 C76.05 -3.31, 73.82 -3.42, 71.28 -4.34 C68.75 -5.26, 67.53 -6.44, 61.87 -6.93 C56.21 -7.41, 44.5 -7.43, 37.32 -7.26 C30.14 -7.08, 24.62 -6.43, 18.8 -5.87 C12.97 -5.31, 5.65 -4.99, 2.37 -3.92 C-0.91 -2.86, -0.53 -0.14, -0.88 0.5 C-1.23 1.14, 0.27 -0.13, 0.27 -0.08 M-1.35 -0.12 C-1.16 12.63, -0.62 61.86, -0.26 75.54 C0.1 89.21, -0.14 80.18, 0.79 81.93 C1.73 83.69, 2.47 84.69, 5.34 86.07 C8.2 87.45, 12.14 89.13, 17.97 90.2 C23.8 91.28, 32.64 92.47, 40.3 92.53 C47.97 92.59, 58.37 91.64, 63.95 90.58 C69.53 89.53, 71.83 87.39, 73.78 86.18 C75.73 84.98, 75.27 84.89, 75.65 83.36 C76.04 81.83, 75.7 90.08, 76.1 77 C76.5 63.93, 78.09 17.55, 78.07 4.92 C78.05 -7.7, 77.11 2.98, 76 1.27 C74.88 -0.45, 73.8 -3.88, 71.4 -5.34 C68.99 -6.81, 67.21 -7.18, 61.58 -7.53 C55.95 -7.89, 44.56 -7.42, 37.64 -7.46 C30.73 -7.5, 25.66 -8.41, 20.1 -7.76 C14.54 -7.11, 7.47 -5.03, 4.29 -3.55 C1.12 -2.06, 1.93 0.55, 1.05 1.16 C0.17 1.77, -0.65 0.42, -0.98 0.13" stroke="#000000" stroke-width="1" fill="none"></path></g></g><mask></mask><g stroke-linecap="round"><g transform="translate(886.4714817228172 117.03919543618213) rotate(0 38.58599110596782 3.8876540365893106)"><path d="M0.29 -0.79 C0.78 -0.27, 1.17 2.44, 3.05 3.75 C4.92 5.05, 8.11 6.42, 11.54 7.04 C14.96 7.67, 18.54 7.49, 23.57 7.5 C28.61 7.51, 35.31 7.34, 41.73 7.08 C48.14 6.82, 56.64 6.57, 62.07 5.92 C67.5 5.28, 71.74 4.08, 74.31 3.2 C76.88 2.32, 77.22 1.12, 77.51 0.65 M-1.02 1.41 C-0.6 1.51, 0.6 1.19, 2.63 1.8 C4.66 2.42, 8.14 4.01, 11.15 5.1 C14.17 6.19, 15.81 8.03, 20.74 8.33 C25.68 8.63, 33.65 6.97, 40.77 6.9 C47.89 6.84, 57.8 8.77, 63.48 7.94 C69.16 7.12, 72.64 3.12, 74.83 1.94 C77.03 0.76, 76.22 1.28, 76.66 0.86" stroke="#000000" stroke-width="1" fill="none"></path></g></g><mask></mask><g stroke-linecap="round"><g transform="translate(885.4396244003134 88.0751401009586) rotate(0 38.58599110596782 3.8876540365893106)"><path d="M1.01 0.34 C1.43 1.16, 0.95 3.27, 2.77 4.18 C4.58 5.08, 8.46 5.31, 11.91 5.76 C15.35 6.22, 18.64 6.71, 23.45 6.92 C28.25 7.13, 34.34 6.98, 40.74 7.03 C47.14 7.08, 56.16 7.71, 61.85 7.22 C67.54 6.73, 72.5 5.23, 74.87 4.09 C77.23 2.96, 75.56 1, 76.04 0.39 M0.09 -0.53 C0.38 0.03, 0.27 1.23, 2.2 2.46 C4.14 3.68, 8.05 5.98, 11.72 6.81 C15.39 7.65, 19.62 7.46, 24.21 7.46 C28.8 7.46, 32.78 7.02, 39.27 6.82 C45.76 6.62, 57.08 6.85, 63.15 6.26 C69.22 5.67, 73.2 4.26, 75.69 3.3 C78.18 2.33, 77.97 1.1, 78.09 0.46" stroke="#000000" stroke-width="1" fill="none"></path></g></g><mask></mask><g stroke-linecap="round" transform="translate(884.3816754182313 52.780643152769926) rotate(0 38.29876800932749 7.745637696423955)"><path d="M31.48 0.12 C39.23 -0.33, 50.84 -0.23, 57.91 0.55 C64.97 1.33, 71.09 3.22, 73.88 4.8 C76.66 6.37, 77.32 8.46, 74.62 10 C71.91 11.54, 64.87 13.16, 57.65 14.02 C50.42 14.88, 39.49 15.4, 31.29 15.14 C23.09 14.87, 13.76 13.71, 8.47 12.44 C3.18 11.16, -0.52 9.18, -0.45 7.49 C-0.37 5.8, 3.39 3.6, 8.91 2.29 C14.43 0.98, 28.53 0.03, 32.68 -0.39 C36.83 -0.8, 33.72 -0.47, 33.82 -0.21 M44.66 0.32 C52.51 0.41, 62.63 1, 68.01 2.32 C73.38 3.64, 76.97 6.37, 76.91 8.22 C76.85 10.07, 73.03 12.21, 67.66 13.41 C62.29 14.61, 52.74 15.28, 44.69 15.43 C36.63 15.58, 26.35 15.07, 19.32 14.31 C12.29 13.54, 5.23 12.28, 2.51 10.85 C-0.21 9.43, 0.1 7.41, 2.99 5.74 C5.87 4.08, 12.87 1.75, 19.82 0.85 C26.78 -0.05, 40.49 0.4, 44.72 0.34 C48.95 0.29, 45.12 0.48, 45.21 0.52" stroke="none" stroke-width="0" fill="#fff"></path><path d="M46.59 0.2 C54.24 0.38, 63.48 1.66, 68.49 3.01 C73.49 4.36, 76.91 6.72, 76.6 8.32 C76.3 9.91, 72.23 11.35, 66.66 12.58 C61.08 13.8, 51.33 15.36, 43.17 15.68 C35 16, 24.68 15.45, 17.68 14.49 C10.69 13.52, 3.64 11.47, 1.18 9.89 C-1.28 8.32, -0.3 6.54, 2.95 5.02 C6.2 3.51, 12.89 1.58, 20.7 0.83 C28.5 0.09, 44.55 0.65, 49.77 0.55 C54.99 0.46, 52.31 0.23, 52.03 0.26 M42.09 0.54 C49.89 0.54, 60.43 0.84, 66.25 1.88 C72.07 2.92, 76.45 5.01, 77.03 6.77 C77.6 8.54, 74.6 11.05, 69.7 12.46 C64.8 13.86, 55.68 14.74, 47.65 15.19 C39.61 15.64, 28.84 15.97, 21.48 15.15 C14.12 14.33, 6.87 11.81, 3.5 10.27 C0.13 8.72, -1.05 7.4, 1.26 5.88 C3.57 4.37, 10.51 2.03, 17.36 1.16 C24.2 0.28, 38.08 0.85, 42.33 0.63 C46.58 0.42, 42.85 -0.19, 42.84 -0.13" stroke="#000000" stroke-width="1" fill="none"></path></g><g stroke-linecap="round" transform="translate(920.8736625234538 77.25731083267351) rotate(0 5.613051577080881 6.091879242227833)"><path d="M6.05 -0.5 C7.15 -0.62, 7.9 0.28, 8.81 1.14 C9.72 2, 11.18 3.4, 11.5 4.66 C11.81 5.93, 11.43 7.57, 10.71 8.73 C10 9.89, 8.46 11.13, 7.21 11.6 C5.96 12.06, 4.37 11.98, 3.21 11.52 C2.06 11.07, 0.82 10.03, 0.29 8.86 C-0.25 7.69, -0.25 5.85, 0 4.53 C0.24 3.21, 0.87 1.76, 1.75 0.94 C2.63 0.12, 4.62 -0.33, 5.27 -0.4 C5.91 -0.48, 5.48 0.34, 5.62 0.47 M6.04 -0.48 C7.32 -0.47, 8.8 0.93, 9.68 2 C10.56 3.06, 11.23 4.67, 11.33 5.9 C11.44 7.13, 10.93 8.4, 10.33 9.38 C9.72 10.35, 8.79 11.28, 7.7 11.76 C6.61 12.24, 4.86 12.59, 3.78 12.24 C2.71 11.89, 1.79 10.9, 1.26 9.64 C0.73 8.37, 0.53 6.01, 0.6 4.66 C0.68 3.3, 0.81 2.24, 1.71 1.51 C2.61 0.77, 5.18 0.53, 5.99 0.25 C6.79 -0.03, 6.68 -0.32, 6.54 -0.17" stroke="none" stroke-width="0" fill="#868e96"></path><path d="M6.27 0.03 C7.49 0.23, 9.18 1.49, 10.08 2.45 C10.98 3.42, 11.65 4.48, 11.66 5.8 C11.67 7.12, 10.95 9.29, 10.13 10.38 C9.32 11.48, 8.1 12.25, 6.78 12.38 C5.46 12.51, 3.31 11.86, 2.21 11.18 C1.1 10.51, 0.5 9.56, 0.14 8.34 C-0.22 7.11, -0.45 5.07, 0.07 3.84 C0.58 2.61, 2.02 1.62, 3.23 0.94 C4.45 0.27, 6.76 -0.05, 7.36 -0.21 C7.96 -0.37, 6.88 -0.18, 6.83 0 M5.66 -0.54 C6.98 -0.8, 8.63 -0.08, 9.65 0.85 C10.67 1.78, 11.54 3.68, 11.76 5.03 C11.98 6.38, 11.6 7.76, 10.96 8.96 C10.33 10.17, 9.07 11.87, 7.93 12.25 C6.78 12.64, 5.37 11.74, 4.12 11.29 C2.88 10.84, 1.12 10.62, 0.47 9.57 C-0.17 8.53, 0.05 6.26, 0.23 5.01 C0.42 3.76, 0.67 2.97, 1.59 2.08 C2.52 1.18, 5.11 -0.04, 5.78 -0.34 C6.44 -0.63, 5.63 0.17, 5.56 0.31" stroke="#000000" stroke-width="1" fill="none"></path></g><g stroke-linecap="round" transform="translate(921.2248043073874 103.47392511973976) rotate(0 5.613051577080881 6.091879242227833)"><path d="M5.2 -0.31 C6.33 -0.37, 8.55 0.21, 9.59 1.03 C10.62 1.85, 11.3 3.3, 11.4 4.61 C11.5 5.93, 10.9 7.77, 10.17 8.92 C9.45 10.08, 8.23 11.1, 7.07 11.54 C5.91 11.99, 4.3 12.05, 3.23 11.57 C2.16 11.08, 1.22 9.82, 0.65 8.65 C0.08 7.48, -0.35 5.83, -0.2 4.55 C-0.05 3.28, 0.58 1.71, 1.54 1.01 C2.5 0.31, 4.78 0.53, 5.57 0.35 C6.37 0.16, 6.27 -0.09, 6.31 -0.1 M6.29 0.44 C7.42 0.63, 8.84 1.5, 9.66 2.34 C10.47 3.18, 10.99 4.31, 11.15 5.48 C11.31 6.65, 11.26 8.19, 10.64 9.35 C10.03 10.51, 8.57 11.94, 7.46 12.44 C6.35 12.94, 5.02 12.99, 3.96 12.36 C2.89 11.72, 1.77 9.87, 1.06 8.63 C0.35 7.38, -0.53 6.06, -0.29 4.86 C-0.06 3.66, 1.3 2.28, 2.47 1.42 C3.63 0.57, 6.24 -0.15, 6.71 -0.28 C7.18 -0.41, 5.33 0.51, 5.3 0.67" stroke="none" stroke-width="0" fill="#868e96"></path><path d="M5.67 0.14 C6.96 0, 8.68 0.1, 9.65 0.95 C10.62 1.81, 11.27 3.86, 11.47 5.27 C11.66 6.67, 11.56 8.32, 10.83 9.39 C10.1 10.47, 8.3 11.26, 7.08 11.72 C5.87 12.18, 4.67 12.58, 3.56 12.15 C2.45 11.72, 0.96 10.29, 0.43 9.14 C-0.11 7.99, 0.03 6.61, 0.36 5.26 C0.7 3.91, 1.57 1.98, 2.41 1.04 C3.26 0.11, 4.82 -0.21, 5.43 -0.35 C6.04 -0.48, 6.02 0.14, 6.06 0.24 M7.03 -0.43 C8.25 -0.2, 9.74 1.16, 10.51 2.22 C11.28 3.28, 11.71 4.57, 11.67 5.94 C11.63 7.31, 11.04 9.5, 10.26 10.43 C9.48 11.36, 8.28 11.3, 6.99 11.52 C5.7 11.74, 3.61 12.31, 2.54 11.75 C1.46 11.18, 0.95 9.3, 0.52 8.12 C0.1 6.93, -0.44 5.92, -0.02 4.66 C0.39 3.39, 1.91 1.24, 3.01 0.51 C4.11 -0.22, 6.01 0.34, 6.57 0.27 C7.13 0.19, 6.46 0.11, 6.35 0.06" stroke="#000000" stroke-width="1" fill="none"></path></g><g stroke-linecap="round" transform="translate(921.8736625234538 132.24265169104547) rotate(357.5021844865888 5.613051577080881 6.091879242227833)"><path d="M4.58 -0.22 C5.78 -0.62, 7.33 -0.43, 8.31 0.16 C9.28 0.76, 10.06 2.14, 10.44 3.35 C10.82 4.57, 10.92 6.21, 10.57 7.46 C10.22 8.72, 9.26 10.18, 8.33 10.88 C7.39 11.58, 6.13 11.85, 4.96 11.69 C3.79 11.52, 2.21 10.81, 1.31 9.88 C0.41 8.96, -0.38 7.31, -0.46 6.14 C-0.54 4.98, -0.06 3.93, 0.83 2.88 C1.73 1.84, 4.21 0.39, 4.9 -0.12 C5.58 -0.63, 4.96 -0.33, 4.94 -0.16 M4.88 0.73 C5.94 0.39, 7.38 0.37, 8.45 0.91 C9.51 1.45, 10.83 2.66, 11.27 3.97 C11.72 5.27, 11.52 7.4, 11.13 8.76 C10.75 10.11, 9.97 11.57, 8.95 12.1 C7.94 12.63, 6.4 12.24, 5.04 11.91 C3.68 11.59, 1.62 11.1, 0.81 10.16 C0 9.21, -0.04 7.64, 0.18 6.25 C0.39 4.86, 1.45 2.76, 2.1 1.82 C2.74 0.88, 3.51 0.88, 4.04 0.61 C4.58 0.35, 5.2 0.11, 5.3 0.23" stroke="none" stroke-width="0" fill="#868e96"></path><path d="M5.78 -0.46 C6.97 -0.58, 8.4 0.57, 9.34 1.49 C10.29 2.4, 11.31 3.8, 11.44 5.01 C11.57 6.23, 10.78 7.62, 10.14 8.8 C9.51 9.97, 8.72 11.52, 7.64 12.04 C6.55 12.56, 4.69 12.31, 3.61 11.91 C2.54 11.5, 1.7 10.76, 1.17 9.6 C0.64 8.44, 0.4 6.32, 0.46 4.93 C0.52 3.54, 0.64 2.07, 1.51 1.26 C2.38 0.46, 5.01 0.37, 5.68 0.11 C6.35 -0.14, 5.51 -0.36, 5.52 -0.27 M5.25 0.19 C6.35 -0.03, 7.85 0.01, 8.84 0.72 C9.83 1.43, 10.78 3.31, 11.18 4.45 C11.58 5.6, 11.75 6.38, 11.24 7.59 C10.73 8.79, 9.19 10.97, 8.12 11.7 C7.05 12.43, 6.02 12.15, 4.83 11.97 C3.64 11.79, 1.75 11.65, 0.99 10.61 C0.23 9.58, 0.2 7.16, 0.26 5.78 C0.32 4.41, 0.64 3.36, 1.34 2.38 C2.04 1.41, 3.99 0.44, 4.46 -0.04 C4.92 -0.53, 4.07 -0.57, 4.11 -0.51" stroke="#000000" stroke-width="1" fill="none"></path></g><g transform="translate(863.798310971424 153.8327932898883) rotate(0 60.29874496153468 11.79758053595242)"><text x="60.29874496153468" y="0" font-family="Virgil, Segoe UI Emoji" font-size="17.4778970902999px" fill="#000000" text-anchor="middle" style="white-space: pre;" direction="ltr" dominant-baseline="text-before-edge">Relational DB</text></g><g transform="translate(555.6263051915323 115.1244905807007) rotate(0 7.2507873707683075 11.882561615365262)"><text x="7.1199951171875" y="0" font-family="Virgil, Segoe UI Emoji" font-size="20px" fill="#1e1e1e" text-anchor="middle" style="white-space: pre;" direction="ltr" dominant-baseline="text-before-edge">2</text></g><g stroke-linecap="round" transform="translate(591.9564002545849 344.00172398535415) rotate(0 82.06278932747836 60.09465324644998)"><path d="M30.05 0 C65.43 1.53, 102.61 1.95, 134.08 0 C155.72 -0.56, 160.63 9.36, 164.13 30.05 C166.78 44.52, 166 51.3, 164.13 90.14 C167.05 113.16, 152.88 119.09, 134.08 120.19 C101.77 119.37, 61.78 120.83, 30.05 120.19 C8.87 117.27, 2.39 108.7, 0 90.14 C3.97 75.92, 2.27 64.64, 0 30.05 C-3.52 10.75, 8.44 -0.38, 30.05 0" stroke="none" stroke-width="0" fill="#eeeeee"></path><path d="M30.05 0 C52.41 -2.83, 71.98 -2.48, 134.08 0 M30.05 0 C54.93 1.01, 81.85 1.93, 134.08 0 M134.08 0 C155.03 0.13, 162.47 10.45, 164.13 30.05 M134.08 0 C154.55 -0.07, 164.21 11.22, 164.13 30.05 M164.13 30.05 C164.77 40.69, 164.18 53.06, 164.13 90.14 M164.13 30.05 C165.16 46.49, 163.75 61.34, 164.13 90.14 M164.13 90.14 C162.69 110.34, 152.98 118.26, 134.08 120.19 M164.13 90.14 C163.81 112.15, 154.92 120.14, 134.08 120.19 M134.08 120.19 C107.86 121.44, 79.67 118.37, 30.05 120.19 M134.08 120.19 C106.97 119.54, 78.77 120.51, 30.05 120.19 M30.05 120.19 C8.42 120.33, -0.35 109.91, 0 90.14 M30.05 120.19 C9.51 120.7, -2 109.64, 0 90.14 M0 90.14 C0.05 73.16, 1.05 55.39, 0 30.05 M0 90.14 C0.48 75.13, 0.36 58.56, 0 30.05 M0 30.05 C1.36 9.83, 9.69 0.15, 30.05 0 M0 30.05 C-1.22 9.75, 12.15 -1.87, 30.05 0" stroke="#000000" stroke-width="1" fill="none"></path></g><g stroke-linecap="round" transform="translate(602.48658118599 353.44257585488594) rotate(0 17.06615530261712 6.717529214859951)"><path d="M-0.8 0.07 L33.96 -0.13 L33.91 13.66 L-0.87 13.2" stroke="none" stroke-width="0" fill="#868e96"></path><path d="M0 0 C12.46 -0.63, 25.76 0, 34.13 0 M0 0 C7.29 0.48, 14.4 0.02, 34.13 0 M34.13 0 C34.13 2.94, 34.5 5.19, 34.13 13.44 M34.13 0 C33.88 4.95, 33.9 9.92, 34.13 13.44 M34.13 13.44 C23.41 13.05, 11.09 12.87, 0 13.44 M34.13 13.44 C23.54 13.7, 13.26 13.26, 0 13.44 M0 13.44 C0.07 10.5, -0.56 6.07, 0 0 M0 13.44 C0.34 9.78, 0.28 6.49, 0 0" stroke="#000000" stroke-width="1" fill="none"></path></g><g stroke-linecap="round" transform="translate(656.8077904045285 352.8847650600155) rotate(0 45.02560122392612 7.262193745794548)"><path d="M3.63 0 C32.87 -0.95, 57.24 -1.02, 86.42 0 C86.28 1.77, 89.68 2.6, 90.05 3.63 C90.85 7.07, 89.76 8.65, 90.05 10.89 C90.89 12.01, 86.57 16.15, 86.42 14.52 C58.88 13.1, 34.71 14.14, 3.63 14.52 C-1.2 12.89, -1.09 15.69, 0 10.89 C-0.97 9.26, -0.45 7.15, 0 3.63 C-0.46 3.46, -0.36 1.85, 3.63 0" stroke="none" stroke-width="0" fill="#ced4da"></path><path d="M3.63 0 C19.87 0.16, 36.25 -0.48, 86.42 0 M3.63 0 C29.12 -0.37, 53.74 -0.29, 86.42 0 M86.42 0 C89.03 -0.03, 90.09 1.73, 90.05 3.63 M86.42 0 C87.74 0.84, 90.53 1.33, 90.05 3.63 M90.05 3.63 C89.92 5.31, 89.74 7.12, 90.05 10.89 M90.05 3.63 C89.9 6.13, 89.93 8.43, 90.05 10.89 M90.05 10.89 C89.91 14.18, 89.19 14.5, 86.42 14.52 M90.05 10.89 C89.51 12.7, 88.69 14.58, 86.42 14.52 M86.42 14.52 C55.53 13.45, 24.75 15.06, 3.63 14.52 M86.42 14.52 C62.19 14.91, 38.67 14.81, 3.63 14.52 M3.63 14.52 C0.99 14.75, -0.87 13.08, 0 10.89 M3.63 14.52 C0.96 15.44, 0.58 13.62, 0 10.89 M0 10.89 C-0.19 8.88, -0.18 6.93, 0 3.63 M0 10.89 C0.11 8.43, -0.05 6.01, 0 3.63 M0 3.63 C-0.53 1.09, 2.14 -0.81, 3.63 0 M0 3.63 C0.46 1.79, 1.13 -0.01, 3.63 0" stroke="#000000" stroke-width="1" fill="none"></path></g><g stroke-linecap="round"><g transform="translate(638.7450836786159 360.7175818734131) rotate(0 9.609897642619558 -0.08762876791502094)"><path d="M-0.09 -0.51 C3.11 -0.48, 15.52 -0.29, 18.77 -0.15 M-0.81 0.42 C2.6 0.56, 16.44 0.71, 19.78 0.57" stroke="#000000" stroke-width="1" fill="none"></path></g><g transform="translate(638.7450836786159 360.7175818734131) rotate(0 9.609897642619558 -0.08762876791502094)"><path d="M10.78 3.95 C12.33 2.82, 14.78 2.66, 19.78 0.57 M10.78 3.95 C14.15 2.66, 17.96 1.25, 19.78 0.57" stroke="#000000" stroke-width="1" fill="none"></path></g><g transform="translate(638.7450836786159 360.7175818734131) rotate(0 9.609897642619558 -0.08762876791502094)"><path d="M10.71 -2.62 C12.26 -2.3, 14.72 -1.01, 19.78 0.57 M10.71 -2.62 C14.12 -1.31, 17.96 -0.1, 19.78 0.57" stroke="#000000" stroke-width="1" fill="none"></path></g></g><mask></mask><g stroke-linecap="round" transform="translate(603.0675566856548 371.45281634445746) rotate(0 17.06615530261712 6.717529214859951)"><path d="M-0.87 -0.23 L33.92 0.8 L34.63 13.7 L-0.12 14.2" stroke="none" stroke-width="0" fill="#868e96"></path><path d="M0 0 C9.71 0.55, 20.29 0.6, 34.13 0 M0 0 C10.56 -0.05, 20.94 0.23, 34.13 0 M34.13 0 C34.25 2.2, 34.05 4.97, 34.13 13.44 M34.13 0 C34.44 3.72, 33.97 6.91, 34.13 13.44 M34.13 13.44 C25.37 13.2, 19.41 13.69, 0 13.44 M34.13 13.44 C23.9 13.37, 14.14 12.9, 0 13.44 M0 13.44 C-0.32 11.13, -0.06 8.09, 0 0 M0 13.44 C0 8.22, -0.02 3.17, 0 0" stroke="#000000" stroke-width="1" fill="none"></path></g><g stroke-linecap="round" transform="translate(657.3887659041895 371.7201393894966) rotate(0 45.02560122392612 7.262193745794548)"><path d="M3.63 0 C26.59 0.65, 52 0.08, 86.42 0 C86.69 2.11, 92.21 0.32, 90.05 3.63 C89.26 6.18, 90.3 6.72, 90.05 10.89 C91.69 12.49, 86.73 16.25, 86.42 14.52 C63.89 16.23, 42.26 15, 3.63 14.52 C0.79 11.98, 0.53 12.18, 0 10.89 C-0.55 9.46, 0.71 6.41, 0 3.63 C0.29 0.56, 2.94 -1.48, 3.63 0" stroke="none" stroke-width="0" fill="#ced4da"></path><path d="M3.63 0 C22.71 0.29, 39.91 -1, 86.42 0 M3.63 0 C30.28 0.27, 56.43 0.38, 86.42 0 M86.42 0 C89.25 0.1, 89.23 1.02, 90.05 3.63 M86.42 0 C87.95 -0.38, 90.36 0.24, 90.05 3.63 M90.05 3.63 C89.79 6.18, 90.1 9.05, 90.05 10.89 M90.05 3.63 C90.11 5.11, 89.96 6.49, 90.05 10.89 M90.05 10.89 C89.92 13.36, 89.54 13.63, 86.42 14.52 M90.05 10.89 C89.08 12.96, 88 13.95, 86.42 14.52 M86.42 14.52 C55.13 14.01, 22.22 14.63, 3.63 14.52 M86.42 14.52 C62.25 14.5, 38.84 15.02, 3.63 14.52 M3.63 14.52 C1.71 14.79, -0.12 14.08, 0 10.89 M3.63 14.52 C0.47 14.02, 0.26 12.82, 0 10.89 M0 10.89 C-0.31 8.52, -0.05 5.59, 0 3.63 M0 10.89 C0.19 8.51, 0.09 6.52, 0 3.63 M0 3.63 C-0.07 1.2, 1.6 0.48, 3.63 0 M0 3.63 C0.58 1.73, 1.03 -1.12, 3.63 0" stroke="#000000" stroke-width="1" fill="none"></path></g><g stroke-linecap="round"><g transform="translate(638.3389098507857 379.1014153668011) rotate(0 9.60664779578724 0.018214458319562254)"><path d="M0.25 0.04 C3.34 -0.03, 15.58 0.16, 18.76 0.16 M-0.28 -0.42 C2.96 -0.43, 16.54 -0.92, 19.76 -0.75" stroke="#000000" stroke-width="1" fill="none"></path></g><g transform="translate(638.3389098507857 379.1014153668011) rotate(0 9.60664779578724 0.018214458319562254)"><path d="M10.72 2.53 C13.82 0.99, 16.97 0.37, 19.76 -0.75 M10.72 2.53 C13.18 1.71, 16.19 0.58, 19.76 -0.75" stroke="#000000" stroke-width="1" fill="none"></path></g><g transform="translate(638.3389098507857 379.1014153668011) rotate(0 9.60664779578724 0.018214458319562254)"><path d="M10.73 -4.05 C13.85 -3.34, 17 -1.73, 19.76 -0.75 M10.73 -4.05 C13.18 -2.91, 16.19 -2.08, 19.76 -0.75" stroke="#000000" stroke-width="1" fill="none"></path></g></g><mask></mask><g stroke-linecap="round" transform="translate(603.8663979976875 409.11760654272257) rotate(0 17.06615530261712 6.717529214859951)"><path d="M-0.12 0.76 L33.49 -0.44 L34.36 13.01 L0.61 13.81" stroke="none" stroke-width="0" fill="#868e96"></path><path d="M0 0 C12.03 0.33, 23.6 0.18, 34.13 0 M0 0 C12.24 -0.07, 23.65 -0.22, 34.13 0 M34.13 0 C33.55 3.57, 34.39 5.61, 34.13 13.44 M34.13 0 C33.89 2.7, 34.04 6.33, 34.13 13.44 M34.13 13.44 C22.16 13.23, 11.3 14.05, 0 13.44 M34.13 13.44 C26.58 13.13, 20.19 13.32, 0 13.44 M0 13.44 C-0.01 8.38, -0.15 3.4, 0 0 M0 13.44 C-0.01 9.38, 0.23 4.87, 0 0" stroke="#000000" stroke-width="1" fill="none"></path></g><g stroke-linecap="round" transform="translate(658.1876072162295 408.972362667806) rotate(0 45.02560122392612 7.262193745794548)"><path d="M3.63 0 C33.23 -1.76, 57.72 -0.04, 86.42 0 C87.54 -2.27, 91.68 1.8, 90.05 3.63 C89.34 5.8, 89.72 5.84, 90.05 10.89 C88.42 12.23, 91.22 13.25, 86.42 14.52 C58.45 12.33, 29.14 13.01, 3.63 14.52 C3.46 12.96, 1.85 15.22, 0 10.89 C0.62 8.39, -0.61 7.89, 0 3.63 C0.08 -0.72, 2.06 2.17, 3.63 0" stroke="none" stroke-width="0" fill="#ced4da"></path><path d="M3.63 0 C21.57 -0.05, 40.09 -1.04, 86.42 0 M3.63 0 C34.12 -0.14, 65.03 -0.21, 86.42 0 M86.42 0 C89.11 -0.84, 90.93 1.63, 90.05 3.63 M86.42 0 C88.22 -0.86, 89.23 1.31, 90.05 3.63 M90.05 3.63 C90.33 5.53, 90.01 7, 90.05 10.89 M90.05 3.63 C90.17 5.26, 89.89 7.16, 90.05 10.89 M90.05 10.89 C89.32 12.81, 89.72 14.4, 86.42 14.52 M90.05 10.89 C90.83 14.29, 87.92 14.6, 86.42 14.52 M86.42 14.52 C63.24 13.56, 39.39 14.22, 3.63 14.52 M86.42 14.52 C54.9 15.01, 23.18 14.41, 3.63 14.52 M3.63 14.52 C1.44 14.1, 0.61 13.69, 0 10.89 M3.63 14.52 C1.78 13.59, 0.78 13.21, 0 10.89 M0 10.89 C-0.05 9.17, -0.3 6.92, 0 3.63 M0 10.89 C0.07 8.44, 0.09 5.89, 0 3.63 M0 3.63 C-0.16 0.24, 1.03 -0.98, 3.63 0 M0 3.63 C0.78 1.04, 1.82 0.75, 3.63 0" stroke="#000000" stroke-width="1" fill="none"></path></g><g stroke-linecap="round"><g transform="translate(639.4706416366521 416.7836776172753) rotate(0 9.609897642619558 -0.04500854698039802)"><path d="M0.02 0.29 C3.12 0.34, 15.46 0.37, 18.69 0.31 M-0.64 -0.04 C2.61 -0.13, 16.35 -0.55, 19.66 -0.45" stroke="#000000" stroke-width="1" fill="none"></path></g><g transform="translate(639.4706416366521 416.7836776172753) rotate(0 9.609897642619558 -0.04500854698039802)"><path d="M10.64 2.88 C13.77 1.36, 16.75 0.95, 19.66 -0.45 M10.64 2.88 C13.27 1.78, 16.32 0.62, 19.66 -0.45" stroke="#000000" stroke-width="1" fill="none"></path></g><g transform="translate(639.4706416366521 416.7836776172753) rotate(0 9.609897642619558 -0.04500854698039802)"><path d="M10.61 -3.69 C13.75 -3.12, 16.74 -1.42, 19.66 -0.45 M10.61 -3.69 C13.22 -2.76, 16.28 -1.87, 19.66 -0.45" stroke="#000000" stroke-width="1" fill="none"></path></g></g><mask></mask><g stroke-linecap="round"><g transform="translate(620.3816480803298 385.3048203376429) rotate(0 0.022429222958464834 11.482752465341719)"><path d="M-0.53 0.4 C-0.48 4.19, 0.25 19.28, 0.27 23.02" stroke="#000000" stroke-width="1.5" fill="none" stroke-dasharray="1.5 7"></path></g></g><mask></mask><g stroke-linecap="round"><g transform="translate(704.2472015846297 387.4184070870724) rotate(0 0.0561572738259315 10.804682582143641)"><path d="M0.23 0.06 C0.26 3.57, -0.25 17.94, -0.34 21.5" stroke="#000000" stroke-width="1.5" fill="none" stroke-dasharray="1.5 7"></path></g></g><mask></mask><g transform="translate(612.7453823093322 355.13482144909267) rotate(0 6.80735417927724 5.5696534194087235)"><text x="6.807354179277257" y="0" font-family="Virgil, Segoe UI Emoji" font-size="8.251338399123933px" fill="#000000" text-anchor="middle" style="white-space: pre;" direction="ltr" dominant-baseline="text-before-edge">Key</text></g><g transform="translate(613.570516149241 409.79955428606354) rotate(0 6.80735417927724 5.5696534194087235)"><text x="6.807354179277257" y="0" font-family="Virgil, Segoe UI Emoji" font-size="8.251338399123933px" fill="#000000" text-anchor="middle" style="white-space: pre;" direction="ltr" dominant-baseline="text-before-edge">Key</text></g><g transform="translate(691.3129351695693 355.53424210511184) rotate(0 10.520456458883018 5.5696534194087235)"><text x="10.520456458883022" y="0" font-family="Virgil, Segoe UI Emoji" font-size="8.251338399123956px" fill="#000000" text-anchor="middle" style="white-space: pre;" direction="ltr" dominant-baseline="text-before-edge">Value</text></g><g transform="translate(690.9003682496184 410.76050302439853) rotate(0 10.520456458883018 5.5696534194087235)"><text x="10.520456458883022" y="0" font-family="Virgil, Segoe UI Emoji" font-size="8.251338399123956px" fill="#000000" text-anchor="middle" style="white-space: pre;" direction="ltr" dominant-baseline="text-before-edge">Value</text></g><g transform="translate(631.2861603798726 424.1263969522497) rotate(0 42.73302920219055 19.05294295639078)"><text x="42.73302920219057" y="0" font-family="Virgil, Segoe UI Emoji" font-size="30.014689246647976px" fill="#000000" text-anchor="middle" style="white-space: pre;" direction="ltr" dominant-baseline="text-before-edge">Cache</text></g><g transform="translate(259.9362702952669 166.3966383872098) rotate(0 40.07913334291891 25.322238370397827)"><text x="39.939964294433594" y="0" font-family="Virgil, Segoe UI Emoji" font-size="20px" fill="#1e1e1e" text-anchor="middle" style="white-space: pre;" direction="ltr" dominant-baseline="text-before-edge">Get</text><text x="39.939964294433594" y="25" font-family="Virgil, Segoe UI Emoji" font-size="20px" fill="#1e1e1e" text-anchor="middle" style="white-space: pre;" direction="ltr" dominant-baseline="text-before-edge">Request</text></g><g mask="url(#mask-6cQfNfMz43_d0M1nSfkzg)" stroke-linecap="round"><g transform="translate(674.6243429014891 120.86198241788634) rotate(0 11.681498386166709 107.06643255998233)"><path d="M0.14 -0.55 C1.58 17.77, 5.1 74.23, 9.06 110.02 C13.02 145.8, 21.37 196.98, 23.92 214.17 M-1.25 1.77 C0.54 19.74, 7.24 72.66, 11.35 108.28 C15.47 143.9, 21.15 197.93, 23.45 215.5" stroke="#1e1e1e" stroke-width="1" fill="none"></path></g><g transform="translate(674.6243429014891 120.86198241788634) rotate(0 11.681498386166709 107.06643255998233)"><path d="M10.4 22.24 C6.04 13.31, 4.75 7.96, 0.14 -0.55 M10.4 22.24 C6.69 14.35, 4.73 7.85, 0.14 -0.55" stroke="#1e1e1e" stroke-width="1" fill="none"></path></g><g transform="translate(674.6243429014891 120.86198241788634) rotate(0 11.681498386166709 107.06643255998233)"><path d="M-6.65 23.51 C-5.32 14.13, -0.92 8.36, 0.14 -0.55 M-6.65 23.51 C-5.21 15.38, -2.01 8.49, 0.14 -0.55" stroke="#1e1e1e" stroke-width="1" fill="none"></path></g><g transform="translate(674.6243429014891 120.86198241788634) rotate(0 11.681498386166709 107.06643255998233)"><path d="M12.21 193.17 C15.06 199.28, 20.95 209, 23.45 215.5 M12.21 193.17 C15.37 199.11, 19.93 206.27, 23.45 215.5" stroke="#1e1e1e" stroke-width="1" fill="none"></path></g><g transform="translate(674.6243429014891 120.86198241788634) rotate(0 11.681498386166709 107.06643255998233)"><path d="M29.19 191.17 C26.37 197.96, 26.6 208.35, 23.45 215.5 M29.19 191.17 C27.23 197.58, 26.65 205.34, 23.45 215.5" stroke="#1e1e1e" stroke-width="1" fill="none"></path></g></g><mask id="mask-6cQfNfMz43_d0M1nSfkzg"><rect x="0" y="0" fill="#fff" width="797.9873396738225" height="434.994847537851"></rect><rect x="677.6765862884484" y="217.64755905022093" fill="#000" width="13.6199951171875" height="25" opacity="1"></rect></mask><g transform="translate(677.6765862884484 217.64755905022093) rotate(0 8.283842684938577 10.687981091429265)"><text x="6.80999755859375" y="0" font-family="Virgil, Segoe UI Emoji" font-size="20px" fill="#1e1e1e" text-anchor="middle" style="white-space: pre;" direction="ltr" dominant-baseline="text-before-edge">3</text></g><g mask="url(#mask-gMiwhCEY4Ku_NQkedPOas)" stroke-linecap="round"><g transform="translate(889.7372538541957 75.26969600895086) rotate(0 -82.15303190717935 2.467706186089572)"><path d="M0.23 0.53 C-27.16 1.49, -137.05 3.93, -164.53 4.74 M-1.11 -0.23 C-28.67 1, -138.18 5.58, -165.6 6.18" stroke="#1e1e1e" stroke-width="1" fill="none"></path></g><g transform="translate(889.7372538541957 75.26969600895086) rotate(0 -82.15303190717935 2.467706186089572)"><path d="M-23.03 9.68 C-15.4 6.64, -9.93 3.8, 0.23 0.53 M-23.03 9.68 C-14.52 6.35, -6.41 3.17, 0.23 0.53" stroke="#1e1e1e" stroke-width="1" fill="none"></path></g><g transform="translate(889.7372538541957 75.26969600895086) rotate(0 -82.15303190717935 2.467706186089572)"><path d="M-23.47 -7.42 C-15.85 -5.56, -10.26 -3.49, 0.23 0.53 M-23.47 -7.42 C-14.89 -4.9, -6.63 -2.24, 0.23 0.53" stroke="#1e1e1e" stroke-width="1" fill="none"></path></g><g transform="translate(889.7372538541957 75.26969600895086) rotate(0 -82.15303190717935 2.467706186089572)"><path d="M-142.4 -3.15 C-148.25 -0.8, -156.11 1.67, -165.6 6.18 M-142.4 -3.15 C-149.85 -0.59, -157.61 2.54, -165.6 6.18" stroke="#1e1e1e" stroke-width="1" fill="none"></path></g><g transform="translate(889.7372538541957 75.26969600895086) rotate(0 -82.15303190717935 2.467706186089572)"><path d="M-141.83 13.94 C-147.7 11.39, -155.72 8.95, -165.6 6.18 M-141.83 13.94 C-149.39 10.66, -157.35 7.95, -165.6 6.18" stroke="#1e1e1e" stroke-width="1" fill="none"></path></g></g><mask id="mask-gMiwhCEY4Ku_NQkedPOas"><rect x="0" y="0" fill="#fff" width="1154.0433176685544" height="180.20510838113"></rect><rect x="801.184228050532" y="65.23740219504066" fill="#000" width="12.79998779296875" height="25" opacity="1"></rect></mask><g mask="url(#mask-9Z4HvwqV50KKTIUuzqlU6)" stroke-linecap="round"><g transform="translate(417.9447305839095 293.9175790856916) rotate(0 -117.7816715592466 0.8072408829314099)"><path d="M0.96 -1.15 C-38.64 -1.2, -197.08 0.05, -236.55 0.68 M0 0.86 C-39.33 1.46, -194.89 1.73, -234.35 1.73" stroke="#1e1e1e" stroke-width="1" fill="none"></path></g><g transform="translate(417.9447305839095 293.9175790856916) rotate(0 -117.7816715592466 0.8072408829314099)"><path d="M-210.87 -6.85 C-221.83 -4.98, -230.59 -0.51, -234.35 1.73 M-210.87 -6.85 C-220.42 -2.91, -228.54 -1.21, -234.35 1.73" stroke="#1e1e1e" stroke-width="1" fill="none"></path></g><g transform="translate(417.9447305839095 293.9175790856916) rotate(0 -117.7816715592466 0.8072408829314099)"><path d="M-210.85 10.25 C-221.96 5.49, -230.73 3.31, -234.35 1.73 M-210.85 10.25 C-220.25 7.62, -228.38 2.74, -234.35 1.73" stroke="#1e1e1e" stroke-width="1" fill="none"></path></g></g><mask id="mask-9Z4HvwqV50KKTIUuzqlU6"><rect x="0" y="0" fill="#fff" width="753.5080737024027" height="395.53206085155443"></rect><rect x="222.33311059937" y="282.2248199686228" fill="#000" width="155.65989685058594" height="25" opacity="1"></rect></mask><g transform="translate(222.33311059937 282.2248199686228) rotate(0 77.81655236482612 11.981278303972658)"><text x="77.82994842529297" y="0" font-family="Virgil, Segoe UI Emoji" font-size="20px" fill="#1e1e1e" text-anchor="middle" style="white-space: pre;" direction="ltr" dominant-baseline="text-before-edge">Return Long Url</text></g><g transform="translate(801.1842280505319 65.23740219504066) rotate(0 5.87062676828819 13.006122405892256)"><text x="6.399993896484375" y="0" font-family="Virgil, Segoe UI Emoji" font-size="20px" fill="#1e1e1e" text-anchor="middle" style="white-space: pre;" direction="ltr" dominant-baseline="text-before-edge">4</text></g></svg>
