<?xml version="1.0" standalone="no"?>
<!DOCTYPE svg PUBLIC "-//W3C//DTD SVG 20010904//EN"
 "http://www.w3.org/TR/2001/REC-SVG-20010904/DTD/svg10.dtd">
<svg version="1.0" xmlns="http://www.w3.org/2000/svg"
 width="300.000000pt" height="300.000000pt" viewBox="0 0 300.000000 300.000000"
 preserveAspectRatio="xMidYMid meet">
<metadata>
Created by potrace 1.10, written by Peter Selinger 2001-2011
</metadata>
<g transform="translate(0.000000,300.000000) scale(0.100000,-0.100000)"
fill="#000000" stroke="none">
<path d="M1224 2280 c0 -91 2 -128 3 -82 2 45 2 119 0 165 -1 45 -3 8 -3 -83z"/>
<path d="M1367 2383 c-9 -8 -9 -216 -1 -237 5 -14 35 -16 228 -16 l223 0 46
-36 c50 -39 67 -38 67 6 0 15 7 30 15 34 12 4 15 29 15 131 l0 125 -293 0
c-162 0 -297 -3 -300 -7z m583 -123 c0 -100 -2 -120 -15 -120 -10 0 -15 -10
-15 -30 0 -38 -15 -38 -60 0 l-34 30 -223 0 -223 0 0 120 0 120 285 0 285 0 0
-120z"/>
<path d="M1402 2318 c6 -16 516 -19 521 -3 1 6 -92 11 -261 13 -209 2 -263 0
-260 -10z"/>
<path d="M1460 2260 c0 -6 32 -10 75 -10 43 0 75 4 75 10 0 6 -32 10 -75 10
-43 0 -75 -4 -75 -10z"/>
<path d="M1640 2260 c0 -6 55 -10 145 -10 90 0 145 4 145 10 0 6 -55 10 -145
10 -90 0 -145 -4 -145 -10z"/>
<path d="M1510 2205 c0 -13 26 -15 208 -13 129 2 207 7 207 13 0 6 -78 11
-207 13 -182 2 -208 0 -208 -13z"/>
<path d="M2556 2244 c-11 -28 -7 -734 4 -734 6 0 10 132 10 375 0 206 -2 375
-4 375 -2 0 -7 -7 -10 -16z"/>
<path d="M1052 2078 c-7 -7 -11 -23 -11 -37 1 -24 2 -24 8 4 6 29 8 30 76 36
l70 5 -65 2 c-40 1 -71 -3 -78 -10z"/>
<path d="M1070 2062 c-6 -2 -10 -51 -10 -124 0 -107 2 -120 18 -125 14 -3 17
-12 14 -34 -6 -38 15 -38 59 -1 l33 27 230 5 231 5 0 125 0 125 -282 0 c-156
0 -287 -1 -293 -3z m548 -60 c3 -21 0 -23 -37 -21 -22 2 -38 6 -35 10 2 4 -3
9 -11 13 -33 12 -14 27 33 24 40 -3 47 -6 50 -26z m-328 -7 c0 -13 -15 -15
-97 -13 -66 2 -98 7 -101 16 -3 9 21 12 97 12 84 0 101 -3 101 -15z m220 0 c0
-12 -17 -15 -94 -15 -87 0 -116 7 -99 24 3 3 48 6 100 6 76 0 93 -3 93 -15z
m108 -57 c-4 -10 -65 -13 -263 -13 -198 0 -259 3 -262 13 -4 9 53 12 262 12
209 0 266 -3 263 -12z m-108 -53 c0 -13 -30 -15 -210 -15 -192 0 -223 4 -203
23 3 4 98 7 210 7 174 0 203 -2 203 -15z m104 -1 c10 -26 -13 -44 -55 -44 -45
0 -52 19 -16 43 29 21 63 21 71 1z"/>
<path d="M715 1929 c-24 -20 -26 -26 -20 -66 5 -35 3 -49 -10 -63 -10 -11 -14
-24 -9 -31 4 -7 3 -10 -4 -5 -7 4 -9 -6 -7 -31 4 -31 3 -34 -4 -13 -9 25 -9
25 -10 2 -2 -35 39 -68 98 -81 29 -6 58 -11 66 -11 35 0 120 120 95 135 -5 3
-7 12 -4 19 3 8 1 17 -5 21 -6 3 -11 22 -11 41 0 50 -13 69 -60 88 -54 21 -82
20 -115 -5z m117 -46 c10 -9 15 -20 12 -25 -4 -6 -10 -6 -17 1 -6 6 -26 11
-43 11 -36 0 -54 17 -33 31 18 12 59 2 81 -18z m-3 -49 c2 -2 -2 -10 -9 -19
-13 -16 -48 -19 -87 -9 -25 7 -31 29 -10 37 12 5 98 -3 106 -9z m51 -77 l0
-31 -21 21 c-24 24 -20 56 6 47 9 -4 15 -18 15 -37z m-47 6 c2 -10 8 -26 12
-35 4 -10 -1 -24 -15 -38 -17 -17 -28 -19 -58 -14 -36 6 -72 29 -72 45 0 4 4
19 10 33 9 24 15 26 64 26 43 0 55 -4 59 -17z"/>
<path d="M2076 1891 c-3 -5 -15 -7 -26 -4 -14 4 -20 0 -20 -11 0 -9 -4 -16 -9
-16 -13 0 -12 -78 1 -86 7 -5 9 -2 6 8 -10 26 6 42 30 29 14 -7 23 -8 27 -1 3
5 15 10 27 10 17 0 19 -4 14 -25 -5 -21 -2 -27 21 -36 22 -8 30 -7 40 7 19 26
11 96 -10 95 -24 -2 -67 13 -71 25 -6 16 -22 18 -30 5z"/>
<path d="M1224 1655 c0 -55 1 -76 3 -47 2 29 2 74 0 100 -2 26 -3 2 -3 -53z"/>
<path d="M2010 1733 c0 -16 37 -59 45 -52 3 4 -5 19 -19 34 -15 16 -26 23 -26
18z"/>
<path d="M2014 1611 c-47 -12 -52 -18 -70 -79 -21 -72 -58 -157 -73 -166 -6
-4 -45 11 -86 33 -54 29 -75 36 -75 26 0 -8 -5 -15 -12 -15 -17 0 101 -90 139
-106 45 -19 51 -18 84 17 l29 31 0 -36 0 -36 -375 0 -375 0 21 21 c12 12 18
27 14 38 -3 10 4 47 15 82 11 35 20 65 20 67 0 1 -39 1 -87 0 l-87 -3 -18 -60
c-10 -33 -16 -64 -15 -70 2 -5 12 21 23 58 l19 67 72 0 c40 0 73 -3 73 -7 0
-5 -8 -34 -18 -66 -16 -49 -24 -60 -58 -77 -32 -17 -50 -19 -97 -14 -68 8 -85
21 -93 75 -7 39 -7 39 -45 33 -26 -4 -39 -3 -39 5 0 6 11 11 24 11 57 0 69 28
45 99 -17 49 -52 61 -173 61 -95 0 -107 -2 -126 -22 -11 -12 -20 -30 -20 -39
0 -10 -2 -24 -6 -32 -3 -8 6 -21 21 -31 l25 -17 -6 38 c-5 31 -2 42 16 58 18
17 36 20 104 20 46 -1 91 -6 104 -14 46 -25 50 -94 6 -105 -26 -7 -32 -33 -10
-42 13 -5 40 -63 33 -70 -2 -2 -23 6 -47 19 -34 16 -63 22 -122 22 -67 0 -78
2 -79 18 -1 9 -2 22 -3 28 0 6 -11 18 -24 27 -22 14 -22 14 -22 -39 l0 -54 97
0 c74 0 110 -5 148 -20 28 -10 52 -20 55 -20 3 0 17 -12 33 -27 l27 -26 258
-7 c141 -4 355 -5 475 -2 122 4 217 2 217 -3 0 -4 3 -15 6 -24 5 -13 -1 -16
-29 -16 -58 0 -182 -27 -225 -49 -59 -30 -72 -54 -72 -131 0 -36 -7 -146 -15
-245 -8 -99 -15 -182 -15 -184 0 -2 -22 -1 -50 3 -28 4 -50 3 -50 -2 0 -5 31
-26 69 -46 l69 -36 16 52 c36 126 75 289 87 366 7 45 15 82 18 82 3 0 18 -46
33 -102 15 -57 35 -130 44 -163 20 -73 13 -215 -12 -215 -8 0 -14 -7 -14 -15
0 -12 15 -15 75 -15 54 0 75 4 75 13 0 7 -16 116 -35 242 -19 127 -35 239 -35
251 0 19 5 20 52 16 45 -4 50 -2 45 13 -4 9 -8 47 -8 83 l-2 67 -10 -67 c-8
-60 -12 -68 -31 -68 -12 0 -32 -7 -45 -16 -20 -14 -22 -22 -18 -63 21 -183 27
-240 26 -266 0 -16 3 -46 6 -65 7 -33 6 -34 -9 -15 -15 20 -15 20 -16 0 0 -29
12 -44 34 -42 10 1 21 -4 23 -10 3 -9 -5 -13 -24 -13 -16 0 -35 -6 -42 -13
-14 -12 -13 10 5 111 4 23 -3 57 -20 105 -14 40 -37 111 -51 159 -14 48 -30
90 -35 93 -6 3 -10 16 -11 28 0 28 -37 -81 -50 -148 -27 -150 -33 -165 -64
-165 -5 0 -3 5 5 10 10 6 11 10 3 10 -9 0 -11 13 -8 43 2 23 7 93 9 156 4 77
10 121 21 137 19 30 78 58 104 49 11 -3 36 2 58 13 21 11 62 25 91 32 44 10
52 15 52 36 0 12 -8 28 -17 33 -19 11 -3 12 132 12 82 0 85 0 85 -11 0 -5 -13
-10 -30 -10 -23 0 -30 -4 -30 -20 0 -17 7 -20 40 -20 l40 0 0 48 c0 48 0 49
30 44 49 -7 63 13 56 78 -7 60 -43 188 -57 206 -20 24 -81 22 -128 -5 -25 -14
-47 -29 -49 -33 -8 -18 -22 -6 -22 18 0 14 4 23 9 20 5 -3 11 1 15 9 6 16 5
16 -40 6z m140 -24 c-2 -7 -18 -21 -33 -30 -25 -14 -30 -15 -35 -2 -3 9 5 20
22 29 35 18 53 19 46 3z m69 -87 c16 -55 23 -113 10 -82 -9 24 -19 12 -15 -19
3 -22 1 -30 -7 -25 -6 4 -11 14 -11 22 0 8 -5 12 -10 9 -18 -11 9 -48 31 -42
10 3 22 1 25 -4 3 -5 -6 -9 -21 -9 -14 0 -28 -7 -31 -15 -8 -21 -40 -28 -114
-26 -82 2 -89 5 -122 45 l-27 33 31 82 c28 73 34 82 52 76 75 -23 86 -23 129
0 23 12 47 20 53 18 6 -2 18 -31 27 -63z"/>
<path d="M2031 1489 c-26 -25 -22 -60 11 -96 32 -34 56 -38 83 -13 20 19 22
26 13 50 -12 35 -52 80 -71 80 -7 0 -23 -10 -36 -21z m44 -15 c34 -13 57 -94
26 -94 -17 0 -64 69 -57 85 6 17 8 17 31 9z"/>
<path d="M1627 1446 c-6 -15 11 -36 30 -36 8 0 10 7 6 18 -6 15 -5 15 10 3 15
-11 17 -11 17 2 0 8 -10 17 -22 21 -32 8 -35 8 -41 -8z"/>
<path d="M585 1331 c-42 -25 -65 -53 -81 -98 -18 -53 -17 -93 5 -160 11 -32
27 -103 36 -158 9 -55 21 -105 27 -112 6 -7 22 -13 37 -13 l26 1 -27 16 c-28
18 -41 56 -54 158 -3 28 -14 76 -25 108 -10 31 -19 70 -19 87 0 51 30 109 79
150 48 42 47 53 -4 21z"/>
<path d="M2320 1332 c0 -4 14 -21 31 -38 60 -56 72 -114 40 -205 -10 -31 -22
-80 -27 -110 -4 -30 -8 -58 -9 -64 -1 -5 -3 -18 -3 -28 -1 -10 -13 -29 -27
-42 -22 -23 -22 -25 -5 -25 27 0 35 21 55 139 10 57 24 119 31 137 28 66 13
153 -35 207 -19 23 -51 41 -51 29z"/>
<path d="M2475 1293 c22 -3 43 -10 47 -16 5 -8 8 -6 8 6 0 14 -8 17 -47 15
-48 -1 -48 -1 -8 -5z"/>
<path d="M2010 1240 c0 -16 7 -20 35 -20 28 0 35 4 35 20 0 16 -7 20 -35 20
-28 0 -35 -4 -35 -20z"/>
<path d="M1037 1229 c12 -14 29 -41 38 -62 l15 -37 100 0 c55 0 100 2 100 5 0
2 -7 22 -16 43 -20 52 -49 64 -164 70 l-95 4 22 -23z m153 -27 c45 -22 41 -37
-12 -38 -51 -2 -74 8 -81 36 -4 17 0 20 26 20 18 0 48 -8 67 -18z"/>
<path d="M2180 1190 c-13 -25 -36 -26 -49 -2 -9 14 -10 11 -11 -15 0 -32 1
-33 40 -33 39 0 40 1 40 35 0 40 -5 44 -20 15z"/>
<path d="M2020 1172 c0 -29 3 -32 30 -32 27 0 30 3 30 33 -1 31 -1 31 -16 12
-15 -20 -15 -20 -30 -1 -13 19 -14 18 -14 -12z"/>
<path d="M2095 1055 c2 -38 9 -167 15 -285 12 -230 16 -268 30 -254 4 5 2 119
-5 254 -8 135 -14 270 -15 300 0 35 -3 50 -9 41 -7 -11 -10 -11 -15 0 -3 8 -4
-17 -1 -56z"/>
<path d="M1320 1013 c-1 -21 -5 -58 -10 -83 -8 -44 -8 -46 39 -95 26 -27 51
-57 57 -66 11 -18 77 -69 90 -69 5 0 -2 9 -16 20 l-25 20 36 0 c25 0 43 8 62
28 15 15 27 31 27 34 0 3 -20 3 -44 1 -82 -10 -87 -5 -150 127 -31 66 -59 120
-61 120 -3 0 -5 -17 -5 -37z"/>
<path d="M2005 1009 c-12 -67 15 -491 30 -487 6 2 9 26 8 53 -7 155 -26 475
-29 475 -1 0 -5 -18 -9 -41z"/>
<path d="M1780 798 c-1 -13 -7 -75 -14 -138 -7 -63 -10 -119 -5 -124 10 -11
15 10 34 154 18 139 18 130 0 130 -9 0 -15 -9 -15 -22z"/>
<path d="M2170 812 c0 -15 30 -237 36 -261 3 -13 9 -20 13 -15 5 5 2 61 -5
124 -7 63 -13 125 -14 138 0 20 -30 34 -30 14z"/>
<path d="M2250 813 c0 -5 9 -66 20 -138 11 -71 20 -134 20 -140 0 -6 3 -6 9 0
6 6 5 60 -4 145 -8 74 -15 136 -15 138 0 1 -7 2 -15 2 -8 0 -15 -3 -15 -7z"/>
<path d="M940 800 c-18 -6 -7 -8 40 -8 45 -1 59 2 45 8 -25 11 -52 11 -85 0z"/>
<path d="M802 792 c-13 -9 -33 -270 -20 -278 13 -8 16 11 23 144 l8 132 38 0
39 0 -6 -142 c-5 -107 -4 -140 5 -132 6 6 14 64 18 138 5 104 4 129 -8 137
-17 11 -80 11 -97 1z"/>
<path d="M640 778 c0 -7 -7 -74 -15 -148 -13 -126 -13 -151 1 -138 5 6 43 247
44 281 0 9 -7 17 -15 17 -8 0 -15 -6 -15 -12z"/>
<path d="M726 758 c-3 -18 -11 -84 -17 -146 -10 -101 -8 -135 5 -121 3 3 46
277 46 295 0 2 -7 4 -15 4 -8 0 -16 -13 -19 -32z"/>
<path d="M1050 781 c0 -24 41 -285 45 -290 14 -13 15 17 5 111 -19 180 -20
188 -36 188 -8 0 -14 -4 -14 -9z"/>
<path d="M1140 773 c1 -39 38 -274 44 -280 13 -13 13 4 1 96 -10 78 -9 91 2
75 7 -10 13 -41 14 -68 0 -28 5 -60 10 -71 6 -15 7 -11 3 15 l-7 35 31 -33
c25 -26 38 -32 72 -32 25 0 39 4 35 10 -3 6 -12 10 -19 10 -27 0 -67 80 -82
163 -7 45 -14 85 -14 90 0 4 -20 7 -45 7 -36 0 -45 -3 -45 -17z"/>
</g>
</svg>
