<?xml version="1.0" standalone="no"?>
<!DOCTYPE svg PUBLIC "-//W3C//DTD SVG 20010904//EN"
 "http://www.w3.org/TR/2001/REC-SVG-20010904/DTD/svg10.dtd">
<svg version="1.0" xmlns="http://www.w3.org/2000/svg"
 width="300.000000pt" height="200.000000pt" viewBox="0 0 300.000000 200.000000"
 preserveAspectRatio="xMidYMid meet">
<metadata>
Created by potrace 1.10, written by Peter Selinger 2001-2011
</metadata>
<g transform="translate(0.000000,200.000000) scale(0.100000,-0.100000)"
fill="#000000" stroke="none">
<path d="M836 1918 c1 -46 -3 -89 -9 -96 -8 -10 -7 -16 4 -23 17 -11 34 -6 33
9 -1 7 -2 53 -2 102 -2 65 -6 90 -14 90 -10 0 -13 -22 -12 -82z"/>
<path d="M2165 1993 c22 -2 182 -4 355 -6 302 -2 315 -3 312 -21 -3 -17 -1
-17 35 4 21 13 40 25 42 27 2 2 -173 2 -390 1 -217 -1 -376 -3 -354 -5z"/>
<path d="M2943 1924 c-29 -14 -62 -37 -73 -52 -65 -83 -80 -106 -75 -110 2 -3
15 8 27 24 40 50 71 76 126 101 36 17 52 30 52 44 0 10 -1 19 -2 19 -2 -1 -27
-12 -55 -26z"/>
<path d="M1796 1894 c-3 -9 -6 -17 -6 -19 0 -6 129 -15 235 -16 125 -2 235 9
214 22 -24 13 -202 29 -323 29 -95 0 -115 -3 -120 -16z"/>
<path d="M1930 1821 c8 -6 25 -11 37 -11 12 0 29 -10 37 -22 9 -12 16 -17 16
-11 0 18 -29 43 -50 43 -10 0 -27 3 -37 6 -15 5 -15 4 -3 -5z"/>
<path d="M940 1807 c0 -8 17 -13 48 -14 26 0 38 1 27 4 -11 2 -32 8 -47 13
-20 7 -28 6 -28 -3z"/>
<path d="M1841 1813 c15 -4 26 -20 46 -72 12 -33 69 -38 77 -8 6 25 -9 37 -46
37 -32 0 -44 15 -28 35 11 13 7 15 -26 14 -22 -1 -32 -3 -23 -6z"/>
<path d="M1090 1780 c30 -5 75 -12 100 -15 25 -3 72 -10 105 -15 88 -13 255
-31 308 -32 26 0 51 -6 56 -12 4 -6 11 -49 15 -96 4 -47 9 -106 13 -131 4 -39
2 -49 -17 -67 -20 -19 -21 -24 -11 -50 10 -23 9 -34 -4 -58 -15 -28 -15 -30
17 -56 23 -20 43 -28 72 -28 55 0 168 -20 184 -33 17 -14 85 -10 187 9 78 15
120 34 80 34 -19 1 -19 1 -2 11 11 6 26 12 35 14 17 3 18 27 1 33 -13 5 -11
39 3 62 17 26 8 32 -37 22 -44 -9 -56 -27 -25 -35 31 -8 22 -48 -15 -67 -16
-8 -33 -19 -37 -25 -4 -5 -8 -7 -8 -2 0 4 -14 0 -32 -9 -26 -13 -49 -15 -122
-10 -50 3 -103 8 -118 10 -123 19 -132 25 -141 94 -4 32 -1 44 11 51 12 7 13
12 5 23 -6 7 -9 27 -6 43 7 52 7 68 0 140 -12 117 -17 133 -40 139 -12 3 -107
15 -212 26 -104 11 -208 22 -230 25 -22 2 -74 7 -115 9 -71 5 -72 4 -20 -4z"/>
<path d="M421 1660 c-18 -4 -58 -7 -87 -6 -30 1 -59 -1 -66 -6 -7 -4 33 -8 90
-8 84 0 102 3 102 15 0 8 -1 15 -2 14 -2 -1 -18 -5 -37 -9z"/>
<path d="M550 1654 c0 -4 11 -17 25 -30 29 -27 30 -31 9 -72 -8 -18 -13 -36
-10 -41 3 -5 0 -14 -8 -20 -18 -15 -391 -16 -446 -1 -37 10 -44 9 -55 -7 -18
-25 -2 -33 89 -44 91 -12 99 -12 171 2 49 9 80 8 165 -5 58 -9 155 -23 215
-31 61 -8 139 -20 175 -26 137 -23 127 -22 106 -5 -11 9 -39 16 -62 16 -24 0
-55 5 -71 11 -15 7 -41 11 -57 10 -15 -1 -34 3 -40 8 -6 6 -45 11 -85 13 l-74
3 -2 34 c-2 20 3 41 11 48 8 8 14 25 14 37 0 13 7 39 15 59 8 19 11 37 8 41
-8 8 -93 8 -93 0z"/>
<path d="M2270 1639 c0 -12 21 -15 177 -34 156 -18 166 -18 158 -5 -4 6 -18
10 -33 9 -15 -1 -47 1 -72 4 -25 3 -72 9 -105 12 -33 3 -75 10 -92 15 -19 5
-33 5 -33 -1z"/>
<path d="M2698 1614 c-7 -6 -33 -12 -61 -13 -38 -2 -4 -20 46 -25 193 -19 275
-28 295 -33 16 -4 22 -1 22 11 0 10 -9 16 -25 17 -14 1 -28 2 -32 3 -5 1 -48
6 -98 10 -49 4 -100 14 -112 22 -25 16 -27 16 -35 8z"/>
<path d="M2203 1528 c-12 -85 -2 -99 13 -18 16 81 16 80 5 80 -5 0 -13 -28
-18 -62z"/>
<path d="M1557 1470 c-3 -13 -1 -18 6 -13 7 4 8 0 4 -11 -4 -10 -7 -22 -7 -27
0 -5 -5 -9 -11 -9 -6 0 -9 7 -5 15 3 8 4 15 1 15 -8 0 -43 -56 -49 -80 -5 -17
-4 -21 2 -11 6 8 12 9 16 3 9 -16 -5 -43 -21 -40 -10 2 -30 -32 -62 -107 -27
-60 -65 -145 -84 -188 -31 -67 -34 -79 -20 -84 9 -4 19 1 25 10 11 21 40 23
32 2 -4 -8 -1 -15 5 -15 6 0 12 3 12 8 1 4 3 16 4 27 5 38 44 115 58 115 8 0
33 38 56 86 43 90 47 104 31 104 -5 0 -10 -4 -10 -9 0 -16 -61 -143 -67 -138
-4 5 60 157 75 177 2 2 7 -2 12 -9 6 -10 8 -7 8 10 -1 13 7 51 16 84 31 106
31 105 3 105 -16 0 -26 -7 -30 -20z"/>
<path d="M0 1365 c0 -68 3 -95 10 -85 5 8 10 23 10 33 0 9 5 17 10 17 6 0 10
7 10 16 0 8 -4 12 -10 9 -14 -9 -12 9 2 23 8 8 9 15 3 20 -6 4 -11 14 -13 22
-2 8 -7 21 -12 30 -6 9 -9 -21 -10 -85z"/>
<path d="M1020 1361 c21 -12 120 -25 100 -13 -8 5 -37 12 -65 15 -31 4 -44 3
-35 -2z"/>
<path d="M30 1231 c0 -16 4 -31 9 -33 6 -1 13 -19 16 -38 9 -53 25 -61 25 -13
0 23 -5 45 -10 48 -6 4 -8 10 -5 15 7 12 -12 50 -25 50 -6 0 -10 -13 -10 -29z"/>
<path d="M1723 1163 c-26 -5 -30 -30 -10 -55 18 -24 671 -308 960 -418 126
-48 144 -52 194 -46 l54 6 -3 -32 c-4 -45 -37 -60 -98 -47 -39 9 -176 64 -415
166 -33 15 -75 35 -92 45 -18 10 -50 27 -70 39 -21 12 -45 27 -53 34 -9 8 -38
19 -65 25 -28 6 -99 35 -160 64 -60 29 -131 61 -157 71 -27 10 -58 28 -71 41
l-23 22 1 -29 c0 -28 6 -32 105 -75 58 -24 122 -50 143 -56 39 -12 44 -17 26
-35 -7 -7 22 -14 95 -23 101 -13 120 -20 94 -36 -13 -8 65 -43 100 -43 12 -1
22 -5 22 -9 0 -5 -57 -44 -127 -87 -71 -43 -132 -84 -138 -90 -5 -7 -57 -39
-115 -72 -58 -33 -114 -66 -126 -73 -12 -7 -32 -10 -47 -6 -23 5 -26 11 -29
66 -1 33 0 60 3 60 4 0 14 16 24 36 16 35 16 36 -11 76 -28 39 -28 41 -11 70
9 16 17 44 17 61 0 26 -6 35 -31 46 -41 18 -56 3 -29 -29 24 -28 25 -34 4 -55
-13 -12 -14 -19 -4 -30 7 -8 9 -15 5 -15 -4 0 -1 -10 7 -22 8 -13 17 -44 20
-70 6 -52 -7 -73 -37 -61 -16 6 -15 7 6 15 23 9 23 10 5 23 -10 8 -15 18 -11
24 3 6 1 11 -5 11 -6 0 -9 4 -6 9 4 5 -3 7 -15 4 -16 -5 -20 -2 -17 13 2 11
-2 18 -9 17 -6 -1 -10 5 -9 14 2 9 -8 27 -22 40 -14 13 -22 23 -18 23 4 0 -2
9 -12 20 -12 13 -25 18 -36 14 -12 -4 -15 -2 -11 9 5 12 -12 27 -31 26 -3 0
-14 10 -25 22 -10 12 -19 18 -19 13 0 -5 -7 -1 -14 9 -8 10 -20 15 -29 11 -13
-5 -14 -9 -4 -18 6 -7 20 -15 30 -19 11 -4 21 -16 24 -26 3 -13 11 -17 24 -14
13 4 19 0 19 -11 0 -9 4 -16 9 -16 16 0 76 -65 96 -105 11 -22 28 -48 38 -59
10 -10 16 -25 13 -33 -4 -8 3 -22 16 -32 16 -13 22 -32 26 -77 2 -32 2 -56 -2
-53 -3 3 -7 25 -8 48 -1 23 -4 37 -8 31 -4 -6 -6 -21 -5 -33 1 -12 -3 -25 -9
-29 -8 -5 -7 -8 2 -8 6 0 12 -7 12 -16 0 -8 -4 -13 -9 -10 -8 6 -21 -15 -21
-35 0 -16 16 -9 47 21 25 24 37 29 57 24 26 -6 96 22 230 93 50 27 202 129
270 183 43 34 55 36 94 16 15 -8 72 -30 128 -49 94 -33 261 -105 294 -127 35
-23 68 -31 108 -25 31 5 42 3 42 -7 1 -7 9 -3 20 11 11 13 26 21 34 18 7 -3
19 0 25 6 14 14 14 47 0 47 -6 0 -9 8 -5 18 4 11 0 9 -10 -6 -19 -26 -49 -31
-40 -6 3 9 6 26 6 39 0 18 6 24 27 27 18 2 29 10 31 22 3 11 0 16 -7 12 -6 -4
-14 0 -17 8 -8 20 -24 21 -24 2 0 -23 -22 -31 -35 -13 -16 22 -27 22 -23 0 11
-66 -302 43 -941 327 -101 45 -195 86 -207 91 -13 4 -24 15 -24 24 0 12 13 15
63 15 34 0 69 5 77 10 15 10 -90 12 -137 3z"/>
<path d="M76 1048 c-5 -10 -6 -25 -2 -33 3 -8 1 -15 -3 -15 -5 0 -12 -8 -15
-17 -6 -15 -3 -14 14 3 15 15 20 30 18 50 -3 24 -6 26 -12 12z"/>
<path d="M1547 1016 c-9 -9 -26 -16 -39 -16 -32 -1 -61 -23 -46 -38 6 -6 17
-8 24 -5 8 3 25 -2 39 -11 13 -9 26 -12 30 -7 3 5 -1 11 -7 13 -8 3 -4 9 10
17 28 15 31 13 38 -25 5 -30 20 -51 28 -43 9 8 10 73 2 97 -4 12 -13 22 -21
22 -7 0 -20 3 -28 6 -8 3 -21 -2 -30 -10z"/>
<path d="M1070 902 c-33 -49 -37 -61 -14 -41 28 25 80 49 104 49 11 0 20 4 20
9 0 5 -11 8 -25 6 -14 -1 -25 1 -25 4 0 4 -8 7 -18 8 -10 1 -28 -14 -42 -35z"/>
<path d="M1190 921 c0 -7 18 -11 43 -10 23 1 60 -6 82 -14 35 -13 44 -13 60
-1 14 11 15 14 4 16 -8 0 -25 3 -39 4 -104 13 -150 14 -150 5z"/>
<path d="M1186 885 c-15 -11 -23 -12 -33 -3 -20 17 -25 4 -10 -26 l14 -26 16
22 c8 13 18 20 21 17 9 -9 -5 -40 -15 -33 -5 3 -9 0 -9 -6 0 -8 -7 -9 -17 -5
-10 4 -27 8 -38 7 -11 0 -14 2 -7 5 6 3 12 11 12 18 0 16 -32 13 -38 -3 -2 -7
-17 -12 -32 -12 -16 0 -32 -5 -36 -11 -4 -7 0 -9 14 -5 11 4 23 2 26 -3 4 -6
-8 -8 -29 -6 -30 3 -39 -2 -59 -28 -13 -18 -33 -51 -44 -73 l-21 -42 42 13
c34 10 42 17 43 36 2 44 4 50 14 44 6 -4 10 -16 8 -27 -3 -20 2 -21 103 -24
59 -1 117 -8 129 -14 18 -10 24 -9 31 1 10 17 -40 40 -73 32 -23 -4 -23 -4 -3
12 20 17 19 17 -9 12 -38 -6 -64 2 -44 14 9 6 9 9 1 9 -7 0 -21 -10 -33 -22
-14 -15 -20 -18 -20 -7 0 12 -2 12 -10 -1 -7 -11 -10 -12 -10 -2 0 10 -5 8
-17 -4 -17 -17 -18 -17 -21 1 -2 9 1 21 8 25 8 5 7 9 -5 13 -9 4 -13 3 -10 -3
3 -6 1 -10 -5 -10 -7 0 -10 6 -8 13 3 6 17 12 33 12 16 1 30 5 32 10 2 6 34 8
76 5 66 -4 76 -8 100 -35 27 -30 27 -30 23 -5 -3 14 -5 31 -5 39 -1 7 -7 11
-15 8 -17 -7 -28 16 -19 41 6 15 5 15 -10 3 -15 -12 -17 -12 -11 2 3 9 11 18
17 20 7 2 1 2 -11 0 -15 -2 -21 0 -17 7 8 13 4 12 -19 -5z"/>
<path d="M1259 885 c0 -5 -2 -20 -3 -31 -2 -22 15 -27 31 -9 4 4 1 5 -7 0 -13
-7 -13 -6 -2 6 11 12 15 12 25 -2 7 -9 18 -14 26 -11 10 3 11 -2 6 -19 -7 -21
-6 -22 8 -11 13 11 19 10 34 -7 23 -28 48 -29 33 -2 -7 14 -6 21 2 23 7 3 5 7
-6 11 -10 4 -15 3 -11 -3 3 -6 -1 -10 -10 -10 -10 0 -13 5 -9 12 4 6 3 8 -3 5
-6 -4 -14 0 -17 9 -3 8 -10 13 -15 10 -5 -4 -11 -1 -13 4 -2 6 -14 12 -28 12
-14 1 -28 7 -32 13 -5 6 -8 6 -9 0z"/>
<path d="M1608 845 c2 -14 11 -25 18 -25 20 0 17 28 -5 39 -16 9 -17 7 -13
-14z"/>
<path d="M1287 783 c6 -42 21 -57 39 -42 9 7 16 4 25 -13 13 -24 47 -53 63
-53 5 0 12 -9 17 -20 4 -11 8 -15 9 -10 2 6 5 -3 9 -20 4 -21 13 -31 29 -33
14 -2 22 -9 19 -16 -6 -15 42 -63 68 -68 30 -5 27 16 -5 30 -29 13 -41 32 -20
32 6 0 10 7 10 15 0 8 -9 15 -20 15 -13 0 -18 5 -14 15 4 10 0 13 -16 10 -20
-4 -22 -1 -16 26 4 21 2 28 -6 23 -7 -5 -9 1 -4 20 7 30 0 33 -27 9 -19 -17
-20 -17 -14 0 4 11 3 16 -3 12 -13 -8 -13 1 0 26 13 23 40 26 40 4 0 -8 7 -15
15 -15 9 0 12 6 9 15 -4 8 -10 15 -15 15 -5 0 -9 6 -9 14 0 7 -9 16 -20 19
-11 3 -18 1 -14 -4 3 -5 -6 -13 -20 -19 -14 -5 -26 -15 -25 -22 0 -10 2 -10 6
0 7 17 23 15 23 -3 0 -8 -5 -15 -10 -15 -7 0 -7 -6 0 -19 7 -14 7 -22 0 -26
-6 -4 -9 -2 -8 3 2 5 -12 24 -29 41 -18 17 -33 37 -33 44 0 9 -2 9 -9 -1 -11
-18 -34 10 -25 32 4 10 1 16 -9 16 -11 0 -14 -9 -10 -37z"/>
<path d="M2024 727 c-124 -85 -274 -196 -274 -203 0 -4 6 -2 13 3 19 15 208
137 308 199 49 30 89 57 89 60 0 2 -10 4 -22 3 -13 0 -64 -28 -114 -62z"/>
<path d="M166 752 c-4 -7 -4 -16 -1 -22 3 -5 0 -10 -7 -10 -9 0 -9 -3 -2 -8
35 -23 37 -62 9 -142 -17 -47 -20 -106 -6 -114 9 -6 26 22 22 38 -1 5 8 37 20
73 15 47 19 76 14 108 -7 49 -37 96 -49 77z"/>
<path d="M1506 731 c-4 -5 -2 -20 3 -33 6 -12 10 -19 10 -15 1 4 7 2 15 -5 9
-9 11 -17 4 -25 -11 -14 -1 -36 13 -28 5 4 9 1 9 -4 0 -6 7 -11 15 -11 8 0 15
5 15 12 0 6 -3 9 -6 5 -13 -13 -33 22 -29 49 2 16 2 23 -1 16 -9 -19 -24 -4
-24 24 0 24 -14 32 -24 15z"/>
<path d="M703 697 c-35 -17 -63 -35 -63 -39 0 -4 32 9 70 28 65 33 82 45 63
43 -5 0 -36 -14 -70 -32z"/>
<path d="M795 699 c-75 -39 -89 -50 -74 -60 20 -13 29 -11 23 4 -3 8 14 24 46
41 27 15 50 29 50 32 0 6 0 6 -45 -17z"/>
<path d="M1058 690 c-26 -3 -51 -10 -55 -15 -4 -4 0 -5 9 -2 10 3 20 1 24 -5
5 -7 9 -7 13 1 5 7 17 8 40 1 35 -10 51 -6 51 12 0 5 -6 8 -14 5 -8 -3 -16 -3
-18 1 -2 4 -24 5 -50 2z"/>
<path d="M1150 665 c0 -20 27 -39 32 -23 4 10 8 10 22 -1 9 -8 19 -11 23 -7 3
3 1 6 -6 6 -7 0 -9 5 -6 10 3 6 -1 10 -10 10 -9 0 -14 3 -12 8 3 4 -6 8 -19 8
-14 1 -24 -4 -24 -11z"/>
<path d="M918 659 c-29 -8 -178 -118 -178 -132 0 -5 -6 -7 -14 -4 -10 4 -20
-8 -32 -39 -9 -24 -14 -47 -10 -51 11 -11 61 33 58 51 -2 9 1 15 5 14 13 -4
73 23 73 33 0 5 5 9 10 9 6 0 27 11 48 23 47 30 84 40 149 41 36 1 53 -3 53
-11 0 -7 7 -10 15 -7 8 4 15 1 15 -6 0 -7 8 -10 20 -7 13 3 18 1 13 -6 -4 -6
0 -8 9 -4 16 6 53 -25 42 -35 -3 -4 8 -9 25 -13 35 -8 37 -12 15 -36 -15 -16
-14 -17 5 -12 27 7 27 38 0 57 -12 8 -18 19 -15 25 7 12 -53 53 -65 45 -4 -2
-10 0 -14 5 -3 6 -13 7 -23 4 -13 -4 -13 -2 3 11 20 16 20 16 0 14 -37 -2 -56
2 -50 11 3 5 1 12 -5 16 -5 3 -10 2 -10 -3 0 -6 -11 -9 -25 -8 -14 0 -25 4
-25 8 0 3 -10 4 -22 0 -12 -3 -19 -1 -15 4 6 11 -20 13 -55 3z"/>
<path d="M1240 655 c0 -8 5 -15 10 -15 6 0 10 -7 10 -15 0 -8 5 -15 11 -15 6
0 8 7 5 16 -3 9 -6 19 -6 24 0 4 -7 10 -15 14 -9 3 -15 0 -15 -9z"/>
<path d="M1330 651 c10 -7 11 -11 2 -11 -10 0 -10 -4 0 -20 7 -11 18 -20 25
-20 8 0 13 -14 13 -35 0 -22 6 -38 15 -41 8 -4 15 -10 15 -15 0 -14 92 -109
106 -109 8 0 14 -8 14 -18 0 -10 7 -28 16 -41 13 -18 18 -20 25 -10 6 9 3 19
-9 28 -15 12 -15 13 7 8 23 -6 23 -5 5 14 -42 44 -42 43 -25 56 9 6 12 15 7
20 -5 4 -11 2 -13 -4 -3 -7 -12 -13 -21 -13 -12 0 -13 3 -4 12 15 15 15 28 1
28 -5 0 -7 -4 -4 -10 3 -5 -1 -10 -10 -10 -10 0 -13 -5 -9 -12 4 -7 3 -8 -5
-4 -6 4 -9 12 -6 17 4 5 -5 14 -19 21 -32 14 -33 31 -3 52 14 10 16 14 5 10
-13 -4 -18 -1 -18 11 0 14 -4 13 -19 -6 -11 -13 -23 -20 -27 -16 -5 4 -4 11 2
15 13 9 17 62 4 64 -6 0 -16 1 -22 2 -7 1 -17 10 -23 20 -5 11 -17 21 -25 23
-13 4 -13 3 0 -6z"/>
<path d="M495 616 c-11 -8 -71 -46 -133 -86 -62 -40 -110 -75 -108 -77 3 -3
49 23 103 58 54 34 115 73 136 86 35 22 46 34 30 32 -5 0 -17 -6 -28 -13z"/>
<path d="M520 550 c-45 -33 -102 -71 -127 -86 -25 -14 -42 -28 -40 -30 6 -6
118 62 179 108 24 18 55 41 68 50 14 9 20 17 14 17 -6 1 -48 -26 -94 -59z"/>
<path d="M1314 530 c-1 -22 3 -30 16 -30 9 0 17 7 17 15 0 8 -4 12 -9 9 -4 -3
-8 4 -8 15 0 33 -15 24 -16 -9z"/>
<path d="M2167 529 c-22 -11 -37 -22 -34 -25 7 -7 52 13 66 30 17 20 15 20
-32 -5z"/>
<path d="M1070 529 c0 -6 9 -9 20 -6 11 3 23 1 26 -4 3 -5 11 -9 17 -9 19 1
-25 30 -45 30 -10 0 -18 -5 -18 -11z"/>
<path d="M1475 514 c-13 -13 -14 -19 -4 -25 7 -4 19 -4 28 -1 9 3 11 7 4 9 -7
3 -9 11 -6 19 7 19 -2 18 -22 -2z"/>
<path d="M980 510 c0 -14 48 -43 60 -35 5 3 10 -2 10 -14 0 -11 6 -24 13 -28
15 -10 87 -99 87 -108 0 -3 -4 -3 -10 0 -5 3 -10 -1 -10 -9 0 -21 16 -21 24 0
4 10 13 13 26 9 26 -8 26 7 0 30 -16 15 -18 21 -7 33 10 13 9 14 -10 4 -25
-14 -45 4 -22 19 11 7 10 9 -4 9 -10 0 -15 5 -12 10 3 6 0 10 -8 10 -8 0 -22
9 -32 20 -15 17 -87 60 -100 60 -3 0 -5 -4 -5 -10z"/>
<path d="M2025 491 c-29 -7 -29 -7 -6 -13 15 -4 32 -1 45 8 22 15 13 16 -39 5z"/>
<path d="M1350 477 c0 -8 12 -20 28 -27 25 -12 26 -13 7 -21 -11 -4 -15 -8 -9
-8 19 -1 78 -61 61 -61 -8 0 -17 -7 -21 -15 -4 -13 -1 -12 20 1 27 18 53 7 39
-16 -6 -9 -10 -9 -17 1 -8 11 -9 11 -5 -1 6 -24 44 -25 42 -2 -1 22 -20 43
-53 61 -12 7 -20 15 -18 20 5 7 -58 81 -68 81 -4 0 -6 -6 -6 -13z"/>
<path d="M1278 454 c-7 -6 19 -61 33 -69 9 -6 7 11 -6 53 -7 22 -16 27 -27 16z"/>
<path d="M880 423 c0 -8 12 -20 28 -26 50 -23 102 -59 102 -71 0 -6 9 -19 21
-29 14 -12 18 -24 13 -39 -5 -17 -3 -20 10 -15 13 5 16 0 16 -28 0 -34 12 -46
26 -24 3 6 1 15 -6 19 -9 6 -9 9 1 12 11 4 9 11 -8 30 -13 13 -26 38 -29 56
-5 22 -12 31 -23 30 -9 -2 -20 7 -26 20 -5 12 -15 22 -22 22 -6 0 -13 4 -15 8
-1 4 -22 17 -45 29 -34 16 -43 18 -43 6z"/>
<path d="M1915 420 c-4 -6 -14 -9 -22 -6 -10 4 -13 0 -11 -12 4 -21 44 -28 64
-12 16 14 19 34 3 24 -6 -3 -15 -1 -19 6 -6 9 -9 9 -15 0z"/>
<path d="M2325 422 c34 -15 143 -24 150 -12 4 6 -8 10 -33 10 -22 0 -61 2 -88
5 -33 4 -42 3 -29 -3z"/>
<path d="M1200 414 c0 -3 7 -12 15 -20 13 -14 17 -14 30 0 20 20 19 32 -2 15
-13 -11 -17 -11 -20 -1 -5 12 -23 17 -23 6z"/>
<path d="M745 401 c11 -5 33 -11 49 -15 25 -6 28 -5 18 7 -7 7 -29 14 -49 15
-28 0 -33 -2 -18 -7z"/>
<path d="M2481 396 c4 -4 159 -35 379 -76 63 -12 121 -23 128 -26 8 -2 12 1
10 8 -2 6 -26 13 -53 16 -26 2 -87 12 -134 23 -159 36 -343 67 -330 55z"/>
<path d="M860 375 c0 -14 37 -45 55 -45 17 0 16 3 -7 18 -16 9 -28 20 -28 24
0 5 -4 8 -10 8 -5 0 -10 -2 -10 -5z"/>
<path d="M1290 370 c0 -5 7 -10 15 -10 8 0 15 -4 15 -10 0 -5 -4 -10 -10 -10
-5 0 -10 -5 -10 -11 0 -8 5 -7 15 1 9 7 19 9 23 5 4 -4 1 -10 -5 -12 -20 -7
-15 -23 5 -23 37 0 35 10 -10 61 -19 21 -38 25 -38 9z"/>
<path d="M605 360 c-3 -5 16 -12 42 -15 65 -10 140 -34 154 -51 6 -8 20 -14
30 -14 11 0 19 -3 19 -8 0 -4 25 -32 55 -63 30 -31 57 -68 61 -83 7 -29 19
-34 28 -10 8 20 28 8 24 -14 -2 -10 6 -22 17 -27 11 -6 22 -24 25 -40 4 -26
10 -30 40 -32 19 -1 28 1 19 3 -15 4 -25 20 -43 64 -14 32 -33 59 -61 88 -17
16 -48 49 -70 74 -44 49 -109 93 -124 83 -5 -3 -13 0 -18 7 -19 30 -184 61
-198 38z"/>
<path d="M1620 359 c0 -5 5 -7 12 -3 7 4 8 3 4 -5 -4 -6 -25 -20 -47 -31 -43
-23 -45 -26 -24 -54 9 -12 11 -24 6 -30 -13 -16 -18 -96 -6 -96 5 0 1 -7 -9
-15 -10 -8 -23 -12 -29 -8 -6 3 -7 1 -3 -6 7 -10 -18 -49 -61 -93 -15 -17 -15
-18 5 -18 12 0 29 11 37 24 14 21 20 23 48 15 43 -12 47 -11 41 6 -4 9 -15 12
-33 9 -21 -4 -28 -2 -28 10 0 9 9 16 20 16 13 0 17 5 13 15 -3 9 1 18 9 21 10
4 12 11 6 22 -5 9 -5 26 -1 38 5 12 6 25 3 28 -4 3 1 6 10 6 10 0 14 5 11 15
-4 11 1 15 17 16 23 1 23 2 -3 12 -40 15 -35 26 12 25 22 0 37 -4 34 -9 -3 -5
1 -9 10 -9 18 0 15 -28 -4 -40 -12 -7 -11 -10 4 -16 10 -4 21 -2 25 5 6 8 19
8 52 -4 39 -13 42 -13 25 0 -11 8 -27 15 -36 15 -9 0 -25 7 -36 15 -19 14 -19
14 1 15 11 0 16 4 10 8 -5 4 -12 16 -13 27 -2 11 -8 22 -13 23 -5 2 -7 7 -4
12 5 9 -41 50 -56 50 -5 0 -9 -5 -9 -11z"/>
<path d="M526 341 c-18 -7 -18 -8 -2 -14 10 -4 27 -7 38 -7 17 0 18 2 4 15 -8
8 -16 15 -18 14 -2 0 -12 -4 -22 -8z"/>
<path d="M462 319 c-12 -5 -44 -10 -70 -11 -75 -5 -58 -23 23 -25 39 -2 88 -9
108 -18 48 -20 57 -19 28 5 -13 11 -34 20 -47 20 -26 0 -41 16 -22 23 7 2 11
7 8 9 -3 3 -15 2 -28 -3z"/>
<path d="M635 309 c-4 -5 0 -9 7 -9 7 0 39 -13 70 -29 31 -16 54 -24 52 -17
-7 16 -123 66 -129 55z"/>
<path d="M1173 297 c-9 -15 20 -27 34 -15 7 6 13 13 13 17 0 10 -41 8 -47 -2z"/>
<path d="M1870 300 c-18 -6 -11 -7 21 -4 29 4 49 2 54 -5 3 -6 10 -9 15 -6 5
3 23 -1 40 -10 28 -14 32 -14 46 0 14 14 13 15 -13 14 -15 0 -46 4 -68 10 -46
12 -61 12 -95 1z"/>
<path d="M1230 277 c-8 -7 -14 -22 -12 -35 2 -14 -4 -29 -15 -37 -10 -8 -13
-15 -7 -15 5 0 15 5 22 12 6 6 15 8 19 4 4 -4 0 -12 -10 -17 -20 -12 -23 -29
-4 -29 28 0 36 21 21 56 -11 25 -12 40 -4 54 12 23 11 24 -10 7z"/>
<path d="M1356 274 c-9 -22 -8 -24 9 -24 9 0 18 -7 21 -15 4 -8 11 -15 16 -15
6 0 17 -8 24 -17 10 -13 16 -15 22 -6 5 8 13 9 22 3 11 -7 12 -10 2 -10 -19 0
-4 -20 22 -29 19 -7 22 -4 31 33 7 28 7 45 0 52 -15 18 -25 6 -25 -29 l0 -32
-20 30 c-11 17 -18 35 -15 42 4 13 -21 7 -44 -11 -12 -9 -13 -8 -8 7 4 11 2
17 -8 17 -8 0 -15 5 -15 10 0 16 -27 11 -34 -6z"/>
<path d="M1774 269 c27 -11 54 -18 60 -16 6 3 -1 8 -16 12 -16 4 -28 11 -28
16 0 5 -15 9 -32 8 -32 0 -31 -1 16 -20z"/>
<path d="M1154 258 c-4 -6 -2 -14 4 -16 7 -2 12 -10 12 -18 0 -20 13 -17 28 7
12 19 11 20 -9 14 -18 -6 -21 -4 -16 9 7 18 -8 22 -19 4z"/>
<path d="M1855 260 c-3 -5 -2 -10 4 -10 5 0 22 -5 38 -11 22 -8 25 -12 13 -20
-11 -7 -5 -8 20 -4 25 4 31 3 20 -4 -8 -5 -12 -13 -8 -16 3 -3 12 1 20 9 12
11 24 13 54 6 21 -5 40 -7 42 -5 9 8 -46 29 -83 31 -22 2 -54 10 -70 18 -35
19 -42 19 -50 6z"/>
<path d="M1304 227 c6 -26 5 -28 -16 -21 -20 6 -21 5 -9 -9 10 -12 18 -14 31
-7 29 16 31 26 8 46 -21 19 -21 19 -14 -9z"/>
<path d="M780 231 c0 -13 57 -71 63 -64 3 3 -6 21 -21 39 -27 33 -42 43 -42
25z"/>
<path d="M400 221 c0 -5 16 -18 35 -30 19 -11 35 -27 35 -35 0 -14 29 -31 38
-21 6 6 -88 95 -100 95 -5 0 -8 -4 -8 -9z"/>
<path d="M2495 220 l-30 -8 27 -1 c22 -1 26 -5 23 -22 -3 -12 -1 -18 3 -15 4
4 7 13 7 19 0 7 14 15 30 18 17 4 28 8 25 9 -14 6 -58 6 -85 0z"/>
<path d="M2137 194 c-3 -3 -22 -6 -41 -6 -20 0 -34 -3 -31 -8 6 -10 94 -34
101 -27 4 3 -9 10 -27 16 -19 5 -26 10 -17 10 9 1 20 6 23 11 7 11 2 14 -8 4z"/>
<path d="M2319 189 c24 -5 51 -5 59 0 10 6 -5 9 -44 9 l-59 -1 44 -8z"/>
<path d="M2695 182 c-40 -8 -35 -19 10 -19 25 0 45 4 45 8 0 9 -31 16 -55 11z"/>
<path d="M375 171 c-6 -11 12 -90 32 -138 18 -44 37 -44 27 0 -4 17 -8 41 -9
52 -3 24 -32 95 -39 95 -3 0 -7 -4 -11 -9z"/>
<path d="M1270 161 c0 -11 45 -51 57 -51 7 0 15 -9 18 -20 3 -11 10 -20 15
-20 4 0 6 -9 3 -20 -3 -11 -1 -20 5 -20 12 0 8 50 -5 59 -5 3 -19 20 -31 37
-20 29 -62 52 -62 35z"/>
<path d="M1690 160 c11 -7 2 -9 -30 -5 -33 4 -40 3 -25 -4 11 -5 31 -10 45
-11 23 -1 23 -2 5 -10 -20 -9 -20 -9 0 -10 20 -1 20 -1 0 -9 -17 -7 -16 -9 13
-16 18 -4 36 -4 39 -1 4 3 -3 6 -14 6 -11 0 -20 7 -20 15 0 8 6 15 14 15 9 0
8 5 -4 20 -10 11 -22 20 -28 20 -5 0 -3 -5 5 -10z"/>
<path d="M1806 132 c13 -12 114 -52 128 -51 15 0 -105 58 -123 58 -9 1 -11 -2
-5 -7z"/>
<path d="M2485 100 c10 -11 25 -20 34 -20 12 1 10 5 -8 20 -30 26 -49 26 -26
0z"/>
<path d="M1210 81 c0 -5 13 -19 30 -32 16 -13 30 -30 30 -36 0 -7 7 -13 15
-13 20 0 19 2 -15 38 -16 18 -30 36 -30 42 0 5 -7 10 -15 10 -8 0 -15 -4 -15
-9z"/>
<path d="M1945 70 c-4 -6 -16 -10 -28 -11 -21 0 -21 -1 -2 -9 11 -5 34 -9 50
-9 17 1 24 3 17 6 -6 2 -10 8 -7 13 3 4 -2 10 -10 14 -8 3 -17 1 -20 -4z"/>
<path d="M2060 77 c10 -11 110 -45 104 -35 -3 5 -17 13 -30 19 -35 13 -80 23
-74 16z"/>
<path d="M1665 40 c-3 -5 -18 -10 -33 -11 -34 -1 82 -28 123 -28 23 -1 26 2
15 9 -8 5 -22 7 -31 5 -22 -7 -72 12 -64 25 3 5 4 10 1 10 -3 0 -8 -4 -11 -10z"/>
<path d="M2811 41 c-11 -7 -4 -12 25 -20 52 -14 64 -14 64 3 0 8 3 16 8 19 4
2 0 2 -8 -1 -8 -3 -31 -7 -50 -9 -28 -2 -31 -1 -15 6 14 7 15 10 5 10 -8 0
-21 -3 -29 -8z"/>
<path d="M1771 36 c10 -9 129 -14 134 -6 4 6 -23 10 -66 10 -40 0 -70 -2 -68
-4z"/>
<path d="M2348 19 c24 -11 51 -18 60 -16 11 2 7 6 -13 11 -16 4 -38 11 -47 17
-10 5 -23 9 -30 8 -7 0 6 -10 30 -20z"/>
</g>
</svg>
