<svg version="1.1" xmlns="http://www.w3.org/2000/svg" viewBox="0 0 653.8359375 547" width="1307.671875" height="1094">
    <!-- svg-source:excalidraw -->

    <defs>
        <style class="style-fonts">
            @font-face {
            font-family: "Virgil";
            src: url("https://excalidraw.com/Virgil.woff2");
            }
            @font-face {
            font-family: "Cascadia";
            src: url("https://excalidraw.com/Cascadia.woff2");
            }
            @font-face {
            font-family: "Assistant";
            src: url("https://excalidraw.com/Assistant-Regular.woff2");
            }
        </style>

    </defs>
    <rect x="0" y="0" width="653.8359375" height="547" fill="#ffffff"></rect><g stroke-linecap="round" transform="translate(174.69140625 10) rotate(0 190.05859375 50.5)"><path d="M0 0 C0 0, 0 0, 0 0 M0 0 C0 0, 0 0, 0 0 M-0.26 6.4 C1.62 4.24, 3.49 2.08, 4.99 0.36 M-0.26 6.4 C1.3 4.61, 2.85 2.82, 4.99 0.36 M0.13 12.04 C2.82 8.95, 5.51 5.86, 10.63 -0.03 M0.13 12.04 C2.58 9.22, 5.04 6.4, 10.63 -0.03 M-0.13 18.44 C4.87 12.68, 9.88 6.93, 15.62 0.33 M-0.13 18.44 C4.62 12.98, 9.36 7.52, 15.62 0.33 M0.27 24.08 C5.73 17.8, 11.19 11.52, 21.26 -0.07 M0.27 24.08 C5.52 18.04, 10.78 11.99, 21.26 -0.07 M0 30.48 C6.06 23.52, 12.11 16.55, 26.25 0.29 M0 30.48 C5.77 23.85, 11.54 17.21, 26.25 0.29 M-0.26 36.88 C8.41 26.9, 17.08 16.93, 31.89 -0.1 M-0.26 36.88 C8.57 26.72, 17.39 16.57, 31.89 -0.1 M0.14 42.52 C13.81 26.79, 27.49 11.06, 36.88 0.26 M0.14 42.52 C12.76 27.99, 25.39 13.47, 36.88 0.26 M-0.12 48.92 C14.85 31.7, 29.81 14.48, 42.52 -0.14 M-0.12 48.92 C15.11 31.4, 30.34 13.88, 42.52 -0.14 M0.27 54.56 C14.39 38.32, 28.52 22.07, 47.51 0.22 M0.27 54.56 C18.39 33.71, 36.52 12.86, 47.51 0.22 M0.01 60.96 C13.37 45.59, 26.74 30.21, 53.15 -0.17 M0.01 60.96 C19.57 38.46, 39.13 15.96, 53.15 -0.17 M-0.25 67.36 C14.29 50.63, 28.82 33.91, 58.14 0.19 M-0.25 67.36 C15.45 49.3, 31.14 31.24, 58.14 0.19 M0.14 73 C25.57 43.75, 51 14.49, 63.78 -0.21 M0.14 73 C25.33 44.03, 50.51 15.06, 63.78 -0.21 M-0.12 79.4 C23.4 52.34, 46.92 25.28, 68.77 0.15 M-0.12 79.4 C23.8 51.89, 47.71 24.38, 68.77 0.15 M0.28 85.04 C22.91 59, 45.54 32.97, 74.41 -0.24 M0.28 85.04 C26.05 55.4, 51.82 25.75, 74.41 -0.24 M0.01 91.44 C29.93 57.02, 59.85 22.6, 79.4 0.12 M0.01 91.44 C30.6 56.25, 61.19 21.06, 79.4 0.12 M-0.25 97.84 C30.43 62.55, 61.1 27.26, 85.04 -0.28 M-0.25 97.84 C29.58 63.53, 59.4 29.22, 85.04 -0.28 M2.12 101.22 C22.96 77.24, 43.79 53.27, 90.03 0.08 M2.12 101.22 C34.54 63.92, 66.96 26.63, 90.03 0.08 M7.1 101.58 C27.92 77.62, 48.74 53.67, 95.67 -0.31 M7.1 101.58 C37.82 66.24, 68.54 30.9, 95.67 -0.31 M12.75 101.18 C37.79 72.37, 62.84 43.56, 100.66 0.05 M12.75 101.18 C39.27 70.67, 65.8 40.15, 100.66 0.05 M17.73 101.54 C42.99 72.49, 68.24 43.43, 106.3 -0.34 M17.73 101.54 C44.53 70.71, 71.33 39.88, 106.3 -0.34 M23.38 101.15 C55.43 64.27, 87.49 27.39, 111.29 0.02 M23.38 101.15 C41.58 80.2, 59.79 59.25, 111.29 0.02 M28.36 101.51 C58.67 66.64, 88.98 31.78, 116.27 0.38 M28.36 101.51 C63.46 61.13, 98.56 20.75, 116.27 0.38 M34.01 101.11 C51.75 80.7, 69.49 60.29, 121.92 -0.02 M34.01 101.11 C62.72 68.08, 91.44 35.04, 121.92 -0.02 M38.99 101.47 C68 68.1, 97.01 34.73, 126.91 0.34 M38.99 101.47 C59.92 77.4, 80.84 53.34, 126.91 0.34 M43.98 101.83 C61.98 81.13, 79.97 60.43, 132.55 -0.05 M43.98 101.83 C72.39 69.15, 100.8 36.47, 132.55 -0.05 M49.62 101.44 C70.56 77.35, 91.5 53.27, 137.54 0.31 M49.62 101.44 C70.6 77.31, 91.57 53.19, 137.54 0.31 M54.61 101.8 C77.34 75.65, 100.07 49.5, 143.18 -0.09 M54.61 101.8 C78.41 74.42, 102.2 47.05, 143.18 -0.09 M60.25 101.4 C90.85 66.21, 121.44 31.02, 148.17 0.27 M60.25 101.4 C81.31 77.18, 102.37 52.95, 148.17 0.27 M65.24 101.76 C94.6 67.99, 123.97 34.21, 153.81 -0.12 M65.24 101.76 C89 74.43, 112.77 47.09, 153.81 -0.12 M70.88 101.37 C90.16 79.19, 109.44 57.02, 158.8 0.24 M70.88 101.37 C97.1 71.2, 123.33 41.04, 158.8 0.24 M75.87 101.73 C100.52 73.38, 125.16 45.03, 164.44 -0.16 M75.87 101.73 C96.81 77.64, 117.74 53.56, 164.44 -0.16 M81.51 101.33 C107.28 71.69, 133.05 42.04, 169.43 0.2 M81.51 101.33 C107.08 71.92, 132.65 42.51, 169.43 0.2 M86.5 101.69 C106.75 78.4, 126.99 55.11, 175.07 -0.19 M86.5 101.69 C113.81 70.28, 141.12 38.86, 175.07 -0.19 M92.14 101.3 C117.81 71.77, 143.48 42.25, 180.06 0.17 M92.14 101.3 C119.57 69.75, 147 38.19, 180.06 0.17 M97.13 101.66 C132.16 61.36, 167.2 21.06, 185.7 -0.23 M97.13 101.66 C118.25 77.37, 139.36 53.08, 185.7 -0.23 M102.77 101.26 C122.06 79.08, 141.34 56.9, 190.69 0.13 M102.77 101.26 C126.99 73.41, 151.2 45.56, 190.69 0.13 M107.76 101.62 C131.97 73.78, 156.18 45.93, 196.33 -0.26 M107.76 101.62 C143.14 60.92, 178.53 20.22, 196.33 -0.26 M113.4 101.23 C145.06 64.81, 176.72 28.39, 201.32 0.1 M113.4 101.23 C140.95 69.54, 168.5 37.85, 201.32 0.1 M118.39 101.59 C139.42 77.4, 160.45 53.21, 206.96 -0.3 M118.39 101.59 C152.34 62.54, 186.29 23.48, 206.96 -0.3 M124.03 101.2 C148.69 72.83, 173.35 44.47, 211.95 0.06 M124.03 101.2 C157.17 63.08, 190.31 24.96, 211.95 0.06 M129.02 101.56 C159.54 66.45, 190.06 31.34, 217.59 -0.33 M129.02 101.56 C146.76 81.15, 164.51 60.73, 217.59 -0.33 M134.66 101.16 C154.68 78.13, 174.7 55.11, 222.58 0.03 M134.66 101.16 C155.4 77.3, 176.14 53.44, 222.58 0.03 M139.65 101.52 C169.13 67.61, 198.6 33.71, 228.22 -0.36 M139.65 101.52 C164.43 73.02, 189.2 44.52, 228.22 -0.36 M145.29 101.13 C174.34 67.71, 203.4 34.29, 233.21 0 M145.29 101.13 C169.82 72.92, 194.34 44.71, 233.21 0 M150.28 101.49 C169.74 79.11, 189.19 56.73, 238.19 0.36 M150.28 101.49 C173.97 74.24, 197.65 46.99, 238.19 0.36 M155.27 101.85 C190.57 61.24, 225.87 20.63, 243.84 -0.04 M155.27 101.85 C183.02 69.93, 210.76 38.01, 243.84 -0.04 M160.91 101.45 C188.21 70.04, 215.52 38.63, 248.82 0.32 M160.91 101.45 C181.68 77.57, 202.44 53.68, 248.82 0.32 M165.9 101.81 C194.52 68.88, 223.15 35.96, 254.47 -0.07 M165.9 101.81 C198.23 64.62, 230.56 27.43, 254.47 -0.07 M171.54 101.42 C205.16 62.75, 238.77 24.08, 259.45 0.29 M171.54 101.42 C194.87 74.58, 218.21 47.73, 259.45 0.29 M176.53 101.78 C201.03 73.59, 225.53 45.4, 265.1 -0.11 M176.53 101.78 C201.24 73.35, 225.96 44.92, 265.1 -0.11 M182.17 101.38 C208.52 71.08, 234.86 40.77, 270.08 0.25 M182.17 101.38 C205.15 74.95, 228.12 48.53, 270.08 0.25 M187.16 101.74 C214.84 69.9, 242.53 38.05, 275.73 -0.14 M187.16 101.74 C215.4 69.26, 243.64 36.77, 275.73 -0.14 M192.8 101.35 C210.97 80.44, 229.14 59.54, 280.71 0.22 M192.8 101.35 C223.3 66.27, 253.79 31.19, 280.71 0.22 M197.79 101.71 C230.19 64.43, 262.59 27.16, 286.36 -0.18 M197.79 101.71 C230.28 64.34, 262.76 26.97, 286.36 -0.18 M203.43 101.31 C232.35 68.05, 261.27 34.78, 291.34 0.18 M203.43 101.31 C226.62 74.64, 249.8 47.97, 291.34 0.18 M208.42 101.67 C230.79 75.94, 253.16 50.21, 296.99 -0.21 M208.42 101.67 C237.11 68.67, 265.8 35.66, 296.99 -0.21 M214.06 101.28 C246.87 63.54, 279.68 25.79, 301.97 0.15 M214.06 101.28 C246.8 63.62, 279.54 25.96, 301.97 0.15 M219.05 101.64 C242.97 74.12, 266.89 46.61, 307.62 -0.25 M219.05 101.64 C246.52 70.04, 273.99 38.44, 307.62 -0.25 M224.69 101.25 C253.47 68.14, 282.26 35.03, 312.6 0.11 M224.69 101.25 C246.85 75.76, 269 50.28, 312.6 0.11 M229.68 101.61 C264.84 61.16, 300 20.71, 318.25 -0.28 M229.68 101.61 C253.05 74.71, 276.43 47.82, 318.25 -0.28 M235.32 101.21 C258.25 74.84, 281.17 48.46, 323.23 0.08 M235.32 101.21 C261.74 70.82, 288.17 40.42, 323.23 0.08 M240.31 101.57 C266.28 71.7, 292.25 41.82, 328.88 -0.31 M240.31 101.57 C270.66 66.66, 301.01 31.75, 328.88 -0.31 M245.95 101.18 C274.42 68.43, 302.89 35.67, 333.86 0.05 M245.95 101.18 C275.38 67.33, 304.8 33.48, 333.86 0.05 M250.94 101.54 C277.49 70.99, 304.05 40.44, 339.51 -0.35 M250.94 101.54 C279.49 68.69, 308.04 35.84, 339.51 -0.35 M256.58 101.14 C287.21 65.91, 317.83 30.69, 344.49 0.01 M256.58 101.14 C290.86 61.7, 325.15 22.27, 344.49 0.01 M261.57 101.5 C282.6 77.31, 303.62 53.12, 349.48 0.37 M261.57 101.5 C296.55 61.26, 331.54 21.01, 349.48 0.37 M267.21 101.11 C288.95 76.1, 310.68 51.1, 355.12 -0.02 M267.21 101.11 C295.39 68.7, 323.56 36.29, 355.12 -0.02 M272.2 101.47 C291.09 79.73, 309.99 58, 360.11 0.34 M272.2 101.47 C305.86 62.74, 339.52 24.02, 360.11 0.34 M277.19 101.83 C296.21 79.94, 315.23 58.06, 365.75 -0.06 M277.19 101.83 C312.54 61.15, 347.9 20.48, 365.75 -0.06 M282.83 101.43 C301.46 80, 320.09 58.57, 370.74 0.3 M282.83 101.43 C310.05 70.12, 337.26 38.81, 370.74 0.3 M287.82 101.79 C316.73 68.53, 345.65 35.27, 376.38 -0.09 M287.82 101.79 C315.97 69.41, 344.12 37.02, 376.38 -0.09 M293.46 101.4 C319.11 71.89, 344.77 42.38, 380.06 1.78 M293.46 101.4 C313.3 78.58, 333.14 55.75, 380.06 1.78 M298.45 101.76 C326.25 69.78, 354.05 37.79, 380.45 7.42 M298.45 101.76 C330.18 65.26, 361.91 28.76, 380.45 7.42 M304.09 101.36 C320.47 82.52, 336.85 63.67, 380.19 13.82 M304.09 101.36 C320.16 82.87, 336.24 64.38, 380.19 13.82 M309.08 101.72 C329.66 78.05, 350.24 54.38, 379.93 20.22 M309.08 101.72 C332.85 74.38, 356.62 47.03, 379.93 20.22 M314.72 101.33 C340.81 71.32, 366.89 41.31, 380.33 25.86 M314.72 101.33 C337.32 75.33, 359.93 49.33, 380.33 25.86 M319.71 101.69 C337.81 80.86, 355.92 60.03, 380.06 32.26 M319.71 101.69 C338.52 80.05, 357.33 58.41, 380.06 32.26 M325.35 101.3 C344.81 78.9, 364.28 56.51, 380.46 37.9 M325.35 101.3 C343.89 79.97, 362.42 58.65, 380.46 37.9 M330.34 101.66 C348.69 80.54, 367.04 59.43, 380.2 44.3 M330.34 101.66 C344.4 85.48, 358.46 69.31, 380.2 44.3 M335.98 101.26 C347.98 87.45, 359.98 73.65, 379.94 50.7 M335.98 101.26 C349.73 85.44, 363.48 69.62, 379.94 50.7 M340.97 101.62 C355.79 84.57, 370.61 67.52, 380.33 56.34 M340.97 101.62 C350.1 91.12, 359.23 80.61, 380.33 56.34 M346.61 101.23 C354.29 92.39, 361.97 83.55, 380.07 62.74 M346.61 101.23 C353.93 92.81, 361.24 84.39, 380.07 62.74 M351.6 101.59 C359.92 92.01, 368.24 82.44, 380.46 68.38 M351.6 101.59 C362.16 89.44, 372.72 77.29, 380.46 68.38 M357.24 101.19 C365.88 91.25, 374.52 81.31, 380.2 74.78 M357.24 101.19 C362.24 95.44, 367.23 89.7, 380.2 74.78 M362.23 101.55 C368.38 94.47, 374.54 87.39, 379.94 81.17 M362.23 101.55 C367.66 95.31, 373.09 89.06, 379.94 81.17 M367.87 101.16 C372.21 96.16, 376.55 91.17, 380.33 86.82 M367.87 101.16 C371.51 96.97, 375.14 92.79, 380.33 86.82 M372.86 101.52 C374.88 99.19, 376.9 96.87, 380.07 93.22 M372.86 101.52 C374.99 99.06, 377.13 96.61, 380.07 93.22 M378.5 101.12 C379.01 100.53, 379.53 99.94, 380.47 98.86 M378.5 101.12 C378.98 100.57, 379.45 100.03, 380.47 98.86" stroke="#fff5f5" stroke-width="0.5" fill="none"></path><path d="M0 0 C89.44 0, 178.88 0, 380.12 0 M0 0 C151.13 0, 302.25 0, 380.12 0 M380.12 0 C380.12 20.31, 380.12 40.62, 380.12 101 M380.12 0 C380.12 35.96, 380.12 71.91, 380.12 101 M380.12 101 C301.57 101, 223.01 101, 0 101 M380.12 101 C261.78 101, 143.45 101, 0 101 M0 101 C0 64.99, 0 28.99, 0 0 M0 101 C0 67.37, 0 33.74, 0 0" stroke="#2f9e44" stroke-width="1" fill="none"></path></g><g stroke-linecap="round" transform="translate(224.11328125 190) rotate(0 140.63671875 100)"><path d="M0 0 C0 0, 0 0, 0 0 M0 0 C0 0, 0 0, 0 0 M-0.26 6.4 C1.57 4.29, 3.39 2.19, 4.99 0.36 M-0.26 6.4 C0.81 5.16, 1.89 3.93, 4.99 0.36 M0.13 12.04 C2.89 8.87, 5.65 5.7, 10.63 -0.03 M0.13 12.04 C3.52 8.15, 6.91 4.25, 10.63 -0.03 M-0.13 18.44 C3.24 14.56, 6.62 10.68, 15.62 0.33 M-0.13 18.44 C4.5 13.11, 9.13 7.79, 15.62 0.33 M0.27 24.08 C7.34 15.94, 14.42 7.8, 21.26 -0.07 M0.27 24.08 C6.22 17.23, 12.17 10.38, 21.26 -0.07 M0 30.48 C6.12 23.44, 12.24 16.4, 26.25 0.29 M0 30.48 C5.44 24.22, 10.88 17.96, 26.25 0.29 M-0.26 36.88 C7.28 28.21, 14.81 19.54, 31.89 -0.1 M-0.26 36.88 C8.41 26.9, 17.09 16.93, 31.89 -0.1 M0.14 42.52 C9.88 31.31, 19.63 20.1, 36.88 0.26 M0.14 42.52 C11.22 29.77, 22.31 17.02, 36.88 0.26 M-0.12 48.92 C12.89 33.95, 25.91 18.98, 42.52 -0.14 M-0.12 48.92 C12.57 34.31, 25.27 19.71, 42.52 -0.14 M0.27 54.56 C12.15 40.9, 24.02 27.24, 47.51 0.22 M0.27 54.56 C16.97 35.36, 33.66 16.15, 47.51 0.22 M0.01 60.96 C20.26 37.66, 40.52 14.36, 53.15 -0.17 M0.01 60.96 C10.8 48.54, 21.59 36.13, 53.15 -0.17 M-0.25 67.36 C12.25 52.97, 24.75 38.59, 58.14 0.19 M-0.25 67.36 C20.61 43.36, 41.46 19.37, 58.14 0.19 M0.14 73 C24.02 45.53, 47.9 18.06, 63.78 -0.21 M0.14 73 C15.41 55.43, 30.68 37.87, 63.78 -0.21 M-0.12 79.4 C17.58 59.04, 35.28 38.67, 68.77 0.15 M-0.12 79.4 C22.38 53.51, 44.88 27.63, 68.77 0.15 M0.28 85.04 C21.16 61.01, 42.05 36.98, 74.41 -0.24 M0.28 85.04 C21.13 61.05, 41.98 37.06, 74.41 -0.24 M0.01 91.44 C28.97 58.13, 57.93 24.82, 79.4 0.12 M0.01 91.44 C23.36 64.59, 46.7 37.73, 79.4 0.12 M-0.25 97.84 C31.84 60.93, 63.92 24.02, 85.04 -0.28 M-0.25 97.84 C18.41 76.37, 37.07 54.9, 85.04 -0.28 M0.15 103.48 C18.46 82.42, 36.76 61.36, 90.03 0.08 M0.15 103.48 C28.06 71.37, 55.97 39.27, 90.03 0.08 M-0.11 109.88 C20.5 86.17, 41.11 62.46, 95.67 -0.31 M-0.11 109.88 C34.65 69.89, 69.41 29.9, 95.67 -0.31 M0.28 115.52 C32.51 78.45, 64.74 41.37, 100.66 0.05 M0.28 115.52 C24.96 87.13, 49.64 58.74, 100.66 0.05 M0.02 121.92 C25.19 92.96, 50.36 64.01, 106.3 -0.34 M0.02 121.92 C25.83 92.22, 51.65 62.53, 106.3 -0.34 M-0.24 128.32 C38.29 83.99, 76.83 39.65, 111.29 0.02 M-0.24 128.32 C43.11 78.45, 86.45 28.58, 111.29 0.02 M0.15 133.96 C41.99 85.83, 83.83 37.7, 116.27 0.38 M0.15 133.96 C24.14 106.36, 48.13 78.76, 116.27 0.38 M-0.11 140.36 C47.1 86.04, 94.32 31.73, 121.92 -0.02 M-0.11 140.36 C29.94 105.79, 59.98 71.23, 121.92 -0.02 M0.29 146 C49.18 89.76, 98.07 33.51, 126.91 0.34 M0.29 146 C28.24 113.84, 56.2 81.68, 126.91 0.34 M0.02 152.4 C31.35 116.36, 62.67 80.33, 132.55 -0.05 M0.02 152.4 C45.7 99.86, 91.37 47.31, 132.55 -0.05 M-0.24 158.8 C54.33 96.03, 108.89 33.26, 137.54 0.31 M-0.24 158.8 C37.08 115.86, 74.4 72.93, 137.54 0.31 M0.16 164.44 C52.53 104.19, 104.91 43.93, 143.18 -0.09 M0.16 164.44 C32.87 126.8, 65.59 89.17, 143.18 -0.09 M-0.1 170.84 C52.24 110.63, 104.58 50.42, 148.17 0.27 M-0.1 170.84 C53.44 109.24, 106.98 47.65, 148.17 0.27 M0.29 176.48 C50.97 118.18, 101.64 59.89, 153.81 -0.12 M0.29 176.48 C40.52 130.2, 80.76 83.91, 153.81 -0.12 M0.03 182.88 C47.86 127.85, 95.69 72.83, 158.8 0.24 M0.03 182.88 C49.95 125.46, 99.86 68.03, 158.8 0.24 M-0.23 189.27 C59.52 120.53, 119.28 51.79, 164.44 -0.16 M-0.23 189.27 C37.15 146.28, 74.53 103.28, 164.44 -0.16 M0.16 194.92 C62.17 123.59, 124.18 52.25, 169.43 0.2 M0.16 194.92 C63.2 122.4, 126.25 49.87, 169.43 0.2 M0.56 200.56 C66.99 124.14, 133.42 47.72, 175.07 -0.19 M0.56 200.56 C57.19 135.41, 113.83 70.25, 175.07 -0.19 M6.2 200.17 C67.91 129.18, 129.62 58.19, 180.06 0.17 M6.2 200.17 C75 121.02, 143.8 41.88, 180.06 0.17 M11.19 200.53 C77.64 124.08, 144.1 47.63, 185.7 -0.23 M11.19 200.53 C76.56 125.33, 141.92 50.13, 185.7 -0.23 M16.17 200.89 C78.13 129.61, 140.1 58.33, 190.69 0.13 M16.17 200.89 C62.14 148.01, 108.11 95.13, 190.69 0.13 M21.82 200.49 C64.04 151.92, 106.26 103.35, 196.33 -0.26 M21.82 200.49 C59.45 157.2, 97.08 113.91, 196.33 -0.26 M26.8 200.85 C85.43 133.41, 144.05 65.98, 201.32 0.1 M26.8 200.85 C74.52 145.96, 122.24 91.06, 201.32 0.1 M32.45 200.46 C88.98 135.43, 145.51 70.4, 206.96 -0.3 M32.45 200.46 C85.69 139.21, 138.93 77.96, 206.96 -0.3 M37.43 200.82 C98.17 130.95, 158.91 61.08, 211.95 0.06 M37.43 200.82 C97.21 132.05, 156.99 63.28, 211.95 0.06 M43.08 200.42 C89.82 146.65, 136.57 92.87, 217.59 -0.33 M43.08 200.42 C98.74 136.39, 154.41 72.35, 217.59 -0.33 M48.06 200.78 C104.46 135.91, 160.85 71.04, 222.58 0.03 M48.06 200.78 C84.04 159.39, 120.02 118, 222.58 0.03 M53.71 200.39 C122.84 120.86, 191.97 41.34, 228.22 -0.36 M53.71 200.39 C115.16 129.7, 176.61 59.01, 228.22 -0.36 M58.69 200.75 C106.55 145.7, 154.4 90.65, 233.21 0 M58.69 200.75 C96.83 156.88, 134.96 113.02, 233.21 0 M64.34 200.35 C118.64 137.89, 172.94 75.42, 238.19 0.36 M64.34 200.35 C119.64 136.73, 174.95 73.11, 238.19 0.36 M69.32 200.71 C120.89 141.39, 172.46 82.07, 243.84 -0.04 M69.32 200.71 C130.84 129.95, 192.35 59.19, 243.84 -0.04 M74.97 200.32 C127.35 140.06, 179.74 79.79, 248.82 0.32 M74.97 200.32 C135.69 130.46, 196.42 60.61, 248.82 0.32 M79.95 200.68 C143.21 127.91, 206.47 55.14, 254.47 -0.07 M79.95 200.68 C149.73 120.41, 219.51 40.14, 254.47 -0.07 M85.6 200.28 C142.83 134.44, 200.07 68.6, 259.45 0.29 M85.6 200.28 C154.56 120.95, 223.53 41.61, 259.45 0.29 M90.58 200.65 C148.5 134.02, 206.42 67.39, 265.1 -0.11 M90.58 200.65 C155.33 126.17, 220.07 51.69, 265.1 -0.11 M96.23 200.25 C138.54 151.57, 180.86 102.89, 270.08 0.25 M96.23 200.25 C136.24 154.22, 176.25 108.19, 270.08 0.25 M101.21 200.61 C160.85 132.01, 220.49 63.4, 275.73 -0.14 M101.21 200.61 C152.72 141.36, 204.23 82.1, 275.73 -0.14 M106.86 200.22 C171.61 125.72, 236.37 51.23, 280.71 0.22 M106.86 200.22 C148.28 152.57, 189.7 104.92, 280.71 0.22 M111.84 200.58 C147.74 159.28, 183.63 117.99, 281.76 5.11 M111.84 200.58 C149.27 157.52, 186.7 114.46, 281.76 5.11 M117.49 200.18 C171 138.62, 224.52 77.06, 281.5 11.5 M117.49 200.18 C154.93 157.1, 192.38 114.03, 281.5 11.5 M122.47 200.54 C160.88 156.36, 199.29 112.18, 281.9 17.15 M122.47 200.54 C156.44 161.47, 190.41 122.4, 281.9 17.15 M128.12 200.15 C188.91 130.22, 249.69 60.29, 281.64 23.54 M128.12 200.15 C162.88 160.16, 197.63 120.18, 281.64 23.54 M133.1 200.51 C164.74 164.11, 196.38 127.71, 282.03 29.19 M133.1 200.51 C186.56 139.01, 240.01 77.52, 282.03 29.19 M138.09 200.87 C188.94 142.38, 239.78 83.89, 281.77 35.59 M138.09 200.87 C177.94 155.02, 217.8 109.18, 281.77 35.59 M143.73 200.47 C197.31 138.84, 250.89 77.21, 281.51 41.98 M143.73 200.47 C193.63 143.08, 243.52 85.69, 281.51 41.98 M148.72 200.83 C182.5 161.97, 216.28 123.12, 281.9 47.63 M148.72 200.83 C181.32 163.33, 213.92 125.83, 281.9 47.63 M154.37 200.44 C194.38 154.4, 234.4 108.37, 281.64 54.02 M154.37 200.44 C198.35 149.84, 242.33 99.25, 281.64 54.02 M159.35 200.8 C187.58 168.33, 215.81 135.85, 282.04 59.67 M159.35 200.8 C185.23 171.03, 211.11 141.26, 282.04 59.67 M165 200.4 C190.05 171.58, 215.11 142.75, 281.77 66.07 M165 200.4 C194.3 166.69, 223.61 132.98, 281.77 66.07 M169.98 200.76 C203.37 162.36, 236.76 123.95, 281.51 72.46 M169.98 200.76 C200.87 165.24, 231.75 129.71, 281.51 72.46 M175.63 200.37 C217.72 151.95, 259.81 103.52, 281.91 78.11 M175.63 200.37 C201 171.18, 226.37 141.99, 281.91 78.11 M180.61 200.73 C216.86 159.03, 253.12 117.32, 281.65 84.5 M180.61 200.73 C217.24 158.59, 253.87 116.45, 281.65 84.5 M186.26 200.33 C209.9 173.13, 233.55 145.93, 282.04 90.15 M186.26 200.33 C213.86 168.58, 241.45 136.83, 282.04 90.15 M191.24 200.69 C226.29 160.38, 261.33 120.07, 281.78 96.54 M191.24 200.69 C209.93 179.19, 228.62 157.69, 281.78 96.54 M196.89 200.3 C216.88 177.3, 236.88 154.29, 281.52 102.94 M196.89 200.3 C230.49 161.64, 264.1 122.98, 281.52 102.94 M201.87 200.66 C221.4 178.2, 240.93 155.73, 281.91 108.59 M201.87 200.66 C231.16 166.97, 260.44 133.28, 281.91 108.59 M207.52 200.27 C230.85 173.43, 254.18 146.59, 281.65 114.98 M207.52 200.27 C235.86 167.66, 264.2 135.06, 281.65 114.98 M212.5 200.63 C231.32 178.97, 250.15 157.32, 282.04 120.63 M212.5 200.63 C227.59 183.27, 242.68 165.91, 282.04 120.63 M218.15 200.23 C238.13 177.25, 258.11 154.26, 281.78 127.02 M218.15 200.23 C235.91 179.79, 253.68 159.36, 281.78 127.02 M223.13 200.59 C240.03 181.15, 256.94 161.71, 281.52 133.42 M223.13 200.59 C243.83 176.78, 264.53 152.97, 281.52 133.42 M228.78 200.2 C247.22 178.98, 265.66 157.77, 281.92 139.07 M228.78 200.2 C246.95 179.29, 265.12 158.39, 281.92 139.07 M233.76 200.56 C243.53 189.32, 253.3 178.08, 281.65 145.46 M233.76 200.56 C252.54 178.96, 271.31 157.36, 281.65 145.46 M239.41 200.16 C248.28 189.96, 257.15 179.75, 282.05 151.11 M239.41 200.16 C249.79 188.21, 260.18 176.26, 282.05 151.11 M244.39 200.52 C259.32 183.35, 274.25 166.18, 281.79 157.5 M244.39 200.52 C257.93 184.95, 271.46 169.38, 281.79 157.5 M249.38 200.88 C261.36 187.1, 273.34 173.32, 281.53 163.9 M249.38 200.88 C258.25 190.68, 267.11 180.48, 281.53 163.9 M255.02 200.49 C264.2 189.93, 273.37 179.38, 281.92 169.54 M255.02 200.49 C263.5 190.73, 271.98 180.98, 281.92 169.54 M260.01 200.85 C268.61 190.95, 277.22 181.05, 281.66 175.94 M260.01 200.85 C267.57 192.16, 275.12 183.46, 281.66 175.94 M265.65 200.45 C271.84 193.34, 278.02 186.22, 282.05 181.59 M265.65 200.45 C270.93 194.38, 276.21 188.31, 282.05 181.59 M270.64 200.81 C274.21 196.7, 277.79 192.59, 281.79 187.98 M270.64 200.81 C275.02 195.78, 279.39 190.75, 281.79 187.98 M276.28 200.42 C278.05 198.39, 279.81 196.36, 281.53 194.38 M276.28 200.42 C277.7 198.79, 279.12 197.16, 281.53 194.38" stroke="#fff5f5" stroke-width="0.5" fill="none"></path><path d="M0 0 C81.84 0, 163.68 0, 281.27 0 M0 0 C85.79 0, 171.59 0, 281.27 0 M281.27 0 C281.27 48.58, 281.27 97.16, 281.27 200 M281.27 0 C281.27 72.36, 281.27 144.73, 281.27 200 M281.27 200 C172.43 200, 63.59 200, 0 200 M281.27 200 C196 200, 110.73 200, 0 200 M0 200 C0 148.6, 0 97.2, 0 0 M0 200 C0 159.9, 0 119.81, 0 0" stroke="#2f9e44" stroke-width="1" fill="none"></path></g><g stroke-linecap="round" transform="translate(10 469) rotate(0 72.76171875 34)"><path d="M0 0 C0 0, 0 0, 0 0 M0 0 C0 0, 0 0, 0 0 M-0.26 6.4 C1.12 4.81, 2.51 3.21, 4.99 0.36 M-0.26 6.4 C1.17 4.75, 2.6 3.11, 4.99 0.36 M0.13 12.04 C3.43 8.25, 6.72 4.46, 10.63 -0.03 M0.13 12.04 C2.53 9.28, 4.93 6.52, 10.63 -0.03 M-0.13 18.44 C5.17 12.34, 10.47 6.24, 15.62 0.33 M-0.13 18.44 C3.31 14.49, 6.74 10.54, 15.62 0.33 M0.27 24.08 C7.51 15.74, 14.76 7.41, 21.26 -0.07 M0.27 24.08 C7.78 15.44, 15.29 6.8, 21.26 -0.07 M0 30.48 C6.78 22.68, 13.56 14.88, 26.25 0.29 M0 30.48 C7.29 22.1, 14.58 13.71, 26.25 0.29 M-0.26 36.88 C11.38 23.49, 23.02 10.1, 31.89 -0.1 M-0.26 36.88 C8.09 27.28, 16.43 17.68, 31.89 -0.1 M0.14 42.52 C13.83 26.76, 27.53 11.01, 36.88 0.26 M0.14 42.52 C13.87 26.73, 27.6 10.93, 36.88 0.26 M-0.12 48.92 C12.64 34.23, 25.41 19.55, 42.52 -0.14 M-0.12 48.92 C9.11 38.3, 18.34 27.68, 42.52 -0.14 M0.27 54.56 C14.71 37.95, 29.15 21.34, 47.51 0.22 M0.27 54.56 C11.98 41.09, 23.7 27.61, 47.51 0.22 M0.01 60.96 C19.84 38.14, 39.68 15.33, 53.15 -0.17 M0.01 60.96 C17.52 40.82, 35.02 20.68, 53.15 -0.17 M-0.25 67.36 C20.98 42.93, 42.21 18.51, 58.14 0.19 M-0.25 67.36 C14.98 49.84, 30.21 32.31, 58.14 0.19 M4.08 68.47 C20.86 49.17, 37.63 29.87, 63.78 -0.21 M4.08 68.47 C23.08 46.61, 42.09 24.75, 63.78 -0.21 M9.72 68.08 C29.48 45.35, 49.24 22.61, 68.77 0.15 M9.72 68.08 C32.84 41.48, 55.97 14.88, 68.77 0.15 M14.71 68.44 C26.73 54.61, 38.75 40.78, 74.41 -0.24 M14.71 68.44 C33.91 46.35, 53.12 24.25, 74.41 -0.24 M20.35 68.04 C37.36 48.48, 54.36 28.92, 79.4 0.12 M20.35 68.04 C34.41 51.87, 48.47 35.69, 79.4 0.12 M25.34 68.4 C48.87 41.34, 72.4 14.27, 85.04 -0.28 M25.34 68.4 C43.06 48.02, 60.78 27.63, 85.04 -0.28 M30.98 68.01 C53.08 42.59, 75.17 17.18, 90.03 0.08 M30.98 68.01 C43.81 53.26, 56.63 38.5, 90.03 0.08 M35.97 68.37 C47.93 54.61, 59.89 40.85, 95.67 -0.31 M35.97 68.37 C49.1 53.27, 62.22 38.17, 95.67 -0.31 M41.61 67.97 C54.89 52.7, 68.17 37.42, 100.66 0.05 M41.61 67.97 C63.12 43.24, 84.62 18.5, 100.66 0.05 M46.6 68.33 C61.08 51.68, 75.56 35.02, 106.3 -0.34 M46.6 68.33 C63.65 48.72, 80.7 29.1, 106.3 -0.34 M52.24 67.94 C73.09 43.95, 93.94 19.97, 111.29 0.02 M52.24 67.94 C71.92 45.3, 91.6 22.66, 111.29 0.02 M57.23 68.3 C70.47 53.07, 83.7 37.85, 116.27 0.38 M57.23 68.3 C75.39 47.4, 93.56 26.51, 116.27 0.38 M62.87 67.9 C83.72 43.92, 104.58 19.93, 121.92 -0.02 M62.87 67.9 C86.35 40.9, 109.82 13.9, 121.92 -0.02 M67.86 68.26 C87.36 45.84, 106.85 23.41, 126.91 0.34 M67.86 68.26 C86.65 46.65, 105.44 25.03, 126.91 0.34 M72.85 68.62 C90.78 47.99, 108.72 27.36, 132.55 -0.05 M72.85 68.62 C87.69 51.55, 102.53 34.48, 132.55 -0.05 M78.49 68.23 C91.87 52.83, 105.26 37.44, 137.54 0.31 M78.49 68.23 C100.25 43.2, 122.01 18.16, 137.54 0.31 M83.48 68.59 C104.47 44.44, 125.47 20.28, 143.18 -0.09 M83.48 68.59 C107.17 41.33, 130.86 14.08, 143.18 -0.09 M89.12 68.2 C103.85 51.26, 118.57 34.32, 145.54 3.29 M89.12 68.2 C107.65 46.88, 126.17 25.57, 145.54 3.29 M94.11 68.56 C111.99 47.99, 129.87 27.42, 145.94 8.93 M94.11 68.56 C113.37 46.4, 132.63 24.24, 145.94 8.93 M99.75 68.16 C111.77 54.33, 123.79 40.5, 145.67 15.33 M99.75 68.16 C112.9 53.04, 126.04 37.92, 145.67 15.33 M104.74 68.52 C120.99 49.83, 137.23 31.14, 145.41 21.73 M104.74 68.52 C117.78 53.51, 130.83 38.51, 145.41 21.73 M110.38 68.13 C122.38 54.32, 134.39 40.51, 145.81 27.37 M110.38 68.13 C122.76 53.88, 135.15 39.64, 145.81 27.37 M115.37 68.49 C124.89 57.53, 134.42 46.57, 145.55 33.77 M115.37 68.49 C121.73 61.16, 128.1 53.84, 145.55 33.77 M121.01 68.09 C128.07 59.97, 135.14 51.84, 145.94 39.41 M121.01 68.09 C127.1 61.09, 133.19 54.08, 145.94 39.41 M126 68.45 C133.38 59.95, 140.77 51.46, 145.68 45.81 M126 68.45 C130.48 63.3, 134.96 58.14, 145.68 45.81 M131.64 68.06 C136.71 62.23, 141.77 56.4, 145.42 52.21 M131.64 68.06 C135.98 63.06, 140.33 58.06, 145.42 52.21 M136.63 68.42 C139.76 64.81, 142.9 61.2, 145.81 57.85 M136.63 68.42 C140.07 64.45, 143.52 60.49, 145.81 57.85 M142.27 68.02 C143.4 66.72, 144.54 65.42, 145.55 64.25 M142.27 68.02 C143.34 66.79, 144.41 65.56, 145.55 64.25" stroke="#fff5f5" stroke-width="0.5" fill="none"></path><path d="M0 0 C29.67 0, 59.34 0, 145.52 0 M0 0 C48.77 0, 97.53 0, 145.52 0 M145.52 0 C145.52 19.91, 145.52 39.82, 145.52 68 M145.52 0 C145.52 21.95, 145.52 43.91, 145.52 68 M145.52 68 C105.5 68, 65.47 68, 0 68 M145.52 68 C108.75 68, 71.98 68, 0 68 M0 68 C0 42.41, 0 16.83, 0 0 M0 68 C0 45.18, 0 22.37, 0 0" stroke="#2f9e44" stroke-width="1" fill="none"></path></g><g stroke-linecap="round" transform="translate(205.5234375 469) rotate(0 73.3359375 34)"><path d="M0 0 C0 0, 0 0, 0 0 M0 0 C0 0, 0 0, 0 0 M-0.26 6.4 C1.31 4.6, 2.87 2.79, 4.99 0.36 M-0.26 6.4 C0.88 5.09, 2.01 3.78, 4.99 0.36 M0.13 12.04 C3.71 7.93, 7.28 3.82, 10.63 -0.03 M0.13 12.04 C2.91 8.85, 5.68 5.66, 10.63 -0.03 M-0.13 18.44 C5.99 11.4, 12.11 4.36, 15.62 0.33 M-0.13 18.44 C5.3 12.19, 10.73 5.95, 15.62 0.33 M0.27 24.08 C8.63 14.46, 17 4.83, 21.26 -0.07 M0.27 24.08 C5.82 17.69, 11.37 11.3, 21.26 -0.07 M0 30.48 C7.04 22.39, 14.07 14.3, 26.25 0.29 M0 30.48 C8.03 21.24, 16.06 12.01, 26.25 0.29 M-0.26 36.88 C9.39 25.78, 19.04 14.68, 31.89 -0.1 M-0.26 36.88 C11.47 23.39, 23.2 9.89, 31.89 -0.1 M0.14 42.52 C9.89 31.3, 19.65 20.08, 36.88 0.26 M0.14 42.52 C10.74 30.32, 21.34 18.13, 36.88 0.26 M-0.12 48.92 C11.16 35.94, 22.45 22.95, 42.52 -0.14 M-0.12 48.92 C8.96 38.47, 18.04 28.02, 42.52 -0.14 M0.27 54.56 C18.73 33.32, 37.2 12.08, 47.51 0.22 M0.27 54.56 C14.44 38.26, 28.62 21.95, 47.51 0.22 M0.01 60.96 C20.86 36.97, 41.72 12.98, 53.15 -0.17 M0.01 60.96 C14.66 44.11, 29.3 27.26, 53.15 -0.17 M-0.25 67.36 C19.32 44.84, 38.89 22.33, 58.14 0.19 M-0.25 67.36 C21.15 42.74, 42.54 18.13, 58.14 0.19 M4.08 68.47 C19.91 50.26, 35.74 32.05, 63.78 -0.21 M4.08 68.47 C18.3 52.11, 32.52 35.75, 63.78 -0.21 M9.72 68.08 C25.72 49.68, 41.71 31.28, 68.77 0.15 M9.72 68.08 C29.36 45.48, 49 22.89, 68.77 0.15 M14.71 68.44 C35.36 44.68, 56.02 20.92, 74.41 -0.24 M14.71 68.44 C26.95 54.36, 39.19 40.27, 74.41 -0.24 M20.35 68.04 C35.2 50.96, 50.06 33.87, 79.4 0.12 M20.35 68.04 C35.83 50.24, 51.3 32.44, 79.4 0.12 M25.34 68.4 C47.96 42.38, 70.59 16.35, 85.04 -0.28 M25.34 68.4 C43.19 47.87, 61.04 27.34, 85.04 -0.28 M30.98 68.01 C43.5 53.61, 56.02 39.2, 90.03 0.08 M30.98 68.01 C44.99 51.9, 58.99 35.79, 90.03 0.08 M35.97 68.37 C59.24 41.6, 82.5 14.84, 95.67 -0.31 M35.97 68.37 C51.6 50.39, 67.22 32.42, 95.67 -0.31 M41.61 67.97 C63.37 42.95, 85.13 17.92, 100.66 0.05 M41.61 67.97 C62.81 43.59, 84 19.21, 100.66 0.05 M46.6 68.33 C63.61 48.77, 80.62 29.2, 106.3 -0.34 M46.6 68.33 C61.75 50.9, 76.9 33.47, 106.3 -0.34 M52.24 67.94 C65.13 53.12, 78.01 38.3, 111.29 0.02 M52.24 67.94 C72.75 44.35, 93.26 20.76, 111.29 0.02 M57.23 68.3 C72.14 51.14, 87.06 33.99, 116.27 0.38 M57.23 68.3 C72.25 51.03, 87.26 33.75, 116.27 0.38 M62.87 67.9 C82.94 44.82, 103.01 21.73, 121.92 -0.02 M62.87 67.9 C82.99 44.76, 103.11 21.62, 121.92 -0.02 M67.86 68.26 C89.23 43.68, 110.6 19.1, 126.91 0.34 M67.86 68.26 C83.29 50.52, 98.71 32.77, 126.91 0.34 M72.85 68.62 C96.33 41.61, 119.81 14.6, 132.55 -0.05 M72.85 68.62 C90.56 48.25, 108.26 27.88, 132.55 -0.05 M78.49 68.23 C99.95 43.54, 121.41 18.85, 137.54 0.31 M78.49 68.23 C95.69 48.44, 112.89 28.66, 137.54 0.31 M83.48 68.59 C102.56 46.64, 121.64 24.69, 143.18 -0.09 M83.48 68.59 C106.82 41.74, 130.16 14.88, 143.18 -0.09 M89.12 68.2 C105.8 49, 122.48 29.81, 146.85 1.78 M89.12 68.2 C111.06 42.96, 132.99 17.73, 146.85 1.78 M94.11 68.56 C112.02 47.95, 129.93 27.35, 146.59 8.18 M94.11 68.56 C105.59 55.35, 117.06 42.15, 146.59 8.18 M99.75 68.16 C111.62 54.5, 123.49 40.85, 146.99 13.82 M99.75 68.16 C117.76 47.44, 135.78 26.71, 146.99 13.82 M104.74 68.52 C119.92 51.05, 135.11 33.58, 146.72 20.22 M104.74 68.52 C121.25 49.52, 137.77 30.53, 146.72 20.22 M110.38 68.13 C119.38 57.78, 128.37 47.43, 147.12 25.86 M110.38 68.13 C123.92 52.55, 137.46 36.98, 147.12 25.86 M115.37 68.49 C126.89 55.23, 138.41 41.98, 146.86 32.26 M115.37 68.49 C126.3 55.91, 137.23 43.33, 146.86 32.26 M121.01 68.09 C129.84 57.94, 138.67 47.78, 146.6 38.66 M121.01 68.09 C126.97 61.23, 132.94 54.37, 146.6 38.66 M126 68.45 C130.61 63.14, 135.23 57.83, 146.99 44.3 M126 68.45 C132.95 60.45, 139.91 52.45, 146.99 44.3 M131.64 68.06 C136.3 62.7, 140.95 57.35, 146.73 50.7 M131.64 68.06 C135.95 63.1, 140.26 58.15, 146.73 50.7 M136.63 68.42 C139.47 65.14, 142.32 61.87, 147.12 56.34 M136.63 68.42 C138.89 65.81, 141.15 63.21, 147.12 56.34 M142.27 68.02 C143.99 66.05, 145.7 64.08, 146.86 62.74 M142.27 68.02 C143.44 66.68, 144.61 65.33, 146.86 62.74" stroke="#fff5f5" stroke-width="0.5" fill="none"></path><path d="M0 0 C37.2 0, 74.39 0, 146.67 0 M0 0 C38.72 0, 77.44 0, 146.67 0 M146.67 0 C146.67 25.73, 146.67 51.46, 146.67 68 M146.67 0 C146.67 27.09, 146.67 54.18, 146.67 68 M146.67 68 C105.01 68, 63.36 68, 0 68 M146.67 68 C107.81 68, 68.95 68, 0 68 M0 68 C0 44.17, 0 20.34, 0 0 M0 68 C0 44.1, 0 20.2, 0 0" stroke="#2f9e44" stroke-width="1" fill="none"></path></g><g stroke-linecap="round" transform="translate(402.1953125 469) rotate(0 48.4453125 34)"><path d="M0 0 C0 0, 0 0, 0 0 M0 0 C0 0, 0 0, 0 0 M-0.26 6.4 C1 4.95, 2.26 3.5, 4.99 0.36 M-0.26 6.4 C1.74 4.1, 3.74 1.8, 4.99 0.36 M0.13 12.04 C3.57 8.09, 7 4.14, 10.63 -0.03 M0.13 12.04 C3.34 8.35, 6.56 4.65, 10.63 -0.03 M-0.13 18.44 C6.03 11.36, 12.18 4.28, 15.62 0.33 M-0.13 18.44 C3.75 13.98, 7.62 9.53, 15.62 0.33 M0.27 24.08 C8.47 14.64, 16.68 5.2, 21.26 -0.07 M0.27 24.08 C5.19 18.42, 10.11 12.76, 21.26 -0.07 M0 30.48 C7.01 22.42, 14.01 14.37, 26.25 0.29 M0 30.48 C9.01 20.12, 18.01 9.77, 26.25 0.29 M-0.26 36.88 C6.21 29.43, 12.69 21.99, 31.89 -0.1 M-0.26 36.88 C6.81 28.75, 13.87 20.62, 31.89 -0.1 M0.14 42.52 C10.48 30.63, 20.82 18.73, 36.88 0.26 M0.14 42.52 C8.45 32.96, 16.76 23.39, 36.88 0.26 M-0.12 48.92 C15.32 31.15, 30.77 13.38, 42.52 -0.14 M-0.12 48.92 C15.89 30.5, 31.89 12.09, 42.52 -0.14 M0.27 54.56 C15.8 36.7, 31.32 18.84, 47.51 0.22 M0.27 54.56 C12.96 39.96, 25.65 25.36, 47.51 0.22 M0.01 60.96 C19.06 39.05, 38.11 17.14, 53.15 -0.17 M0.01 60.96 C12.43 46.67, 24.85 32.38, 53.15 -0.17 M-0.25 67.36 C22.18 41.55, 44.61 15.75, 58.14 0.19 M-0.25 67.36 C15.04 49.76, 30.33 32.17, 58.14 0.19 M4.08 68.47 C25.34 44.02, 46.59 19.56, 63.78 -0.21 M4.08 68.47 C24.72 44.73, 45.36 20.98, 63.78 -0.21 M9.72 68.08 C27.7 47.39, 45.69 26.71, 68.77 0.15 M9.72 68.08 C22.5 53.37, 35.28 38.67, 68.77 0.15 M14.71 68.44 C26.8 54.53, 38.89 40.63, 74.41 -0.24 M14.71 68.44 C31.51 49.11, 48.31 29.79, 74.41 -0.24 M20.35 68.04 C33.81 52.57, 47.26 37.09, 79.4 0.12 M20.35 68.04 C41.7 43.49, 63.05 18.93, 79.4 0.12 M25.34 68.4 C38.85 52.86, 52.36 37.32, 85.04 -0.28 M25.34 68.4 C39.02 52.67, 52.7 36.93, 85.04 -0.28 M30.98 68.01 C53.03 42.65, 75.07 17.29, 90.03 0.08 M30.98 68.01 C51.36 44.57, 71.73 21.13, 90.03 0.08 M35.97 68.37 C50.14 52.07, 64.31 35.77, 95.67 -0.31 M35.97 68.37 C59.63 41.15, 83.29 13.93, 95.67 -0.31 M41.61 67.97 C55.08 52.48, 68.54 36.99, 97.38 3.82 M41.61 67.97 C54.65 52.98, 67.68 37.99, 97.38 3.82 M46.6 68.33 C63.32 49.1, 80.04 29.87, 97.77 9.47 M46.6 68.33 C57.3 56.03, 68 43.72, 97.77 9.47 M52.24 67.94 C61.93 56.79, 71.62 45.65, 97.51 15.86 M52.24 67.94 C66.41 51.64, 80.58 35.34, 97.51 15.86 M57.23 68.3 C67.91 56.01, 78.59 43.73, 97.25 22.26 M57.23 68.3 C69.72 53.93, 82.22 39.55, 97.25 22.26 M62.87 67.9 C75.18 53.75, 87.48 39.59, 97.64 27.9 M62.87 67.9 C72.85 56.42, 82.84 44.94, 97.64 27.9 M67.86 68.26 C77.05 57.69, 86.24 47.12, 97.38 34.3 M67.86 68.26 C78.76 55.72, 89.66 43.18, 97.38 34.3 M72.85 68.62 C77.97 62.73, 83.09 56.84, 97.78 39.95 M72.85 68.62 C79.8 60.63, 86.75 52.63, 97.78 39.95 M78.49 68.23 C86.01 59.58, 93.52 50.94, 97.52 46.34 M78.49 68.23 C83.48 62.48, 88.48 56.74, 97.52 46.34 M83.48 68.59 C88.91 62.34, 94.33 56.1, 97.25 52.74 M83.48 68.59 C86.65 64.94, 89.82 61.29, 97.25 52.74 M89.12 68.2 C91.97 64.92, 94.82 61.64, 97.65 58.38 M89.12 68.2 C91.62 65.32, 94.12 62.44, 97.65 58.38 M94.11 68.56 C94.85 67.7, 95.59 66.85, 97.39 64.78 M94.11 68.56 C95.1 67.42, 96.08 66.28, 97.39 64.78" stroke="#fff5f5" stroke-width="0.5" fill="none"></path><path d="M0 0 C38.73 0, 77.45 0, 96.89 0 M0 0 C20 0, 40 0, 96.89 0 M96.89 0 C96.89 18.34, 96.89 36.69, 96.89 68 M96.89 0 C96.89 15.23, 96.89 30.46, 96.89 68 M96.89 68 C74.4 68, 51.92 68, 0 68 M96.89 68 C71.83 68, 46.77 68, 0 68 M0 68 C0 48.73, 0 29.46, 0 0 M0 68 C0 53.54, 0 39.09, 0 0" stroke="#2f9e44" stroke-width="1" fill="none"></path></g><g stroke-linecap="round" transform="translate(549.0859375 469) rotate(0 47.375 34)"><path d="M0 0 C0 0, 0 0, 0 0 M0 0 C0 0, 0 0, 0 0 M-0.26 6.4 C1.35 4.55, 2.95 2.7, 4.99 0.36 M-0.26 6.4 C1.3 4.6, 2.86 2.8, 4.99 0.36 M0.13 12.04 C3.83 7.79, 7.53 3.53, 10.63 -0.03 M0.13 12.04 C3.88 7.73, 7.62 3.43, 10.63 -0.03 M-0.13 18.44 C4.9 12.65, 9.93 6.87, 15.62 0.33 M-0.13 18.44 C5.51 11.96, 11.14 5.47, 15.62 0.33 M0.27 24.08 C5.17 18.44, 10.08 12.79, 21.26 -0.07 M0.27 24.08 C6.55 16.86, 12.82 9.64, 21.26 -0.07 M0 30.48 C8.91 20.23, 17.82 9.98, 26.25 0.29 M0 30.48 C9.95 19.04, 19.89 7.6, 26.25 0.29 M-0.26 36.88 C11.34 23.54, 22.93 10.21, 31.89 -0.1 M-0.26 36.88 C10.51 24.49, 21.28 12.11, 31.89 -0.1 M0.14 42.52 C13.5 27.15, 26.87 11.77, 36.88 0.26 M0.14 42.52 C14.12 26.44, 28.1 10.35, 36.88 0.26 M-0.12 48.92 C9.29 38.09, 18.71 27.25, 42.52 -0.14 M-0.12 48.92 C14.51 32.08, 29.15 15.24, 42.52 -0.14 M0.27 54.56 C13.07 39.84, 25.87 25.11, 47.51 0.22 M0.27 54.56 C9.78 43.62, 19.3 32.67, 47.51 0.22 M0.01 60.96 C20.4 37.5, 40.79 14.05, 53.15 -0.17 M0.01 60.96 C11.81 47.38, 23.61 33.8, 53.15 -0.17 M-0.25 67.36 C12.64 52.52, 25.54 37.68, 58.14 0.19 M-0.25 67.36 C17.19 47.29, 34.63 27.23, 58.14 0.19 M4.08 68.47 C21.97 47.89, 39.86 27.31, 63.78 -0.21 M4.08 68.47 C21.28 48.68, 38.48 28.89, 63.78 -0.21 M9.72 68.08 C24.76 50.78, 39.79 33.49, 68.77 0.15 M9.72 68.08 C30.3 44.4, 50.88 20.73, 68.77 0.15 M14.71 68.44 C32.65 47.8, 50.59 27.16, 74.41 -0.24 M14.71 68.44 C31.23 49.43, 47.76 30.42, 74.41 -0.24 M20.35 68.04 C37.74 48.04, 55.13 28.03, 79.4 0.12 M20.35 68.04 C34.87 51.35, 49.38 34.65, 79.4 0.12 M25.34 68.4 C49.17 40.99, 73 13.58, 85.04 -0.28 M25.34 68.4 C45.78 44.89, 66.21 21.39, 85.04 -0.28 M30.98 68.01 C51.31 44.62, 71.64 21.24, 90.03 0.08 M30.98 68.01 C48.94 47.36, 66.89 26.7, 90.03 0.08 M35.97 68.37 C53.09 48.68, 70.21 28.98, 95.01 0.44 M35.97 68.37 C51.18 50.87, 66.39 33.38, 95.01 0.44 M41.61 67.97 C57.14 50.11, 72.67 32.24, 95.41 6.09 M41.61 67.97 C55.36 52.16, 69.11 36.34, 95.41 6.09 M46.6 68.33 C63.51 48.88, 80.41 29.43, 95.15 12.49 M46.6 68.33 C57.01 56.36, 67.41 44.39, 95.15 12.49 M52.24 67.94 C64.78 53.52, 77.31 39.1, 94.89 18.88 M52.24 67.94 C62.97 55.6, 73.69 43.27, 94.89 18.88 M57.23 68.3 C66.02 58.19, 74.8 48.08, 95.28 24.53 M57.23 68.3 C65.72 58.53, 74.21 48.77, 95.28 24.53 M62.87 67.9 C69.53 60.24, 76.2 52.58, 95.02 30.92 M62.87 67.9 C71.28 58.23, 79.69 48.56, 95.02 30.92 M67.86 68.26 C75.46 59.52, 83.06 50.78, 95.41 36.57 M67.86 68.26 C76.48 58.35, 85.1 48.43, 95.41 36.57 M72.85 68.62 C80.82 59.46, 88.79 50.29, 95.15 42.96 M72.85 68.62 C78.97 61.58, 85.09 54.54, 95.15 42.96 M78.49 68.23 C83.45 62.53, 88.41 56.82, 94.89 49.36 M78.49 68.23 C83.93 61.97, 89.37 55.71, 94.89 49.36 M83.48 68.59 C87.66 63.78, 91.84 58.97, 95.29 55.01 M83.48 68.59 C86.99 64.55, 90.5 60.51, 95.29 55.01 M89.12 68.2 C90.36 66.76, 91.61 65.33, 95.02 61.4 M89.12 68.2 C91.17 65.84, 93.21 63.49, 95.02 61.4 M94.11 68.56 C94.49 68.12, 94.86 67.68, 95.42 67.05 M94.11 68.56 C94.57 68.02, 95.04 67.48, 95.42 67.05" stroke="#fff5f5" stroke-width="0.5" fill="none"></path><path d="M0 0 C30.26 0, 60.52 0, 94.75 0 M0 0 C35.86 0, 71.72 0, 94.75 0 M94.75 0 C94.75 21.57, 94.75 43.14, 94.75 68 M94.75 0 C94.75 18.62, 94.75 37.24, 94.75 68 M94.75 68 C58.74 68, 22.74 68, 0 68 M94.75 68 C63.61 68, 32.48 68, 0 68 M0 68 C0 41.9, 0 15.81, 0 0 M0 68 C0 41, 0 14, 0 0" stroke="#2f9e44" stroke-width="1" fill="none"></path></g><g stroke-linecap="round"><g transform="translate(174.69140625 51) rotate(0 190.05859375 0)"><path d="M0 0 C93.09 0, 186.18 0, 380.12 0 M0 0 C98.72 0, 197.44 0, 380.12 0" stroke="#2f9e44" stroke-width="1" fill="none"></path></g></g><mask></mask><g stroke-linecap="round"><g transform="translate(174.69140625 100) rotate(0 190.05859375 0)"><path d="M0 0 C76.44 0, 152.88 0, 380.12 0 M0 0 C135.32 0, 270.64 0, 380.12 0" stroke="#2f9e44" stroke-width="1" fill="none"></path></g></g><mask></mask><g stroke-linecap="round"><g transform="translate(224.11328125 231) rotate(0 140.63671875 0)"><path d="M0 0 C68.32 0, 136.64 0, 281.27 0 M0 0 C101.77 0, 203.54 0, 281.27 0" stroke="#2f9e44" stroke-width="1" fill="none"></path></g></g><mask></mask><g stroke-linecap="round"><g transform="translate(224.11328125 379) rotate(0 140.63671875 0)"><path d="M0 0 C82.36 0, 164.71 0, 281.27 0 M0 0 C90.8 0, 181.61 0, 281.27 0" stroke="#2f9e44" stroke-width="1" fill="none"></path></g></g><mask></mask><g stroke-linecap="round"><g transform="translate(10 510) rotate(0 72.76171875 0)"><path d="M0 0 C55.06 0, 110.12 0, 145.52 0 M0 0 C57.98 0, 115.95 0, 145.52 0" stroke="#2f9e44" stroke-width="1" fill="none"></path></g></g><mask></mask><g stroke-linecap="round"><g transform="translate(10 526) rotate(0 72.76171875 0)"><path d="M0 0 C39.26 0, 78.52 0, 145.52 0 M0 0 C32.6 0, 65.2 0, 145.52 0" stroke="#2f9e44" stroke-width="1" fill="none"></path></g></g><mask></mask><g stroke-linecap="round"><g transform="translate(205.5234375 510) rotate(0 73.3359375 0)"><path d="M0 0 C46.53 0, 93.06 0, 146.67 0 M0 0 C40.17 0, 80.33 0, 146.67 0" stroke="#2f9e44" stroke-width="1" fill="none"></path></g></g><mask></mask><g stroke-linecap="round"><g transform="translate(205.5234375 526) rotate(0 73.3359375 0)"><path d="M0 0 C42.32 0, 84.65 0, 146.67 0 M0 0 C32.75 0, 65.49 0, 146.67 0" stroke="#2f9e44" stroke-width="1" fill="none"></path></g></g><mask></mask><g stroke-linecap="round"><g transform="translate(402.1953125 510) rotate(0 48.4453125 0)"><path d="M0 0 C20.02 0, 40.04 0, 96.89 0 M0 0 C30.16 0, 60.33 0, 96.89 0" stroke="#2f9e44" stroke-width="1" fill="none"></path></g></g><mask></mask><g stroke-linecap="round"><g transform="translate(402.1953125 526) rotate(0 48.4453125 0)"><path d="M0 0 C37.49 0, 74.99 0, 96.89 0 M0 0 C29.37 0, 58.75 0, 96.89 0" stroke="#2f9e44" stroke-width="1" fill="none"></path></g></g><mask></mask><g stroke-linecap="round"><g transform="translate(549.0859375 510) rotate(0 47.375 0)"><path d="M0 0 C26.06 0, 52.12 0, 94.75 0 M0 0 C23.94 0, 47.88 0, 94.75 0" stroke="#2f9e44" stroke-width="1" fill="none"></path></g></g><mask></mask><g stroke-linecap="round"><g transform="translate(549.0859375 526) rotate(0 47.375 0)"><path d="M0 0 C26.91 0, 53.82 0, 94.75 0 M0 0 C25.1 0, 50.21 0, 94.75 0" stroke="#2f9e44" stroke-width="1" fill="none"></path></g></g><mask></mask><g mask="url(#mask-1HSQsiDOiKzvZVocLSFss)" stroke-linecap="round"><g transform="translate(364.75 111.5) rotate(0 0 39)"><path d="M0 0 C0 13, 0 65, 0 78 M0 0 C0 13, 0 65, 0 78" stroke="#2f9e44" stroke-width="1" fill="none"></path></g><g transform="translate(364.75 111.5) rotate(0 0 39)"><path d="M-8.55 54.51 C-6.57 59.96, -4.58 65.41, 0 78 M-8.55 54.51 C-6.34 60.58, -4.13 66.66, 0 78" stroke="#2f9e44" stroke-width="1" fill="none"></path></g><g transform="translate(364.75 111.5) rotate(0 0 39)"><path d="M8.55 54.51 C6.57 59.96, 4.58 65.41, 0 78 M8.55 54.51 C6.34 60.58, 4.13 66.66, 0 78" stroke="#2f9e44" stroke-width="1" fill="none"></path></g></g><mask id="mask-1HSQsiDOiKzvZVocLSFss"><rect x="0" y="0" fill="#fff" width="464.75" height="290.5"></rect><rect x="341.3125" y="138.5" fill="#000" width="46.875" height="24" opacity="1"></rect></mask><g mask="url(#mask-jfWgw38YaSPcmRiGl4w--)" stroke-linecap="round"><g transform="translate(223.61300000000006 360.0730000000003) rotate(0 -70.1755 54.21349999999984)"><path d="M0 0 C-23.39 18.07, -116.96 90.36, -140.35 108.43 M0 0 C-23.39 18.07, -116.96 90.36, -140.35 108.43" stroke="#2f9e44" stroke-width="1" fill="none"></path></g><g transform="translate(223.61300000000006 360.0730000000003) rotate(0 -70.1755 54.21349999999984)"><path d="M-126.99 87.3 C-132.07 95.33, -137.14 103.36, -140.35 108.43 M-126.99 87.3 C-131.38 94.24, -135.77 101.19, -140.35 108.43" stroke="#2f9e44" stroke-width="1" fill="none"></path></g><g transform="translate(223.61300000000006 360.0730000000003) rotate(0 -70.1755 54.21349999999984)"><path d="M-116.53 100.83 C-125.58 103.72, -134.64 106.6, -140.35 108.43 M-116.53 100.83 C-124.36 103.33, -132.19 105.82, -140.35 108.43" stroke="#2f9e44" stroke-width="1" fill="none"></path></g></g><mask id="mask-jfWgw38YaSPcmRiGl4w--"><rect x="0" y="0" fill="#fff" width="463.96400000000006" height="568.5000000000003"></rect><rect x="130" y="402.28650000000016" fill="#000" width="46.875" height="24" opacity="1"></rect></mask><g mask="url(#mask-8PN7ctpI-Il7Ywrrste1C)" stroke-linecap="round"><g transform="translate(302.68 390.5) rotate(0 -11.660500000000013 39)"><path d="M0 0 C-3.89 13, -19.43 65, -23.32 78 M0 0 C-3.89 13, -19.43 65, -23.32 78" stroke="#2f9e44" stroke-width="1" fill="none"></path></g><g transform="translate(302.68 390.5) rotate(0 -11.660500000000013 39)"><path d="M-24.78 53.04 C-24.39 59.75, -24 66.45, -23.32 78 M-24.78 53.04 C-24.33 60.74, -23.88 68.44, -23.32 78" stroke="#2f9e44" stroke-width="1" fill="none"></path></g><g transform="translate(302.68 390.5) rotate(0 -11.660500000000013 39)"><path d="M-8.4 57.94 C-12.41 63.33, -16.42 68.72, -23.32 78 M-8.4 57.94 C-13 64.13, -17.61 70.32, -23.32 78" stroke="#2f9e44" stroke-width="1" fill="none"></path></g></g><mask id="mask-8PN7ctpI-Il7Ywrrste1C"><rect x="0" y="0" fill="#fff" width="427.00100000000003" height="569.5"></rect><rect x="267.582" y="417.5" fill="#000" width="46.875" height="24" opacity="1"></rect></mask><g mask="url(#mask-n1znPGn0kjYQrpN-bsLbi)" stroke-linecap="round"><g transform="translate(426.82 390.5) rotate(0 11.660500000000013 39)"><path d="M0 0 C3.89 13, 19.43 65, 23.32 78 M0 0 C3.89 13, 19.43 65, 23.32 78" stroke="#2f9e44" stroke-width="1" fill="none"></path></g><g transform="translate(426.82 390.5) rotate(0 11.660500000000013 39)"><path d="M8.4 57.94 C13.72 65.09, 19.04 72.24, 23.32 78 M8.4 57.94 C13.37 64.62, 18.34 71.3, 23.32 78" stroke="#2f9e44" stroke-width="1" fill="none"></path></g><g transform="translate(426.82 390.5) rotate(0 11.660500000000013 39)"><path d="M24.78 53.04 C24.26 61.94, 23.74 70.84, 23.32 78 M24.78 53.04 C24.3 61.35, 23.81 69.66, 23.32 78" stroke="#2f9e44" stroke-width="1" fill="none"></path></g></g><mask id="mask-n1znPGn0kjYQrpN-bsLbi"><rect x="0" y="0" fill="#fff" width="551.1410000000001" height="569.5"></rect><rect x="415.043" y="417.5" fill="#000" width="46.875" height="24" opacity="1"></rect></mask><g mask="url(#mask-LoS3XrYAyK-9kH8PDJ2mz)" stroke-linecap="round"><g transform="translate(505.887 375.16899999999987) rotate(0 45.037000000000006 46.665500000000065)"><path d="M0 0 C15.01 15.56, 75.06 77.78, 90.07 93.33 M0 0 C15.01 15.56, 75.06 77.78, 90.07 93.33" stroke="#2f9e44" stroke-width="1" fill="none"></path></g><g transform="translate(505.887 375.16899999999987) rotate(0 45.037000000000006 46.665500000000065)"><path d="M67.61 82.36 C73.38 85.18, 79.16 88, 90.07 93.33 M67.61 82.36 C72.11 84.56, 76.62 86.76, 90.07 93.33" stroke="#2f9e44" stroke-width="1" fill="none"></path></g><g transform="translate(505.887 375.16899999999987) rotate(0 45.037000000000006 46.665500000000065)"><path d="M79.91 70.49 C82.52 76.36, 85.14 82.23, 90.07 93.33 M79.91 70.49 C81.95 75.07, 83.99 79.65, 90.07 93.33" stroke="#2f9e44" stroke-width="1" fill="none"></path></g></g><mask id="mask-LoS3XrYAyK-9kH8PDJ2mz"><rect x="0" y="0" fill="#fff" width="696.961" height="569.4999999999999"></rect><rect x="527.4865" y="409.834499999999" fill="#000" width="46.875" height="24" opacity="1"></rect></mask><g transform="translate(264.078125 15) rotate(0 99.609375 12)"><text x="0" y="0" font-family="Cascadia, Segoe UI Emoji" font-size="20px" fill="#2f9e44" text-anchor="start" style="white-space: pre;" direction="ltr" dominant-baseline="text-before-edge">ClientApplication</text></g><g transform="translate(182.19140625 60) rotate(0 175.78125 12)"><text x="0" y="0" font-family="Cascadia, Segoe UI Emoji" font-size="20px" fill="#2f9e44" text-anchor="start" style="white-space: pre;" direction="ltr" dominant-baseline="text-before-edge">+VideoConverter videoConverter</text></g><g transform="translate(273.26171875 195) rotate(0 82.03125 12)"><text x="0" y="0" font-family="Cascadia, Segoe UI Emoji" font-size="20px" fill="#2f9e44" text-anchor="start" style="white-space: pre;" direction="ltr" dominant-baseline="text-before-edge">VideoConverter</text></g><g transform="translate(231.61328125 240) rotate(0 128.90625 12)"><text x="0" y="0" font-family="Cascadia, Segoe UI Emoji" font-size="20px" fill="#2f9e44" text-anchor="start" style="white-space: pre;" direction="ltr" dominant-baseline="text-before-edge">+VideoMixer videoMixer</text></g><g transform="translate(231.61328125 273) rotate(0 128.90625 12)"><text x="0" y="0" font-family="Cascadia, Segoe UI Emoji" font-size="20px" fill="#2f9e44" text-anchor="start" style="white-space: pre;" direction="ltr" dominant-baseline="text-before-edge">+AudioMixer audioMixer</text></g><g transform="translate(231.61328125 306) rotate(0 82.03125 12)"><text x="0" y="0" font-family="Cascadia, Segoe UI Emoji" font-size="20px" fill="#2f9e44" text-anchor="start" style="white-space: pre;" direction="ltr" dominant-baseline="text-before-edge">+Codecs codecs</text></g><g transform="translate(231.61328125 339) rotate(0 93.75 12)"><text x="0" y="0" font-family="Cascadia, Segoe UI Emoji" font-size="20px" fill="#2f9e44" text-anchor="start" style="white-space: pre;" direction="ltr" dominant-baseline="text-before-edge">+Bitrate bitrate</text></g><g transform="translate(17.5 474) rotate(0 58.59375 12)"><text x="0" y="0" font-family="Cascadia, Segoe UI Emoji" font-size="20px" fill="#2f9e44" text-anchor="start" style="white-space: pre;" direction="ltr" dominant-baseline="text-before-edge">VideoMixer</text></g><g transform="translate(213.0234375 474) rotate(0 58.59375 12)"><text x="0" y="0" font-family="Cascadia, Segoe UI Emoji" font-size="20px" fill="#2f9e44" text-anchor="start" style="white-space: pre;" direction="ltr" dominant-baseline="text-before-edge">AudioMixer</text></g><g transform="translate(409.6953125 474) rotate(0 35.15625 12)"><text x="0" y="0" font-family="Cascadia, Segoe UI Emoji" font-size="20px" fill="#2f9e44" text-anchor="start" style="white-space: pre;" direction="ltr" dominant-baseline="text-before-edge">Codecs</text></g><g transform="translate(556.5859375 474) rotate(0 41.015625 12)"><text x="0" y="0" font-family="Cascadia, Segoe UI Emoji" font-size="20px" fill="#2f9e44" text-anchor="start" style="white-space: pre;" direction="ltr" dominant-baseline="text-before-edge">Bitrate</text></g><g transform="translate(341.3125 138.5) rotate(0 23.4375 12)"><text x="23.4375" y="0" font-family="Cascadia, Segoe UI Emoji" font-size="20px" fill="#2f9e44" text-anchor="middle" style="white-space: pre;" direction="ltr" dominant-baseline="text-before-edge">uses</text></g><g transform="translate(130 402.28650000000016) rotate(0 23.437500000000057 12)"><text x="23.4375" y="0" font-family="Cascadia, Segoe UI Emoji" font-size="20px" fill="#2f9e44" text-anchor="middle" style="white-space: pre;" direction="ltr" dominant-baseline="text-before-edge">uses</text></g><g transform="translate(267.582 417.5) rotate(0 23.4375 12)"><text x="23.4375" y="0" font-family="Cascadia, Segoe UI Emoji" font-size="20px" fill="#2f9e44" text-anchor="middle" style="white-space: pre;" direction="ltr" dominant-baseline="text-before-edge">uses</text></g><g transform="translate(415.043 417.5) rotate(0 23.4375 12)"><text x="23.4375" y="0" font-family="Cascadia, Segoe UI Emoji" font-size="20px" fill="#2f9e44" text-anchor="middle" style="white-space: pre;" direction="ltr" dominant-baseline="text-before-edge">uses</text></g><g transform="translate(527.4865 409.834499999999) rotate(0 23.4375 12.00000000000091)"><text x="23.4375" y="0" font-family="Cascadia, Segoe UI Emoji" font-size="20px" fill="#2f9e44" text-anchor="middle" style="white-space: pre;" direction="ltr" dominant-baseline="text-before-edge">uses</text></g></svg>